<svg id="Layer_35" enable-background="new 0 0 64 64" height="512" viewBox="0 0 64 64" width="512" xmlns="http://www.w3.org/2000/svg"><path d="m62 6c-12.645 0-19.973 1.796-19.998 10.956-.143.157-.276.312-.403.468-.162-1.158-.367-2.362-.618-3.621l-1.961.393c.316 1.581.555 3.068.725 4.474-1.075-.981-2.602-1.67-4.745-1.67h-1v1c0 2.265 1.282 6.417 5.98 6.943-.11 1.7-.385 3.229-.826 4.602-.377-.528-.919-1.046-1.707-1.44-1.807-.903-2.734-1.806-2.74-1.812l-1.707-1.707v2.414c0 1.642 0 3.327.542 5.051-1.248.084-2.458.268-3.568.49-.091-1.026-.486-2.021-1.201-3.008 1.03-.372 2.052-.943 2.935-1.826l.981-.981-1.241-.621c-.156-.078-3.547-1.749-8.043-2.057.165-.224.376-.47.624-.755.878-1.01 1.971-2.268 1.971-4.293v-1h-1c-.226 0-1.206.007-2.422.093 2.29-2.688 5.771-5.338 10.764-7.154l-.684-1.88c-1.884.685-3.555 1.496-5.062 2.377.247-.768.404-1.595.404-2.436 0-4.432-4.376-8-8-8h-.535l-.297.445c-.088.133-2.168 3.29-2.168 6.555 0 3.634 2.298 6.162 5.997 6.823-1.266 1.175-2.312 2.393-3.153 3.602-.869.16-1.685.378-2.292.681-1.47.735-2.461 1.923-2.991 2.695-1.037-.258-2.967-.48-5.805.229-3.347.837-5.782.97-5.807.971l-1.663.085.856 1.428c.209.348 1.46 2.365 3.204 3.854-1.38.632-2.346 2.018-2.346 3.632 0 .625.161 1.228.433 1.773-.885.764-1.433 1.901-1.433 3.129 0 1.499.798 2.798 1.973 3.513-.598.699-.973 1.595-.973 2.585 0 2.206 1.794 4 4 4 .399 0 .761-.048 1.105-.119.338 1.494 1.511 2.668 3.003 3.01.408 1.777 1.994 3.109 3.892 3.109.488 0 .966-.091 1.414-.262.649 1.334 2.006 2.262 3.586 2.262 2.059 0 3.74-1.569 3.957-3.572.101.061.197.128.303.179-.168.443-.26.913-.26 1.393 0 1.57.893 2.917 2.263 3.574-.172.45-.263.93-.263 1.416 0 2.206 1.794 4 4 4 .984 0 1.874-.371 2.572-.962.697 1.175 1.966 1.972 3.428 1.972 1.58 0 2.937-.929 3.586-2.262.449.171.926.262 1.414.262 1.898 0 3.484-1.332 3.892-3.108 1.492-.342 2.665-1.517 3.003-3.01.344.07.706.118 1.105.118 2.206 0 4-1.794 4-4 0-.99-.375-1.886-.973-2.585 1.175-.714 1.973-2.014 1.973-3.513 0-1.229-.548-2.366-1.434-3.13.273-.546.434-1.148.434-1.772 0-1.622-.974-3.014-2.364-3.641 1.2-.792 2.005-1.585 2.071-1.651l.707-.708-.707-.707c-.134-.135-3.332-3.293-6.707-3.293-2.335 0-4.027.329-5.097.629.591-1.669.949-3.537 1.077-5.629h.02v-.311c.058-1.159.042-2.391-.038-3.689h.038c0-.691.561-1.811 1.772-3.004 12.176-.042 17.06-1.132 19.204-10.779l.271-1.217zm-43 2c0-1.992 1.024-4.049 1.541-4.961 2.375.331 5.459 2.732 5.459 5.961 0 1.138-.386 2.298-.896 3.195-.642-1.194-1.561-3.145-2.134-5.438l-1.94.485c.575 2.3 1.459 4.269 2.143 5.584-1.916-.374-4.173-1.515-4.173-4.826zm17.123 11.091c2.646.452 3.487 2.5 3.754 3.818-2.647-.452-3.487-2.501-3.754-3.818zm-8.123 13.906c-1.94.51-3.265 1.032-3.371 1.075l-.649.26c.008-.111.02-.22.02-.332v-.795c.197-.486.585-1.665.39-3.055.621.026 1.386.006 2.206-.101.925 1.02 1.402 1.989 1.404 2.948zm3.983 8.168c-.085 1.024-.936 1.835-1.983 1.835-1.103 0-2-.897-2-2 0-.959.478-1.93 1.403-2.949.82.107 1.586.127 2.207.1-.189 1.346.171 2.501.373 3.014zm19.276 2.118c.456.39.741.978.741 1.62 0 1.156-.897 2.097-2 2.097-.235 0-.449-.038-.666-.124-.564-.207-1.021-.756-1.223-1.396.353-.44.609-.946.75-1.492.047.001.091.012.139.012.821 0 1.602-.26 2.259-.717zm-5.259 6.717c-1.103 0-2-.929-2-2.069 0-.128.033-.237.055-.353.168-.197.344-.426.487-.619.152.017.304.041.458.041.5 0 .989-.095 1.452-.279.346.702.87 1.292 1.508 1.689-.185.918-.98 1.59-1.96 1.59zm-36-8c-.982 0-1.778-.674-1.96-1.594.64-.401 1.162-.987 1.507-1.683.46.18.951.277 1.453.277.157 0 .307-.023.46-.04.143.193.318.421.485.617.022.117.055.225.055.354 0 1.14-.897 2.069-2 2.069zm-3-6c.048 0 .093-.011.14-.012.14.539.393 1.043.749 1.49-.203.642-.665 1.193-1.251 1.408-.189.076-.403.114-.638.114-1.103 0-2-.941-2-2.098 0-.641.285-1.23.741-1.62.661.46 1.441.718 2.259.718zm38.091 4.83c.229 1.088.908 2.023 1.863 2.593-.085.396-.292.758-.616 1.056-.262.238-.707.521-1.338.521-.209 0-.417-.034-.62-.103l-.128-.05c-.761-.294-1.252-1.02-1.252-1.847v-2h1c.381 0 .742-.07 1.091-.17zm-4.049 2.76c.153 1.056.72 1.985 1.561 2.607-.065.079-.124.148-.173.198-.213.221-.456.379-.742.479-.223.083-.455.126-.688.126-.631 0-1.076-.283-1.365-.547-.409-.375-.635-.891-.635-1.453v-.215l.003-.003.279-.3v-.017c.134-.165.246-.343.349-.525.52-.056 1.005-.158 1.411-.35zm-3.943 2.272c.131.584.402 1.128.783 1.608-.2.642-.666 1.169-1.313 1.409-.447.182-1.047.166-1.564-.098-.274-.136-.511-.342-.706-.593.448-.671.701-1.459.701-2.286 0-.018-.004-.035-.005-.052.353.096.716.15 1.082.15.345 0 .687-.051 1.022-.138zm-4.836-1.569c.267.23.482.524.607.877.086.236.13.483.13.732 0 .536-.195 1.045-.549 1.433l-.109.112c-.535.521-1.292.707-2.034.419-.234-.087-.444-.219-.644-.41-.422-.386-.664-.952-.664-1.554l.008-.165c.018-.286.101-.563.23-.814.247.048.501.077.762.077.84 0 1.619-.263 2.263-.707zm-6.263-3.293c0 .342.056.669.138.986-.778-.037-1.49-.422-1.87-1.035-.178-.293-.268-.612-.268-.951 0-1.103 1.012-2 2.255-2h.656c-.61.981-.911 1.973-.911 3zm-12.432-2.606c-.048-.049-.107-.118-.172-.197.841-.622 1.408-1.55 1.562-2.607.406.192.891.294 1.411.351.103.182.215.36.349.525l.279.316c.001.001.002.002.003.003v.215c0 .562-.226 1.078-.662 1.479-.546.497-1.28.673-2.05.387-.264-.093-.506-.251-.72-.472zm5.834 2.474c-.624-.231-1.085-.755-1.284-1.396.378-.473.651-1.019.783-1.61.334.087.676.138 1.022.138.632 0 1.256-.154 1.838-.441.183.564.237 1.181.239 1.441v.694c-.009.019-.013.035-.024.057-.206.452-.554.818-.988 1.034-.505.255-1.075.288-1.586.083zm4.234-3.997c-.08-.233-.183-.464-.302-.691.199-.3.355-.624.466-.966l.493.493c.194.194.402.354.608.52-.464.148-.888.365-1.265.644zm-1.636-2.871c0 .676-.335 1.282-.907 1.653-.721.452-1.632.444-2.328.008-.025-.016-.044-.032-.066-.047 1.212-.557 2.042-1.669 2.248-2.976l1.053.843zm-3-2c0 .828-.491 1.553-1.252 1.848l-.129.051c-.202.067-.41.101-.619.101-.508 0-.9-.074-1.203-.228l.152-.456c.209-.628.928-2.235 1.986-3.088l1.065.853zm-7-1c-.775 0-1.441-.447-1.773-1.093 1.01-.129 2.06-.374 2.844-.587.045.485.13 1.072.251 1.681h-1.322zm-1.091 1.83c.349.099.71.17 1.091.17h1v2c0 .827-.491 1.553-1.252 1.848l-.128.05c-.203.068-.411.102-.62.102-.631 0-1.076-.283-1.365-.547-.304-.278-.505-.634-.589-1.029.953-.567 1.633-1.504 1.863-2.594zm4.091 8.17c.504 0 .998-.098 1.463-.285.341.68.858 1.251 1.495 1.651-.033.171-.081.34-.161.504-.192.405-.521.734-.935.931-.543.264-1.173.268-1.733-.004-.405-.192-.734-.521-.931-.936-.131-.27-.198-.559-.198-.861v-1.146c.328.087.661.146 1 .146zm3.896 6.669c-.124-.083-.233-.181-.328-.275-.218-.225-.369-.476-.449-.747l-.077-.257-.002-.003c-.027-.124-.04-.252-.04-.387v-.555c.691-.399 1.259-.99 1.599-1.707.119-.245.203-.5.269-.759.078.004.151.021.23.021.402 0 .789-.081 1.166-.199-.152.362-.264.764-.264 1.199 0 .941.334 1.829.922 2.542-.125.455-.402.85-.804 1.118-.69.444-1.559.435-2.222.009zm5.029-1.977c-.579-.377-.925-1.009-.925-1.692 0-.331.237-.725.453-1.003.769.631 1.76 1.003 2.802 1.003.335 0 .668-.04.991-.112.06.057.128.104.191.157-.238.471-.386.979-.417 1.492-.584.461-1.105.463-2.02.463-.381 0-.75-.108-1.075-.308zm7.075 4.308c.644 0 1.261-.173 1.819-.47.333.397.73.73 1.181.973.001.238.001.479.003.515l-.012.105c-.045.801-.562 1.489-1.344 1.765-.391.15-.908.16-1.396-.04-.76-.295-1.251-1.021-1.251-1.848v-1.149c.328.088.661.149 1 .149zm4.987 1.26c.004-.048.006-.127.008-.268.046-.001.09-.01.135-.012.066.257.148.51.265.75.345.726.915 1.319 1.604 1.716v.554c0 .157-.081.487-.119.646-.08.271-.231.522-.439.737-.104.104-.213.202-.323.275-.69.445-1.559.437-2.223.009-.448-.298-.737-.741-.844-1.246 1.114-.662 1.853-1.829 1.936-3.161zm5.81-.39c-.192.405-.521.734-.935.931-.543.264-1.173.268-1.733-.004-.405-.192-.734-.521-.931-.936-.078-.16-.126-.328-.158-.499.639-.403 1.154-.971 1.494-1.645.464.184.959.283 1.466.283.343 0 .677-.059 1-.145v1.145c0 .302-.067.591-.203.87zm2.203-11.87h-1.323c.111-.558.193-1.099.239-1.558.765.256 1.774.503 2.814.542-.345.604-.987 1.016-1.73 1.016zm-5 3c-.209 0-.417-.034-.62-.103l-.128-.05c-.761-.294-1.252-1.02-1.252-1.847v-.92l1.064-.852c1.052.852 1.775 2.46 1.987 3.089l.153.454c-.302.155-.696.229-1.204.229zm-3.947-1.362c.206 1.305 1.033 2.418 2.243 2.977l.003.001c-.018.012-.033.026-.052.038-.721.453-1.632.445-2.328.008-.584-.38-.919-.986-.919-1.662v-.519zm-25.81-16.668c3.451-.863 5.237-.107 5.32-.071l.885.442.447-.895c.008-.017.865-1.648 2.454-2.494-.929 1.914-1.349 3.683-1.349 5.048h2c0-1.495.612-3.554 1.975-5.732.979-.133 2.02-.205 2.854-.24-.258.743-.773 1.336-1.31 1.953-.747.858-1.519 1.746-1.519 3.019v1h1c2.879 0 5.434.708 6.985 1.258-2.546 1.371-5.752.769-5.789.761l-2.005-.401.914 1.829c.316.632.368 1.277.322 1.814l-4.303-3.442-.572.286c-.995.498-1.767 1.372-2.331 2.225-.215-1.235-.221-2.313-.221-2.331l-.002-1.386-1.314.438c-.029.01-2.867.949-4.684.949-1.437 0-3.126-1.762-4.214-3.176 1.095-.143 2.644-.401 4.457-.854zm-2.243 6.03h1.142c.159.61.456 1.158.859 1.619.001.196.001.37.002.401l-.012.103c-.046.791-.554 1.477-1.343 1.766-.598.232-1.457.091-2.014-.435-.408-.376-.634-.892-.634-1.454 0-1.103.897-2 2-2zm-2 13c0-.814.49-1.513 1.189-1.825.39 1.302 1.402 2.297 2.717 2.66-.207.822-.79 1.165-1.906 1.165-1.103 0-2-.897-2-2zm5 3v-.106c.487-.511.807-1.187.934-2.018.473-.116.918-.309 1.309-.579.05.145.085.294.153.433.345.726.915 1.319 1.604 1.716v.554c0 1.103-.897 2-2 2s-2-.897-2-2zm3.172 3.805c1.631-.505 2.828-2.01 2.828-3.805 0 .376.05.73.154 1.078l.006.28.133.126c.157.411.403.785.707 1.135v.381c0 .567-.238 1.104-.662 1.479-.371.336-.846.521-1.338.521-.816 0-1.517-.493-1.828-1.195zm6.828 3.195c-.921 0-1.69-.629-1.922-1.477.404-.489.698-1.058.832-1.68.355.101.721.157 1.09.157.692 0 1.374-.194 2-.549v1.549c0 1.103-.897 2-2 2zm4-5.135c.328.085.663.135 1 .135.774 0 1.566-.007 2.381-.366.137.3.315.574.519.829-.098.353-.252.691-.429.884-.367.415-.903.653-1.471.653l-.149-.007c-1.055-.075-1.851-.931-1.851-1.993zm2.305 4.103c.62-.048 1.206-.236 1.726-.545.119 1.15.716 2.163 1.628 2.812l-.089.1c-.054.062-.109.115-.114.123-.046.039-.092.079-.155.123-.143.104-.286.188-.434.253-.248.108-.529.166-.811.166l-.159-.007c-1.082-.082-1.897-.938-1.897-1.993 0-.434.14-.774.305-1.032zm3.695 8.022c-1.103 0-2-.897-2-2 0-.421.132-.755.288-1.014.477-.028.951-.122 1.386-.312.283-.126.546-.278.788-.455.044-.031.099-.078.149-.118.816.258 1.389 1.004 1.389 1.899 0 1.103-.897 2-2 2zm6 1.01c-1.103 0-2-.897-2-2v-1.548c.619.353 1.304.548 2 .548.368 0 .733-.055 1.09-.158.134.624.429 1.195.832 1.682-.232.848-1.002 1.476-1.922 1.476zm5-2c-.631 0-1.076-.283-1.347-.529-.415-.367-.653-.904-.653-1.471v-.386c.366-.421.647-.885.799-1.401l.031-.124c.06-.24.17-.69.17-1.089 0 1.795 1.197 3.3 2.828 3.805-.311.702-1.012 1.195-1.828 1.195zm3-3c-1.103 0-2-.897-2-2v-.555c.691-.399 1.259-.99 1.599-1.707.07-.143.105-.294.157-.442.391.271.836.464 1.31.58.128.831.447 1.507.934 2.018v.106c0 1.103-.897 2-2 2zm5-3c-1.116 0-1.698-.343-1.906-1.164 1.315-.363 2.327-1.358 2.717-2.66.699.311 1.189 1.01 1.189 1.824 0 1.103-.897 2-2 2zm1.354-11.537c-.541.51-1.303.692-2.05.408-.742-.272-1.25-.959-1.297-1.763-.003-.07-.005-.276-.006-.492.402-.46.699-1.008.857-1.617h1.142c1.103 0 2 .897 2 2 0 .563-.226 1.079-.646 1.464zm-10.119-8.466.207-.1c.018-.009 1.892-.897 5.558-.897 1.699 0 3.48 1.197 4.482 2-1.002.803-2.783 2-4.482 2-1.73 0-3.536-.886-3.554-.896l-1.443-.715-.003 1.61c0 .018-.006 1.096-.222 2.331-.563-.853-1.336-1.728-2.331-2.225l-.572-.286-4.303 3.442c-.046-.537.006-1.182.323-1.814l.908-1.819-1.997.391c-.037.009-3.14.592-5.664-.694 1.842-.566 4.87-1.325 7.858-1.325h1.618l-.724-1.447c-.575-1.149-.78-2.314-.854-3.513.426.272.931.564 1.512.855 1.398.698 1.447 2.059 1.448 2.105v.171c-.246.427-.508.841-.8 1.229l1.6 1.199c.38-.507.721-1.043 1.034-1.602zm6.249-17.032c1.29-.754 2.871-1.455 4.791-2.003l-.55-1.923c-2.789.797-4.943 1.878-6.573 3.04.843-5.055 5.42-6.942 16.573-7.071-1.726 6.433-4.901 7.752-14.241 7.957z"/></svg>