<?xml version="1.0"?>
<svg xmlns="http://www.w3.org/2000/svg" id="outline" viewBox="0 0 512 512" width="512" height="512"><path d="M16,488a8.00039,8.00039,0,0,0,8,8H36.68652A35.31243,35.31243,0,0,0,72,460.68652V448a8.00039,8.00039,0,0,0-8-8H51.31348A35.31243,35.31243,0,0,0,16,475.31348Zm16-12.68652A19.315,19.315,0,0,1,51.31348,456H56v4.68652A19.315,19.315,0,0,1,36.68652,480H32Z"/><path d="M115.31348,440H128a8.00039,8.00039,0,0,0,8-8V419.31348A35.31243,35.31243,0,0,0,100.68652,384H88a8.00039,8.00039,0,0,0-8,8v12.68652A35.31243,35.31243,0,0,0,115.31348,440ZM96,400h4.68652A19.315,19.315,0,0,1,120,419.31348V424h-4.68652A19.315,19.315,0,0,1,96,404.68652Z"/><path d="M36.68652,240H24a8.00039,8.00039,0,0,0-8,8v12.68652A35.31243,35.31243,0,0,0,51.31348,296H64a8.00039,8.00039,0,0,0,8-8V275.31348A35.31243,35.31243,0,0,0,36.68652,240ZM56,280H51.31348A19.315,19.315,0,0,1,32,260.68652V256h4.68652A19.315,19.315,0,0,1,56,275.31348Z"/><path d="M168,480h12.68652A35.31243,35.31243,0,0,0,216,444.68652V432a8.00039,8.00039,0,0,0-8-8H195.31348A35.31243,35.31243,0,0,0,160,459.31348V472A8.00039,8.00039,0,0,0,168,480Zm8-20.68652A19.315,19.315,0,0,1,195.31348,440H200v4.68652A19.315,19.315,0,0,1,180.68652,464H176Z"/><path d="M66.34277,178.34277a8.00122,8.00122,0,0,0,0,11.31446l4.68653,4.68652a46.27177,46.27177,0,0,0,25.198,13.00195A35.8892,35.8892,0,0,0,96,211.31348V224a8.00039,8.00039,0,0,0,8,8h12.68652a35.06639,35.06639,0,0,0,19.59571-5.92285A7.99624,7.99624,0,0,0,144,232h12.68652a35.06639,35.06639,0,0,0,19.59571-5.92285A7.99624,7.99624,0,0,0,184,232h12.68652a35.06639,35.06639,0,0,0,19.59571-5.92285A7.99624,7.99624,0,0,0,224,232h12.68652a35.06639,35.06639,0,0,0,19.59571-5.92285A7.99645,7.99645,0,0,0,264,232h12.68652A35.31243,35.31243,0,0,0,312,196.68652v-4.38183a104.1396,104.1396,0,0,1,96,103.69507l-35.91895-26.93921a65.30406,65.30406,0,0,0-98.63281,25.2207l-24.73144,54.4082a7.99971,7.99971,0,0,0,12.19433,9.625l43.583-33.89843A64.3103,64.3103,0,0,1,360.627,313.19043L408,326.10986V496h16V296A120.15105,120.15105,0,0,0,312,176.273v-4.95947A35.31243,35.31243,0,0,0,276.68652,136H264a7.99645,7.99645,0,0,0-7.71777,5.92285A35.06639,35.06639,0,0,0,236.68652,136H224a7.99624,7.99624,0,0,0-7.71777,5.92285A35.06639,35.06639,0,0,0,196.68652,136H184a7.99624,7.99624,0,0,0-7.71777,5.92285A35.06639,35.06639,0,0,0,156.68652,136H144a7.99624,7.99624,0,0,0-7.71777,5.92285A35.06639,35.06639,0,0,0,116.68652,136H104a8.00039,8.00039,0,0,0-8,8v12.68652a35.8892,35.8892,0,0,0,.22729,3.96778,46.27177,46.27177,0,0,0-25.198,13.00195ZM364.83594,297.75488a80.37439,80.37439,0,0,0-70.16406,14.03223L276.71973,325.749l11.29492-24.84668a49.30274,49.30274,0,0,1,74.4668-19.041l31.9541,23.96582ZM116.68652,216H112v-4.68652A19.315,19.315,0,0,1,131.31348,192H136v4.68652A19.315,19.315,0,0,1,116.68652,216Zm40,0H152v-4.68652A19.315,19.315,0,0,1,171.31348,192H176v4.68652A19.315,19.315,0,0,1,156.68652,216Zm40,0H192v-4.68652A19.315,19.315,0,0,1,211.31348,192H216v4.68652A19.315,19.315,0,0,1,196.68652,216Zm40,0H232v-4.68652A19.315,19.315,0,0,1,251.31348,192H256v4.68652A19.315,19.315,0,0,1,236.68652,216ZM296,196.68652A19.315,19.315,0,0,1,276.68652,216H272v-4.68652A19.315,19.315,0,0,1,291.31348,192H296ZM272,152h4.68652A19.315,19.315,0,0,1,296,171.31348V176h-4.68652A19.315,19.315,0,0,1,272,156.68652Zm-40,0h4.68652A19.315,19.315,0,0,1,256,171.31348V176h-4.68652A19.315,19.315,0,0,1,232,156.68652Zm-40,0h4.68652A19.315,19.315,0,0,1,216,171.31348V176h-4.68652A19.315,19.315,0,0,1,192,156.68652Zm-40,0h4.68652A19.315,19.315,0,0,1,176,171.31348V176h-4.68652A19.315,19.315,0,0,1,152,156.68652Zm-40,0h4.68652A19.315,19.315,0,0,1,136,171.31348V176h-4.68652A19.315,19.315,0,0,1,112,156.68652Zm-10.20288,24.08569a35.65477,35.65477,0,0,0,4.54565,5.57154q1.24146,1.24144,2.58179,2.34277-1.3385,1.10119-2.58179,2.34277a35.65477,35.65477,0,0,0-4.54565,5.57154A30.36,30.36,0,0,1,83.3584,184,30.36,30.36,0,0,1,101.79712,176.08569Z"/><path d="M264,56.14624V51.31348A35.31243,35.31243,0,0,0,228.68652,16H216a7.99624,7.99624,0,0,0-7.71777,5.92285A35.06639,35.06639,0,0,0,188.68652,16H176a7.99624,7.99624,0,0,0-7.71777,5.92285A35.06639,35.06639,0,0,0,148.68652,16H136a7.99624,7.99624,0,0,0-7.71777,5.92285A35.06639,35.06639,0,0,0,108.68652,16H96a7.99624,7.99624,0,0,0-7.71777,5.92285A35.06639,35.06639,0,0,0,68.68652,16H56a8.00039,8.00039,0,0,0-8,8V36.68652a35.8892,35.8892,0,0,0,.22729,3.96778,46.27177,46.27177,0,0,0-25.198,13.002l-4.68653,4.68652a8.00122,8.00122,0,0,0,0,11.31446l4.68653,4.68652a46.27177,46.27177,0,0,0,25.198,13.00195A35.8892,35.8892,0,0,0,48,91.31348V104a8.00039,8.00039,0,0,0,8,8H68.68652a35.06639,35.06639,0,0,0,19.59571-5.92285A7.99624,7.99624,0,0,0,96,112h12.68652a35.06639,35.06639,0,0,0,19.59571-5.92285A7.99624,7.99624,0,0,0,136,112h12.68652a35.06639,35.06639,0,0,0,19.59571-5.92285A7.99624,7.99624,0,0,0,176,112h12.68652a35.06639,35.06639,0,0,0,19.59571-5.92285A7.99624,7.99624,0,0,0,216,112h12.68652A35.31243,35.31243,0,0,0,264,76.68652V72.156A223.97736,223.97736,0,0,1,480,296V496h16V296A239.9752,239.9752,0,0,0,264,56.14624ZM224,32h4.68652A19.315,19.315,0,0,1,248,51.31348V56h-4.68652A19.315,19.315,0,0,1,224,36.68652Zm-40,0h4.68652A19.315,19.315,0,0,1,208,51.31348V56h-4.68652A19.315,19.315,0,0,1,184,36.68652Zm-40,0h4.68652A19.315,19.315,0,0,1,168,51.31348V56h-4.68652A19.315,19.315,0,0,1,144,36.68652Zm-40,0h4.68652A19.315,19.315,0,0,1,128,51.31348V56h-4.68652A19.315,19.315,0,0,1,104,36.68652ZM64,32h4.68652A19.315,19.315,0,0,1,88,51.31348V56H83.31348A19.315,19.315,0,0,1,64,36.68652ZM53.79712,71.91431A30.36,30.36,0,0,1,35.3584,64a30.36,30.36,0,0,1,18.43872-7.91431,35.65477,35.65477,0,0,0,4.54565,5.57154Q59.58423,62.89868,60.92456,64q-1.3385,1.10119-2.58179,2.34277A35.65477,35.65477,0,0,0,53.79712,71.91431ZM68.68652,96H64V91.31348A19.315,19.315,0,0,1,83.31348,72H88v4.68652A19.315,19.315,0,0,1,68.68652,96Zm40,0H104V91.31348A19.315,19.315,0,0,1,123.31348,72H128v4.68652A19.315,19.315,0,0,1,108.68652,96Zm40,0H144V91.31348A19.315,19.315,0,0,1,163.31348,72H168v4.68652A19.315,19.315,0,0,1,148.68652,96Zm40,0H184V91.31348A19.315,19.315,0,0,1,203.31348,72H208v4.68652A19.315,19.315,0,0,1,188.68652,96ZM248,76.68652A19.315,19.315,0,0,1,228.68652,96H224V91.31348A19.315,19.315,0,0,1,243.31348,72H248Z"/><path d="M40,408a24,24,0,1,0-24-24A24.0275,24.0275,0,0,0,40,408Zm0-32a8,8,0,1,1-8,8A8.00917,8.00917,0,0,1,40,376Z"/><path d="M240,424a24,24,0,1,0-24-24A24.0275,24.0275,0,0,0,240,424Zm0-32a8,8,0,1,1-8,8A8.00917,8.00917,0,0,1,240,392Z"/><circle cx="112" cy="480" r="16"/><circle cx="160" cy="408" r="8"/><circle cx="168" cy="272" r="8"/><circle cx="144" cy="376" r="8"/><circle cx="216" cy="296" r="8"/><path d="M128,288h-7.0293A48.96928,48.96928,0,0,0,72,336.9707V344a8.00039,8.00039,0,0,0,8,8h7.0293A48.96928,48.96928,0,0,0,136,303.0293V296A8.00039,8.00039,0,0,0,128,288Zm-17.65723,38.34277a32.732,32.732,0,0,1-22.32812,9.64258,32.97225,32.97225,0,0,1,31.9707-31.9707A32.732,32.732,0,0,1,110.34277,326.34277Z"/><path d="M158.34277,353.65723l8,8a24.97109,24.97109,0,0,0,35.31446-35.31446l-8-8a24.97109,24.97109,0,0,0-35.31446,35.31446Zm11.31446-24a8.97784,8.97784,0,0,1,12.68554,0l8,8a8.97,8.97,0,0,1-12.68554,12.68554l-8-8A8.979,8.979,0,0,1,169.65723,329.65723Z"/></svg>
