<svg id="Capa_1" enable-background="new 0 0 512 512" height="512" viewBox="0 0 512 512" width="512" xmlns="http://www.w3.org/2000/svg"><g><path d="m297.332 427.809c-33.493-7.375-65.13-14.343-111.451 26.936-17.82 15.88-41.654 24.625-67.114 24.625-23.547 0-45.744-7.688-64.193-22.235l-9.287 11.778c21.121 16.654 46.53 25.457 73.48 25.457 29.144 0 56.523-10.096 77.093-28.427 40.6-36.18 66.039-30.577 98.246-23.485 29.6 6.517 63.146 13.905 114.149-7.237l-5.744-13.856c-46.64 19.333-76.398 12.781-105.179 6.444z"/><path d="m46.59 310.939c31.806-29.96 18.731-51.933 9.185-67.977-.971-1.632-1.889-3.173-2.746-4.695-13.386-23.769-9.587-54.941 10.162-83.385l-12.321-8.555c-23.107 33.28-27.185 70.401-10.91 99.3.944 1.678 1.951 3.369 2.924 5.005 9.201 15.463 16.469 27.677-6.58 49.387-21.714 20.457-36.304 50.832-36.304 75.585 0 30.986 11.87 60.315 33.422 82.584l10.778-10.432c-18.83-19.456-29.2-45.08-29.2-72.152 0-20.553 12.99-47.144 31.59-64.665z"/><path d="m310.133 39.101c-28.22 0-55.523 5.712-81.154 16.978-23.078 10.144-43.779 24.316-61.606 42.164-16.308-7.035-34.957-7.283-54.309-.657-18.909 6.474-37.522 19.352-52.413 36.263l11.258 9.912c23.054-26.183 62.153-46.68 93.521-29.812l5.053 2.717 3.945-4.165c35.665-37.66 83.859-58.4 135.705-58.4 103.039 0 186.867 83.828 186.867 186.867 0 74.058-33.013 144.072-82.148 174.22l7.844 12.785c26.948-16.534 49.647-43.414 65.644-77.733 15.478-33.21 23.66-70.996 23.66-109.272 0-111.31-90.558-201.867-201.867-201.867z"/><path d="m192.033 322.179c19.747 15.331 43.423 23.435 68.47 23.435 61.617 0 111.747-50.129 111.747-111.747s-50.13-111.747-111.747-111.747-111.746 50.13-111.746 111.747c0 29.093 11.125 56.645 31.326 77.58l10.794-10.416c-17.489-18.124-27.12-41.977-27.12-67.164 0-53.346 43.4-96.747 96.746-96.747 53.347 0 96.747 43.4 96.747 96.747s-43.4 96.747-96.747 96.747c-21.684 0-42.18-7.014-59.271-20.283z"/><path d="m84.576 81.361c.857 0 1.723-.021 2.595-.064 21.979-1.076 41.031-15.308 43.372-32.399 1.019-7.439-1.258-14.632-6.41-20.253-6.952-7.585-18.265-11.581-31.037-10.95-21.98 1.076-41.031 15.308-43.372 32.399-1.019 7.439 1.258 14.632 6.41 20.253 6.477 7.067 16.739 11.014 28.442 11.014zm-19.991-29.233c1.347-9.834 14.739-18.742 29.244-19.453.618-.03 1.229-.045 1.834-.045 7.413 0 13.833 2.245 17.41 6.148 2.144 2.34 3.021 5.06 2.607 8.084-1.347 9.834-14.739 18.742-29.244 19.453-8.189.399-15.376-1.881-19.245-6.103-2.143-2.339-3.02-5.059-2.606-8.084z"/><path d="m67.551 442.177 9.926-11.246c-15.873-14.009-24.977-34.175-24.977-55.327h-15c0 25.454 10.953 49.719 30.051 66.573z"/><path d="m474.5 248.468c0-49.279-21.211-96.261-58.192-128.898l-9.926 11.246c33.758 29.791 53.118 72.674 53.118 117.652z"/><path d="m332.176 220.937c-4.61-17.922-13.081-32.962-24.494-43.496-12.633-11.658-28.947-17.82-47.179-17.82v15c28.134 0 48.963 18.244 57.146 50.054z"/><path d="m459.5 263.468h15v15h-15z"/><path d="m37.5 345.603h15v15h-15z"/><path d="m230.503 159.621h15v15h-15z"/></g></svg>