<?xml version="1.0" encoding="iso-8859-1"?>
<!-- Generator: Adobe Illustrator 19.0.0, SVG Export Plug-In . SVG Version: 6.00 Build 0)  -->
<svg version="1.1" id="Capa_1" xmlns="http://www.w3.org/2000/svg" xmlns:xlink="http://www.w3.org/1999/xlink" x="0px" y="0px"
	 viewBox="0 0 512 512" style="enable-background:new 0 0 512 512;" xml:space="preserve">
<g>
	<g>
		<path d="M170,204.78c-5.52,0-10,4.48-10,10c0,5.52,4.48,10,10,10s10-4.48,10-10C180,209.26,175.52,204.78,170,204.78z"/>
	</g>
</g>
<g>
	<g>
		<path d="M510.854,310.56c-0.387-2.471-0.869-4.979-1.457-7.498c-5.92-25.311-23.733-47.568-49.397-62.106v-65.532
			c0.15-2.33-0.508-4.684-1.954-6.623C414.582,110.542,302.873,84.78,230,84.78c-27.127,0-53.67,3.024-78.89,8.987
			C76.627,111.368,0,160.636,0,234.78v95.86c0,23.505,11.081,44.909,29.639,57.254c38.648,25.728,84.252,39.326,131.881,39.326
			c26.511,0,52.766-4.216,78.037-12.531c59.262-19.507,149.781-30.663,242.074-29.839c0.093,0,0.187,0.001,0.279,0.001
			c16.659,0,30.09-13.332,30.09-29.951v-39.7C512,313.524,511.583,311.948,510.854,310.56z M489.229,304.921
			c-5.713-0.094-11.474-0.142-17.229-0.142c-45.943,0-92.805,2.974-136.951,8.629l52.284-68.629h12.537
			C437.591,244.78,478.998,268.497,489.229,304.921z M306.831,317.446c-35.524,5.65-66.559,12.792-92.282,21.254
			c-3.907,1.284-7.861,2.411-11.843,3.409l74.148-97.329h85.337L306.831,317.446z M440,231.836
			c-13.072-4.635-26.733-7.057-40.13-7.057H260c-11.028,0-20-8.972-20-20s8.972-20,20-20c21.668,0,161.453,0,180,0V231.836z
			 M426.862,164.78H337.81l26.838-35.226C390.214,139.446,411.527,151.546,426.862,164.78z M158.962,112.489
			c22.746-5.112,46.624-7.709,71.038-7.709c2.739,0,5.51,0.045,8.292,0.112l-53.858,70.699c-3.347,4.393-2.498,10.668,1.896,14.015
			c4.412,3.362,10.683,2.478,14.015-1.896l62.049-81.452c28.157,2.491,56.296,8.079,82.411,16.341l-32.137,42.181H260
			c-22.056,0-40,17.944-40,40c0,19.416,13.909,35.639,32.284,39.246L174.03,346.744c-28.946,2.142-57.877-3.328-82.973-15.605
			l60.897-79.919c3.348-4.393,2.5-10.667-1.894-14.015c-4.395-3.349-10.668-2.5-14.015,1.894l-62.462,81.972
			c-4.384-2.943-8.612-6.118-12.633-9.499c-14.742-12.381-25.661-26.002-32.548-40.556L158.962,112.489z M124.908,122.378
			L21.173,248.337C20.408,243.843,20,239.318,20,234.78C20,180.187,72.825,141.192,124.908,122.378z M492,354.9
			c0,5.55-4.471,9.951-10.095,9.951c-0.032,0-0.064,0-0.097-0.001c-94.391-0.831-187.282,10.689-248.505,30.841
			c-23.249,7.65-47.401,11.529-71.784,11.529c-43.673,0-85.444-12.439-120.801-35.977C27.745,362.614,20,347.435,20,330.64v-34.284
			c28.241,41.247,80.84,70.848,141.765,70.848c52.22,0,56.955-16.012,152.863-30.74C364.405,328.82,418.824,324.78,472,324.78
			c6.692,0,13.384,0.07,20,0.2V354.9z"/>
	</g>
</g>
<g>
</g>
<g>
</g>
<g>
</g>
<g>
</g>
<g>
</g>
<g>
</g>
<g>
</g>
<g>
</g>
<g>
</g>
<g>
</g>
<g>
</g>
<g>
</g>
<g>
</g>
<g>
</g>
<g>
</g>
</svg>
