<svg height="512" viewBox="0 0 60 60" width="512" xmlns="http://www.w3.org/2000/svg"><g id="Page-1" fill="none" fill-rule="evenodd"><g id="049---No-Fast-Food" fill="rgb(0,0,0)" fill-rule="nonzero"><path id="Shape" d="m45 30c-1.4413592.0013447-2.8749188.2115282-4.256.624l1.037-7.893c.219-1.701.219-1.621.219-1.731-.0635672-2.1780478-.9745056-4.2453291-2.539-5.762l.345-.894c.5812863-1.5474346-.1885959-3.2747686-1.728-3.877l-3.432-1.316.309-1.779c.1369826-.78444422-.0435333-1.59116565-.5017745-2.24241973-.4582413-.65125409-1.1566066-1.09360158-1.9412255-1.22958027l-4.918-.858c-.1961035-.03377735-.3950947-.04784744-.594-.042 0-1.65685425-1.3431458-3-3-3h-5c-1.6568542 0-3 1.34314575-3 3v.766l-4.281.378c-.7919407.0704848-1.5235145.45245691-2.034 1.062-.51649457.60838153-.76563869 1.39944113-.691 2.194l.18 2.02-2.964.559c-1.62498271.3147427-2.69007364 1.8835506-2.383 3.51l.094.5c-2.558 2.024-3.921 4.435-3.921 7.011v.02c0 .114.015.158.219 1.711l4.558 34.628c.20173632 1.510383 1.48920544 2.6388947 3.013 2.641.98265427-.0738027 1.92527438-.4200995 2.722-1 1.2016774-.7010544 2.5078892-1.2051056 3.869-1.493 2.1828657-.3974261 4.4010708-.5673354 6.619-.507 2.220326-.0599376 4.4408796.1106422 6.626.509 1.3587507.2873866 2.6626333.7907758 3.862 1.491.7967256.5799005 1.7393457.9261973 2.722 1 1.3716907-.0039732 2.5704513-.9269164 2.925-2.252 5.4096676 3.3387136 12.3368934 2.9024356 17.2849315-1.0886084 4.9480381-3.9910439 6.8408422-10.6689244 4.7229571-16.6627609-2.1178851-5.9938364-7.7858846-10.0001536-14.1428886-9.9966307zm-5.1-9.937c-.8740501.0899441-1.7311089.3023573-2.546.631l1.29-3.346c.6272627.7930739 1.0576862 1.7234879 1.256 2.715zm-1.967-6.43-3.4 8.826c-.6705942.5887133-1.2630752 1.2608415-1.763 2-1.548 2.3-4.343 3.745-8.158 4.289l6.605-17.14.186-.5c.0925163-.2429243.2782987-.4387879.516-.544.2448125-.1084772.5229032-.1142408.772-.016l4.666 1.789c.5135993.2023935.7712706.7781555.58 1.296zm-16.933 15.367c-1.0026373-.0029506-2.0042809-.0633831-3-.181v-13.819c0-.5522847.4477153-1 1-1h5c.5522847 0 1 .4477153 1 1v7.174l-2.609 6.777c-.457.022-.91.049-1.391.049zm6.248-23.984 4.92.859c.2628723.04399494.497064.19171586.65.41.15326.21552929.2131083.48376489.166.744l-.257 1.48c-1.3770737-.19892355-2.7068031.58809314-3.195 1.891l-2.532 6.579v-1.979c-.0041888-1.2753043-.8157643-2.407978-2.022-2.822l1.107-6.347c.0500419-.28221213.2200517-.52883576.466-.676.2049378-.13637363.4554273-.18632777.697-.139zm-8.248-3.016h5c.5522847 0 1 .44771525 1 1v.842c-.4643017.43979008-.7749165 1.01719698-.886 1.647l-1.134 6.511h-2.525l-.5-5.577c-.1010065-1.15507168-.8641083-2.14612824-1.955-2.539v-.884c0-.55228475.4477153-1 1-1zm-7.785 4.493c.1712232-.2044503.4164218-.33280204.682-.357l4.981-.44c.017 0 .086 0 .1-.006.5131727.00617807.9383615.39982342.984.911l.488 5.454c-1.4187196.2645816-2.4480022 1.5018214-2.45 2.945v3.7l-1.363-7.238c-.0721129-.4315583-.2451441-.8399804-.505-1.192-.6666881-.95975918-1.8340852-1.43955429-2.983-1.226l-.163-1.826c-.0241129-.26261198.0584137-.52388611.229-.725zm-4.628 5.449 4.92-.929c.3882094-.0742566.7829162.0927044 1 .423.0850832.1106585.1408097.2410311.162.379l3.131 16.636c-3.005-.69-5.25-2.028-6.574-3.992-.47351428-.702485-1.03021992-1.3451476-1.658-1.914l-1.568-8.359c0-.012 0-.024-.007-.036l-.2-1.04c-.10249722-.5416294.25264617-1.064057.794-1.168zm-2.24 4.3.893 4.735c-.98813226-.4877634-2.05439367-.7978254-3.15-.916.33016842-1.4791165 1.12027312-2.8156782 2.257-3.818zm30.891 40.858c-.0678426.5156898-.5078676.9009256-1.028.9-.6129889-.0948127-1.1931254-.3393699-1.689-.712-1.391173-.8137098-2.9036449-1.3994551-4.48-1.735-2.3212753-.4295054-4.6811337-.6148486-7.041-.553-2.3575049-.0619529-4.7150188.1230553-7.034.552-1.5792651.3336924-3.0943823.9198844-4.487 1.736-.49587464.3726301-1.07601108.6171873-1.689.712-.52018219.0005465-.96027801-.384377-1.029-.9l-4.611-35.023c2.22055803.3477882 4.19008851 1.6193906 5.421 3.5 1.667 2.474 5.351 5.423 13.429 5.423.732 0 1.416-.032 2.077-.078h.013c.013 0 .025-.006.038-.006 6.605-.471 9.789-3.1 11.3-5.343 1.2309115-1.8806094 3.200442-3.1522118 5.421-3.5l-1.231 9.368c-4.6232818 2.1648595-7.8240511 6.5371649-8.4907273 11.5984784s1.2927232 10.1133163 5.1977273 13.4015216zm9.762.9c-7.1797017 0-13-5.8202983-13-13s5.8202983-13 13-13 13 5.8202983 13 13c-.008266 7.1762751-5.8237249 12.991734-13 13z"/><path id="Shape" d="m52.707 37.293c-.3904999-.3903819-1.0235001-.3903819-1.414 0l-6.293 6.293-6.293-6.293c-.3923789-.3789722-1.0160848-.3735524-1.4018186.0121814s-.3911536 1.0094397-.0121814 1.4018186l6.293 6.293-6.293 6.293c-.2599566.2510745-.3642126.6228779-.2726972.9725073.0915155.3496295.3645604.6226744.7141899.7141899.3496294.0915154.7214328-.0127406.9725073-.2726972l6.293-6.293 6.293 6.293c.3923789.3789722 1.0160848.3735524 1.4018186-.0121814s.3911536-1.0094397.0121814-1.4018186l-6.293-6.293 6.293-6.293c.3903819-.3904999.3903819-1.0235001 0-1.414z"/><path id="Shape" d="m13.147 51.636c-1.0065738.2157415-1.9946204.5103164-2.955.881l-3.115-23.659c-.02106082-.374746-.25019494-.7061419-.59336169-.8581771-.34316676-.1520352-.74257138-.0991045-1.03429123.1370684s-.42662464.6158128-.34934708.9831087l3.28 24.952c.04156318.3129228.22843969.5878485.504116.7416365.27567632.153788.60778177.1683801.895884.0393635 1.2101928-.5533009 2.4760457-.9756989 3.776-1.26.5317556-.1214503.8680961-.6466239.7559892-1.1804275-.112107-.5338036-.6313018-.8793016-1.1669892-.7765725z"/></g></g></svg>