<svg id="Layer_1" enable-background="new 0 0 512 512" height="512" viewBox="0 0 512 512" width="512" xmlns="http://www.w3.org/2000/svg"><path d="m464.866 96.4h-155.119c5.986-9.655 9.453-21.028 9.453-33.2 0-34.848-28.351-63.2-63.2-63.2s-63.2 28.352-63.2 63.2c0 12.172 3.467 23.544 9.453 33.2h-155.119c-25.555 0-47.134 20.642-47.134 47.133 0 25.988 21.002 47.133 47.134 47.133h145.666v50.334h-17.133c-43.708 0-79.267 35.559-79.267 79.267s35.559 79.267 79.267 79.267h49.267v65.333c0 25.99 21.002 47.133 47.133 47.133 25.548 0 47.134-20.65 47.134-47.133v-274.2h145.666c25.55 0 47.134-20.651 47.134-47.133-.001-26.428-21.532-47.134-47.135-47.134zm-417.732 64.267c-9.411 0-17.134-7.599-17.134-17.133 0-9.674 7.892-17.133 17.134-17.133h148.884c-2.077 5.308-3.218 11.083-3.218 17.118v17.149h-145.666zm177.8 208.866h-34.267v-34.267h34.267zm64.266 95.334c0 9.626-7.848 17.133-17.134 17.133-9.407 0-17.133-7.597-17.133-17.133v-33.2h34.267zm0-63.2h-34.267v-17.133-64.267c0-8.284-6.716-15-15-15h-64.267c-8.284 0-15 6.716-15 15v46.924c-19.852-6.361-34.267-24.988-34.267-46.924 0-27.166 22.101-49.267 49.267-49.267h113.534zm0-160.667h-66.4v-97.467c0-9.675 7.892-17.133 17.134-17.133h32.133c9.318 0 17.134 7.548 17.134 17.133v97.467zm-33.2-144.6c-18.307 0-33.2-14.893-33.2-33.2s14.893-33.2 33.2-33.2 33.2 14.894 33.2 33.2-14.893 33.2-33.2 33.2zm208.866 64.267h-145.666v-17.149c0-6.035-1.141-11.81-3.218-17.118h148.884c9.318 0 17.134 7.548 17.134 17.133 0 9.645-7.866 17.134-17.134 17.134z"/></svg>