<?xml version="1.0"?>
<svg xmlns="http://www.w3.org/2000/svg" id="Icons" viewBox="0 0 74 74" width="512" height="512"><path d="M39.143,56H18.429a3.861,3.861,0,0,1-3.857-3.857V48.571a1,1,0,0,1,1-1H42a1,1,0,0,1,1,1v3.572A3.861,3.861,0,0,1,39.143,56ZM16.571,49.571v2.572A1.859,1.859,0,0,0,18.429,54H39.143A1.859,1.859,0,0,0,41,52.143V49.571Z"/><path d="M41.643,49.571h-25a4.214,4.214,0,0,1,0-8.428h25a4.214,4.214,0,1,1,0,8.428Zm-25-6.428a2.214,2.214,0,0,0,0,4.428h25a2.214,2.214,0,1,0,0-4.428Z"/><path d="M42,43.143H16.286a1,1,0,0,1-1-1V39.286A6.722,6.722,0,0,1,22,32.571H36.286A6.722,6.722,0,0,1,43,39.286v2.857A1,1,0,0,1,42,43.143Zm-24.714-2H41V39.286a4.719,4.719,0,0,0-4.714-4.714H22a4.719,4.719,0,0,0-4.714,4.714Z"/><path d="M58.429,56H39.857a1,1,0,0,1-1-.916,1.041,1.041,0,0,1,.908-1.127,1.074,1.074,0,0,1,.409.043H57.494L59.5,24.571H38.784l.636,9.347a1,1,0,0,1-2,.136l-.708-10.415a1,1,0,0,1,1-1.068H60.571a1,1,0,0,1,1,1.068L59.427,55.068A1,1,0,0,1,58.429,56Z"/><path d="M45.57,24.571a1,1,0,0,1-.976-.783l-1.306-5.875L37.4,15.949a1,1,0,0,1,.633-1.9l6.429,2.143a1,1,0,0,1,.66.732l1.429,6.428a1,1,0,0,1-.978,1.217Z"/><path d="M37,72A35,35,0,1,1,72,37,35.04,35.04,0,0,1,37,72ZM37,4A33,33,0,1,0,70,37,33.037,33.037,0,0,0,37,4Z"/><path d="M61.042,62.042a1,1,0,0,1-.707-.293L12.251,13.666a1,1,0,0,1,1.414-1.414L61.749,60.334a1,1,0,0,1-.707,1.707Z"/></svg>
