<?xml version="1.0"?>
<svg xmlns="http://www.w3.org/2000/svg" viewBox="0 0 512 512" width="512" height="512"><g id="Outline"><path d="M458.7,356.526a41.48,41.48,0,0,0-8.713-.737c-7,.156-14.045,1.913-20.916.59s-13.682-7.345-12.45-14.233c23.018,6.954,50.076.638,66.1-17.287s18.877-47.017,4.946-66.616C474.531,239.76,450,231.759,437.538,212.815c18.5-5.2,35.771-16.768,44.82-33.718s8.48-39.449-3.876-54.163c-15.213-18.116-42.738-20.525-60.344-36.326-15.468-13.882-21.123-36.133-36.167-50.473A52.61,52.61,0,0,0,297,56.242l14.1,7.209c8.023-20.691,36.938-29.763,55.343-17.363,18.5,12.467,22.48,38.616,38.779,53.85,10.551,9.861,25.015,14.027,38.165,20s26.442,15.5,29.277,29.664c2.277,11.371-3.038,23.275-11.315,31.4s-19.155,13.03-30.081,16.92l-9.117-28.346a95.62,95.62,0,0,0,30.243-10.884l-8.928-13.513c-7.593,7.207-19.34,8.518-29.492,5.962s-19.111-8.408-27.856-14.162l19.542-19.317-11.315-11.315-25.686,26.166a109.708,109.708,0,0,1-8.444-65.815l-13.705-6.91A87.178,87.178,0,0,0,341.3,89.36c-18.575-3.969-37.978-8.333-52.465-20.619-14.3-12.125-22.149-30.671-36.937-42.194-16.194-12.62-39.937-14.618-58.012-4.884s-29.474,30.659-27.85,51.124l15.7.631a38.106,38.106,0,0,1,59.984-35C257.158,49.393,262.647,70.3,277.308,82.3c12.012,9.829,28.226,12.2,42.986,16.992s30.238,14.486,32.55,29.832c2.411,16-10.384,29.9-22.425,40.706s-25.439,23.644-24.731,39.808c.8,18.161,19.3,31.306,21.9,49.3a30.375,30.375,0,0,1-15.864,30.584,18.9,18.9,0,0,1-9.988,2.312c-4.758-.4-8.914-3.189-13.153-5.384-19.229-9.958-44.176-7.615-61.215,5.749-22.416,17.582-28.676,49.015-47.457,70.436A76.675,76.675,0,0,1,119.4,388.267a90.631,90.631,0,0,1,30.8-56.357c16.171-13.744,36.665-21.332,53.939-33.662s31.974-32.691,27.441-53.424a136.228,136.228,0,0,0,57.708-16.875l-8.562-13.5a116.046,116.046,0,0,1-53.15,14.286c-6.594-17.418,4.3-36.144,14.729-51.574a159.438,159.438,0,0,0,85.533-27.984l-9.054-13.211A142.729,142.729,0,0,1,249.494,160.6l27.435-61.729L262.06,93.207l-13.733,30.249A78.232,78.232,0,0,1,227.834,57.92l-15.671-3.47c-5.045,30.793,6.245,63.791,29.1,85.04l-29.771,62.751c-6.108-8.925-5.2-20.892-2.359-31.328s7.374-20.591,7.794-31.4c.87-22.328-19.057-43.323-41.4-43.62-6.437-.086-14.345.639-17.783-4.8-1.7-2.695-1.623-6.105-1.484-9.29.551-12.7,1.063-25.833-3.581-37.663a46.263,46.263,0,0,0-33.021-27.87c-28.342-5.9-51.747,15.382-55.844,42.389-.584,3.853-.894,8-3.289,11.069-3.093,3.968-8.582,4.878-13.4,6.342a45.466,45.466,0,0,0-30.91,35.2c-3.867,23.118,10.863,45.372,28.046,61.313,4.87,4.517,10.368,9.47,10.9,16.092.75,9.419-8.542,16.009-15.27,22.643-20.926,20.634-19.678,59.224,2.538,78.462,3.4,2.946,7.453,5.9,8.224,10.335.543,3.123-.713,6.24-1.817,9.211C30.874,357.669,52.944,417.513,97.988,442.62L64,476.687,35.313,448,44,439.312l14.343,14.346,11.315-11.315L55.313,428l7.011-7.01L51.013,409.681,20.22,440.443c-1.838,1.836-3.775,3.863-4.134,6.436-.514,3.678,2.324,6.887,4.951,9.511L56.3,491.609c1.895,1.893,3.99,3.889,6.645,4.245,3.753.5,7.014-2.4,9.685-5.08l39.317-39.507a131.337,131.337,0,0,0,85.984,9.342c3.174-.744,6.455-1.613,9.65-.964,5.511,1.12,9.066,6.269,12.781,10.491,18.281,20.777,53.808,23.065,74.6,4.8,9.712-8.528,20.275-21.737,32.323-17.061,3.519,1.365,6.272,4.137,8.927,6.82,15.168,15.325,32.826,31.118,54.368,32.041,19.15.82,38.1-12.022,44.433-30.113,1.208-3.45,2.026-7.111,4.067-10.144,5.348-7.944,16.457-8.629,25.595-11.5,20.762-6.515,34.913-29.506,31.377-50.977C492.994,375.437,477.034,360.031,458.7,356.526ZM321.673,206.7c2.585-10.159,10.446-17.021,19.549-24.968,8.587-7.5,18.2-15.915,23.238-28.2a28.244,28.244,0,0,1,4.38-1.12,30.759,30.759,0,0,1,14.3,1.04c9.5,2.815,15.618,7.02,19.843,13.64,3.716,5.811,5.949,13.291,8.535,21.952,7.961,26.672,18.534,44.282,42.178,60.01C468.391,258.838,480,266.56,480,284.9c0,15.6-3.695,26.481-11.3,33.275-11.863,10.6-32.711,10.741-54.275,8.641a50.219,50.219,0,0,0-2.92-8.443,38.6,38.6,0,0,0-23.022-20.783c-15.524-5.237-26.071-1.6-36.273,1.915-8.006,2.761-16.286,5.615-29.1,5.615a21.181,21.181,0,0,1-5.405-.694c.157-.08.309-.15.467-.234,3.811-1.976,35.016-23.03,47.281-31.193a135.156,135.156,0,0,0,62.138,15.546,91.6,91.6,0,0,0,19.218-1.752l-3.618-15.586c-.307.072-28.032,6.2-62.242-8.564,22.095-14.876,36.485-24.981,36.651-25.1l-9.2-13.09c-.165.116-14.412,10.12-36.339,24.884-8.8-34.948,6.274-58.887,6.97-59.964l-6.7-4.375-6.678-4.405c-.9,1.371-21.352,33.158-7.6,78.11q-7.1,4.734-14.319,9.477c2.9-17.915-6.483-31.263-13.655-41.459C323.93,217.981,320.233,212.338,321.673,206.7ZM75.164,400.82A90.867,90.867,0,0,1,71.8,298.85a110.558,110.558,0,0,0,88.181-25.909L149.7,260.73a94.967,94.967,0,0,1-72.2,22.7l12.181-31.113c.95-2.426,1.944-4.922,3.761-6.79,1.771-1.821,4.161-2.877,6.466-3.944a169.029,169.029,0,0,0,77.3-72.871l-14.006-7.634A158.579,158.579,0,0,1,99.37,224.205a161.366,161.366,0,0,0,4.25-47.946c-.145-2.35-.32-4.822.689-6.95a14.351,14.351,0,0,1,3.955-4.412,115.736,115.736,0,0,0,34.264-51.049l-15.151-5.071A102.108,102.108,0,0,1,100.6,150.348,413.345,413.345,0,0,0,87.2,99.761l-15.292,5.583c23.953,56.859,18.81,125.112-13.392,177.74C40.788,272,35.172,245.42,46.9,228.108c7.919-11.691,22.411-19.719,24.765-33.642,1.536-9.082-2.816-18.223-8.633-25.365s-13.123-12.942-19.085-19.964c-6.679-7.869-11.674-17.554-12.194-27.862S35.8,100.1,44.619,94.739s21.127-5.166,27.575-13.228c2.395-2.994,3.6-6.743,4.749-10.4,2.891-9.164,4.564-24.07,11.264-31.188s19.938-9.861,29.044-7.692a30.5,30.5,0,0,1,21.542,19.935c2.844,8.838,1.445,18.387,1.318,27.67s1.547,19.528,8.668,25.486c11.587,9.695,30.934,3,42.9,12.225,8.845,6.822,10.1,19.857,7.753,30.779s-7.467,21.212-8.683,32.316a47.139,47.139,0,0,0,5.122,26.921C201.713,218.652,212,227.429,215.39,239.5c5.107,18.192-7.513,36.994-22.893,47.969s-33.806,17.162-48.939,28.475c-32.513,24.306-44.332,68.38-42.74,108.942A91.421,91.421,0,0,1,75.164,400.82ZM447.59,433.105c-9.571,2.076-18.612,4.036-21.936,12.031-.984,2.364-1.829,4.994-2.723,7.78C417.836,468.774,412.763,480,393.78,480c-19.955,0-32.213-12.3-43.029-23.156C342.12,448.182,333.968,440,323.11,440c-13.4,0-21.721,7.669-29.765,15.085C283.911,463.784,275,472,256,472c-12.028,0-18.607-7.324-26.226-15.8-1.133-1.261-2.277-2.535-3.45-3.788,5.062-2.008,10.164-4.136,15.409-6.324,31.409-13.1,63.884-26.649,104.77-20.735a339.908,339.908,0,0,1,60.24,14.486l2.738-7.516,2.742-7.516c-.641-.234-9.564-3.459-23.56-7.14,8.983-12.086,19.262-16.545,19.348-16.581l-6.022-14.824c-.769.312-17.59,7.346-29.947,27.442-7.148-1.532-14.968-2.989-23.249-4.186a152.762,152.762,0,0,0-40.044-.5c15.121-46.335,46.19-55.226,47.607-55.608l-2.023-7.739-1.969-7.754c-1.857.471-44.55,12.007-61.192,74.125-16.385,3.674-31.478,9.364-45.681,15.172-7.192-43.961,26.415-93.829,26.778-94.358l-6.6-4.519-6.6-4.522c-1.678,2.448-39.394,58.29-28.681,109.664-8.438,3.5-16.55,6.773-24.647,9.481l.055.166a175.077,175.077,0,0,1-24.5,4.1c-23.217,2.361-44.324-1.226-62.808-10.651a129.573,129.573,0,0,1-1.765-31.654c23.038-.893,42.912-6.4,59.135-16.445,16.412-10.167,26-28.306,35.272-45.847,11.208-21.2,21.794-41.231,42.9-45.5,19.221-3.891,28.107,2.937,38.394,10.844,8.022,6.166,17.115,13.155,30.688,13.155,15.5,0,25.936-3.6,34.321-6.489,9.385-3.237,15.586-5.376,25.944-1.88a22.462,22.462,0,0,1,13.574,12.254c1.993,4.376,3.149,9.781,3.533,16.509.035.609.062,1.219.091,1.83a50.279,50.279,0,0,0,1.26,10.453c5,19.377,26.236,18.575,40.3,18.046,4.992-.189,10.154-.383,13.177.274C471.692,375.685,480,385.245,480,400.53,480,426.079,463.524,429.651,447.59,433.105Z"/></g></svg>
