<?xml version="1.0" encoding="iso-8859-1"?>
<!-- Generator: Adobe Illustrator 19.0.0, SVG Export Plug-In . SVG Version: 6.00 Build 0)  -->
<svg version="1.1" id="Capa_1" xmlns="http://www.w3.org/2000/svg" xmlns:xlink="http://www.w3.org/1999/xlink" x="0px" y="0px"
	 viewBox="0 0 511.999 511.999" style="enable-background:new 0 0 511.999 511.999;" xml:space="preserve">
<g>
	<g>
		<path d="M505.185,224.94c-6.067-8.613-15.545-14.294-26.003-15.584c-8.445-1.041-16.972,0.855-24.146,5.249
			c-37.137-31.828-85.387-45.295-132.179-38.713c-0.115-12.06-1.208-24.066-3.237-35.897c24.179,13.526,51.453,20.671,79.279,20.671
			c3.942,0,7.901-0.144,11.856-0.433l40.751-2.976c3.642-0.267,6.848-2.496,8.365-5.816c1.518-3.321,1.104-7.205-1.08-10.132
			l-16.796-22.517c9.685-2.925,19.161-6.766,28.284-11.549l36.186-18.976c3.233-1.695,5.284-5.019,5.352-8.67
			c0.067-3.65-1.86-7.047-5.03-8.859l-33.283-19.048c-24.261-13.886-51.858-21.306-79.811-21.46
			c-27.93-0.112-55.629,6.963-80.04,20.58l-0.542,0.302c2.458-12.249-2.511-25.285-13.417-32.59
			c-7.37-4.936-16.539-6.561-25.156-4.452c-8.617,2.107-16.002,7.78-20.262,15.561l-9.954,18.185l-2.558-1.11
			c-0.532-0.23-1.083-0.415-1.646-0.55c-28.182-6.762-57.782-6.086-85.594,1.953c-27.459,7.937-52.576,22.849-72.636,43.127
			c-3.883,3.926-3.849,10.255,0.076,14.139c3.926,3.881,10.254,3.849,14.139-0.076c35.865-36.254,88.868-51.501,138.518-39.898
			l46.137,20.014c14.826,29.244,22.411,61.737,22.101,94.556c-12.436,3.334-24.636,8.138-36.35,14.455l-2.427,1.31
			c-42.915,23.142-74.923,61.402-90.128,107.73l-0.688,2.094c-13.725,41.818-44.564,76.281-84.608,94.55l-0.839,0.383
			c-8.889,4.056-15.394,11.207-18.547,19.887c-1.63,0.25-3.246,0.484-4.833,0.698l-26.932,3.638
			c-6.273,0.843-11.95-1.88-15.213-7.289c-3.265-5.409-3.024-11.711,0.643-16.856l0.535-0.751
			c28.773-40.375,39.447-91.362,29.283-139.89l-0.451-2.156c-6.712-32.046-4.042-65.134,7.722-95.687
			c1.983-5.152-0.585-10.937-5.737-12.921c-5.149-1.982-10.937,0.585-12.921,5.737c-13.15,34.155-16.135,71.144-8.632,106.97
			l0.451,2.156c9.023,43.08-0.452,88.343-25.996,124.187l-0.535,0.751c-8.312,11.664-8.879,26.527-1.479,38.79
			c6.534,10.83,17.759,17.107,30.07,17.107c1.63,0,3.278-0.11,4.938-0.334l26.931-3.638c0.31-0.042,0.63-0.092,0.942-0.135
			c2.518,11.052,10.125,20.148,21.02,24.618l25.142,10.318c37.149,15.242,77.503,23.144,117.707,23.144
			c5.83,0,11.663-0.167,17.476-0.501c45.901-2.639,91.442-15.774,131.696-37.988c33.879-18.694,62.509-45.991,82.798-78.939
			c19.478-31.635,30.838-67.789,32.991-104.844l1.051-0.839C513.382,263.4,516.565,241.092,505.185,224.94z M292.155,50.737
			l-8.311,14.222l-21.101-9.153l9.072-16.574c1.596-2.913,4.249-4.952,7.475-5.74c3.225-0.788,6.519-0.207,9.279,1.643
			C293.69,38.564,295.265,45.417,292.155,50.737z M409.302,140.293c-34.551,2.527-68.797-7.61-96.423-28.537
			c-1.053-3.416-2.187-6.807-3.402-10.172c26.005,16.053,55.668,24.166,85.402,24.166c8.632,0,17.268-0.699,25.822-2.067
			l11.161,14.965L409.302,140.293z M323.394,68.271c43.368-24.191,97.08-23.896,140.182,0.771l17.453,9.989l-20.034,10.506
			c-44.786,23.486-99.203,21.356-142.015-5.567l-11.154-7.014L323.394,68.271z M371.441,442.84
			c-77.135,42.564-168.122,47.798-249.631,14.353l-25.142-10.318c-5.845-2.397-9.407-7.601-9.53-13.918
			c-0.122-6.316,3.237-11.654,8.985-14.277l0.838-0.383c45.106-20.579,79.844-59.398,95.304-106.505l0.688-2.094
			c13.602-41.441,42.234-75.664,80.626-96.367l2.429-1.312c22.125-11.931,46.211-17.754,70.117-17.754
			c36.633,0,72.839,13.673,100.905,39.995l29.949,40.4C473.152,344.687,432.957,408.895,371.441,442.84z M488.62,256.796
			l-19.816-26.731c2.501-0.887,5.189-1.206,7.931-0.866c4.94,0.609,9.239,3.186,12.105,7.255
			C493.237,242.696,492.95,250.902,488.62,256.796z"/>
	</g>
</g>
<g>
	<g>
		<path d="M72.203,117.765c-4.698-2.892-10.876-1.39-13.773,3.304c-0.005,0.007-0.061,0.098-0.064,0.104
			c-2.887,4.7-1.394,10.809,3.304,13.701c1.622,0.999,3.422,1.475,5.201,1.475c3.373,0,6.675-1.706,8.571-4.778
			c0.005-0.007,0.061-0.098,0.064-0.104C78.394,126.767,76.901,120.657,72.203,117.765z"/>
	</g>
</g>
<g>
	<g>
		<path d="M442.313,305.94c-5.269-1.653-10.879,1.278-12.531,6.545c-12.66,40.345-40.967,75.096-77.661,95.343
			c-18.389,10.147-37.928,17.95-58.076,23.19c-5.343,1.39-8.548,6.848-7.158,12.191c1.171,4.5,5.226,7.482,9.668,7.482
			c0.833,0,1.68-0.104,2.523-0.324c21.758-5.659,42.854-14.082,62.701-25.034c41.155-22.709,72.893-61.659,87.078-106.864
			C450.511,313.202,447.581,307.592,442.313,305.94z"/>
	</g>
</g>
<g>
	<g>
		<path d="M265.959,446.315c-0.817-5.313-5.668-9.002-10.969-8.417c-5.361,0.563-9.332,5.298-8.916,10.708
			c0.403,5.244,4.784,9.23,9.957,9.23c0.257,0,0.517-0.01,0.777-0.029c0.253-0.02,0.541-0.053,0.791-0.091
			C263.056,456.876,266.799,451.773,265.959,446.315z"/>
	</g>
</g>
<g>
</g>
<g>
</g>
<g>
</g>
<g>
</g>
<g>
</g>
<g>
</g>
<g>
</g>
<g>
</g>
<g>
</g>
<g>
</g>
<g>
</g>
<g>
</g>
<g>
</g>
<g>
</g>
<g>
</g>
</svg>
