<?xml version="1.0" encoding="iso-8859-1"?>
<!-- Generator: Adobe Illustrator 19.0.0, SVG Export Plug-In . SVG Version: 6.00 Build 0)  -->
<svg version="1.1" id="Capa_1" xmlns="http://www.w3.org/2000/svg" xmlns:xlink="http://www.w3.org/1999/xlink" x="0px" y="0px"
	 viewBox="0 0 211.627 211.627" style="enable-background:new 0 0 211.627 211.627;" xml:space="preserve">
<g>
	<g>
		<path d="M190.597,99.029c-1.666-1.664-3.966-2.543-6.847-2.616L42.472,38.164c-1.277-0.526-2.741-0.232-3.715,0.742
			c-0.976,0.974-1.27,2.439-0.742,3.714L96.263,183.9c0.073,2.883,0.951,5.183,2.616,6.845c1.775,1.775,4.193,2.589,7.107,2.589
			c12.686-0.002,34.698-15.432,53.234-33.966c11.817-11.815,21.67-24.242,27.744-34.988
			C193.908,112.094,195.132,103.564,190.597,99.029z M181.018,121.023c-5.779,10.225-15.235,22.129-26.627,33.521
			c-26.551,26.547-47.401,34.649-50.688,31.375c-0.427-0.427-0.645-1.357-0.618-2.621c0.012-0.473-0.077-0.94-0.256-1.377
			L47.45,47.604l134.315,55.378c0.437,0.179,0.951,0.268,1.376,0.256c1.27-0.034,2.2,0.193,2.627,0.62
			C186.863,104.953,187.278,109.949,181.018,121.023z"/>
	</g>
</g>
<g>
	<g>
		<path d="M178.091,94.147c-1.86-0.384-3.652,0.802-4.035,2.65c-2.183,10.523-14.933,28.882-31.732,45.679
			s-35.157,29.551-45.681,31.73c-1.847,0.381-3.034,2.188-2.65,4.033c0.333,1.615,1.753,2.722,3.338,2.722
			c0.23,0,0.462-0.022,0.696-0.072c11.904-2.464,31.186-15.648,49.123-33.587c17.937-17.937,31.123-37.217,33.589-49.121
			C181.122,96.336,179.936,94.529,178.091,94.147z"/>
	</g>
</g>
<g>
	<g>
		<path d="M154.392,101.446c-7.984-7.984-20.978-7.987-28.962,0c-3.869,3.867-5.999,9.01-5.999,14.481
			c0,5.47,2.13,10.612,5.999,14.481c3.99,3.992,9.236,5.989,14.479,5.989c5.245,0,10.489-1.997,14.483-5.989
			C162.377,122.424,162.377,109.431,154.392,101.446z M149.564,125.58c-5.323,5.325-13.984,5.323-19.308,0
			c-5.323-5.323-5.323-13.986,0-19.309c2.661-2.661,6.158-3.992,9.655-3.992c3.494,0,6.99,1.331,9.653,3.992
			C154.887,111.594,154.887,120.257,149.564,125.58z"/>
	</g>
</g>
<g>
	<g>
		<path d="M103.704,94.205c-3.222-3.224-7.508-4.999-12.066-4.999c-4.56,0-8.844,1.775-12.068,4.999
			c-6.654,6.654-6.654,17.481,0,24.136c3.222,3.224,7.508,4.999,12.068,4.999c4.558,0,8.844-1.775,12.066-4.999
			C110.358,111.686,110.358,100.859,103.704,94.205z M98.877,113.512c-1.935,1.934-4.504,2.999-7.24,2.999
			c-2.736,0-5.306-1.065-7.241-2.999c-3.992-3.992-3.992-10.489,0-14.481c1.935-1.934,4.504-2.999,7.241-2.999
			c2.736,0,5.306,1.065,7.24,2.999C102.869,103.023,102.869,109.52,98.877,113.512z"/>
	</g>
</g>
<g>
	<g>
		<path d="M79.57,66.654h-9.655c-1.884,0-3.413,1.529-3.413,3.413s1.529,3.413,3.413,3.413h9.655c1.886,0,3.413-1.529,3.413-3.413
			S81.454,66.654,79.57,66.654z"/>
	</g>
</g>
<g>
	<g>
		<path d="M121.114,97.275l-7.24-12.068c-0.969-1.616-3.065-2.14-4.683-1.171c-1.618,0.969-2.14,3.067-1.171,4.683l7.24,12.068
			c0.64,1.067,1.77,1.659,2.93,1.659c0.599,0,1.203-0.159,1.753-0.488C121.561,100.989,122.083,98.891,121.114,97.275z"/>
	</g>
</g>
<g>
	<g>
		<path d="M114.185,129.328c-0.594-1.789-2.522-2.758-4.318-2.159l-14.481,4.828c-1.789,0.597-2.756,2.529-2.159,4.318
			c0.476,1.43,1.807,2.335,3.238,2.335c0.357,0,0.722-0.056,1.08-0.176l14.481-4.828
			C113.814,133.048,114.782,131.116,114.185,129.328z"/>
	</g>
</g>
<g>
	<g>
		<path d="M108.532,143.889c-1.884,0-3.413,1.529-3.413,3.413v9.655c0,1.884,1.529,3.413,3.413,3.413
			c1.884,0,3.413-1.527,3.413-3.413v-9.655C111.945,145.418,110.416,143.889,108.532,143.889z"/>
	</g>
</g>
<g>
	<g>
		<path d="M131.78,141.836l-9.655-4.828c-1.691-0.845-3.739-0.157-4.581,1.527c-0.843,1.688-0.159,3.738,1.527,4.581l9.655,4.828
			c0.492,0.244,1.012,0.36,1.524,0.36c1.254,0,2.459-0.693,3.057-1.888C134.151,144.729,133.466,142.679,131.78,141.836z"/>
	</g>
</g>
<g>
	<g>
		<path d="M79.568,79.722c-1.333-1.333-3.494-1.333-4.826,0l-4.826,4.828c-1.333,1.335-1.333,3.495,0,4.828
			c0.667,0.666,1.539,0.998,2.413,0.998c0.874,0,1.746-0.333,2.413-0.998l4.826-4.828C80.901,83.215,80.901,81.055,79.568,79.722z"
			/>
	</g>
</g>
<g>
	<g>
		<path d="M105.813,0C47.468,0,0,47.468,0,105.813s47.468,105.813,105.813,105.813s105.813-47.468,105.813-105.813
			S164.159,0,105.813,0z M105.813,204.8c-54.581,0-98.987-44.406-98.987-98.987S51.232,6.827,105.813,6.827
			S204.8,51.232,204.8,105.813S160.394,204.8,105.813,204.8z"/>
	</g>
</g>
<g>
	<g>
		<path d="M179.907,35.133c-1.333-1.333-3.494-1.333-4.826,0L35.133,175.08c-1.333,1.333-1.333,3.494,0,4.826
			c0.667,0.667,1.539,1,2.413,1s1.746-0.333,2.413-1L179.907,39.96C181.239,38.627,181.239,36.466,179.907,35.133z"/>
	</g>
</g>
<g>
</g>
<g>
</g>
<g>
</g>
<g>
</g>
<g>
</g>
<g>
</g>
<g>
</g>
<g>
</g>
<g>
</g>
<g>
</g>
<g>
</g>
<g>
</g>
<g>
</g>
<g>
</g>
<g>
</g>
</svg>
