<svg id="Layer_1" enable-background="new 0 0 511.998 511.998" height="512" viewBox="0 0 511.998 511.998" width="512" xmlns="http://www.w3.org/2000/svg"><path d="m140.344 354.168c-1.712-4.115-6.42-6.011-10.45-4.33-4.789 1.997-6.323 7.776-3.59 11.83 2.444 3.713 7.488 4.638 11.09 2.21 3.116-2.054 4.434-6.152 2.95-9.71z"/><path d="m442.442 249.875c-19.99-23.744-47.052-39.216-78.502-44.963-22.618-66-80.397-108.378-151.338-111.145 2.762-10.536 2.927-22.555 2.26-32.615 45.689 27.009 83.892 20.977 95.036-30.46.755-3.488-.891-7.055-4.035-8.743-.712-.382-17.683-9.39-39.609-12.277-25.452-3.351-47.12 2.866-63.39 18.034-21.483-21.977-50.876-31.144-85.743-26.552-28.826 3.797-51.089 15.613-52.022 16.114-3.145 1.688-4.791 5.255-4.035 8.743 16.058 74.124 74.53 73.548 137.252 29.845 1.256 11.896 1.59 27.628-2.503 38.002-88.491 4.461-159.818 71.387-159.818 177.95 0 52.763 17.448 102.425 49.13 139.84 41.923 49.509 100.316 67.669 154.76 54.503 26.087 29.604 60.288 45.848 96.848 45.848 122.856-.001 180.906-172.808 105.709-262.124zm-149.738-216.412c-9.457 32.36-32.269 33.516-62.354 17.996-7.164-3.695-13.425-7.773-17.817-10.863 21.139-20.926 52.754-18.726 80.171-7.133zm-185.242 34.107c-13.789-4.787-23.621-17.833-29.277-38.822 39.162-17.319 84.947-20.248 114.506 11.442-22.277 16.165-59.237 36.404-85.229 27.38zm229.271 428.428c-29.619 0-57.592-12.363-79.867-35.06 56.635-21.17 96.779-75.069 111.24-134.739 1.041-4.294-1.597-8.619-5.891-9.659-4.296-1.04-8.619 1.597-9.659 5.891-14.061 58.022-54.352 110.795-112.041 126.976-.129.036-.249.089-.375.131-95.985 26.504-188.145-60.251-188.145-177.731 0-89.215 53.784-147.859 125.594-159.91-41.369 45.813-68.002 119.333-56.83 213.361.483 4.067 3.938 7.057 7.934 7.057 4.828 0 8.517-4.21 7.955-8.945-9.333-78.546 9.672-132.878 27.258-164.626 15.72-28.38 33.14-44.304 38.882-49.103 88.586-1.27 155.75 63.241 155.75 162.166 0 4.418 3.582 8 8 8s8-3.582 8-8c0-16.546-1.741-33.294-5.57-49.461 24.378 6.062 45.37 18.99 61.235 37.833 66.273 78.718 16.305 235.819-93.47 235.819z"/></svg>