<?xml version="1.0" encoding="iso-8859-1"?>
<!-- Generator: Adobe Illustrator 19.0.0, SVG Export Plug-In . SVG Version: 6.00 Build 0)  -->
<svg version="1.1" id="Capa_1" xmlns="http://www.w3.org/2000/svg" xmlns:xlink="http://www.w3.org/1999/xlink" x="0px" y="0px"
	 viewBox="0 0 499.318 499.318" style="enable-background:new 0 0 499.318 499.318;" xml:space="preserve">
<g>
	<g>
		<path d="M472.23,428.915c8.848-16.032,13.6-34.096,13.6-52.912c0-29.336-11.432-56.912-32.168-77.656l-22.856-22.864
			c-71.448-71.448-110.8-166.44-110.8-267.48c0-4.016-2.976-7.408-6.96-7.936c-3.984-0.472-7.736,1.992-8.768,5.872
			c-10.984,41.184-16.904,83.136-17.92,125.096l-46.184-46.184C185.454,30.139,112.702,0.003,35.318,0.003
			c-9.432,0-18.296,3.672-24.968,10.336S0.006,25.875,0.006,35.315c0,77.384,30.136,150.136,84.848,204.848l30.096,30.128
			c-25.272,4.664-50.168,11.52-74.28,20.696L5.15,304.523c-3.6,1.376-5.72,5.128-5.016,8.928c0.704,3.792,4.016,6.552,7.872,6.552
			c101.04,0,196.032,39.344,267.488,110.792l22.856,22.864c20.744,20.744,48.32,32.168,77.656,32.168
			c18.816,0,36.88-4.752,52.912-13.6l27.088,27.088l43.312-43.312L472.23,428.915z M286.342,158.547
			c0.2,7.192,0.592,14.376,1.08,21.56l-4.64-4.64C284.254,169.923,285.494,164.299,286.342,158.547z M289.71,205.027
			c1.536,13.296,3.544,26.552,6.08,39.736l-29.72-29.88c4.304-7.112,8.08-14.552,11.168-22.328L289.71,205.027z M296.726,268.371
			l5.6,5.624c0.264,1.072,0.488,2.152,0.768,3.216c-3.76-0.992-7.544-1.864-11.328-2.76
			C293.462,272.459,295.134,270.451,296.726,268.371z M71.854,107.107c4.016,5.16,8.136,10.232,12.216,15.336
			c-4.584,2.688-9.384,5.024-14.376,7.008c-3.096-5.528-6.112-11.104-8.992-16.768C64.566,111.075,68.262,109.179,71.854,107.107z
			 M53.638,98.251c-2.6-5.584-5.024-11.272-7.408-16.984c1.472-0.688,2.952-1.368,4.368-2.152c3.784,5.112,7.688,10.136,11.536,15.2
			C59.406,95.803,56.55,97.083,53.638,98.251z M148.71,174.139c-5.696-6.36-11.376-12.736-16.96-19.2
			c8.632-6.768,16.408-14.552,23.184-23.184c6.472,5.592,12.904,11.224,19.272,16.928
			C166.942,158.315,158.366,166.883,148.71,174.139z M186.078,159.483c6.344,5.808,12.632,11.672,18.864,17.584
			c-7.912,10.608-17.304,19.992-27.912,27.904c-5.912-6.232-11.728-12.544-17.528-18.888
			C169.486,178.403,178.406,169.475,186.078,159.483z M121.414,142.715c-4.744-5.624-9.52-11.224-14.192-16.92
			c6.8-5.528,12.976-11.784,18.44-18.648c5.736,4.696,11.416,9.448,17.08,14.232C136.55,129.355,129.39,136.515,121.414,142.715z
			 M97.262,113.339c-4.08-5.096-8.2-10.152-12.208-15.296c4.72-3.896,9.056-8.24,12.96-12.952
			c5.112,3.984,10.208,7.976,15.264,12.024C108.534,103.083,103.174,108.523,97.262,113.339z M75.35,85.275
			c-3.912-5.136-7.872-10.232-11.712-15.416c2.192-1.952,4.256-4.016,6.2-6.208c5.184,3.84,10.36,7.704,15.504,11.624
			C82.31,78.891,78.966,82.235,75.35,85.275z M94.11,135.003c4.6,5.624,9.304,11.152,13.984,16.712
			c-6.12,3.56-12.584,6.56-19.328,9.008c-3.784-5.664-7.4-11.432-10.936-17.264C83.502,141.075,88.91,138.203,94.11,135.003z
			 M118.494,164.091c5.504,6.392,11.128,12.664,16.744,18.96c-7.144,4.08-14.712,7.48-22.632,10.144
			c-4.976-6.184-9.768-12.488-14.4-18.912C105.294,171.459,112.046,168.019,118.494,164.091z M146.15,195.203
			c5.736,6.288,11.52,12.52,17.36,18.704c-7.376,4.24-15.184,7.784-23.344,10.592c-5.704-5.944-11.232-12.016-16.584-18.216
			C131.47,203.243,138.998,199.531,146.15,195.203z M174.846,225.715c5.8,6.008,11.584,12.024,17.488,17.928l10.712,10.712
			c-5.552,3.128-11.336,5.936-17.408,8.312l-1.616,0.512c-1.824,0.056-3.64,0.136-5.456,0.2l-26.216-26.32
			C160.206,233.907,167.694,230.083,174.846,225.715z M188.238,216.547c10.656-8.168,20.168-17.696,28.336-28.352
			c5.28,5.12,10.544,10.248,15.736,15.432l13.16,13.232c-8.016,10.848-17.656,20.488-28.712,28.592l-13.12-13.12
			C198.446,227.139,193.358,221.819,188.238,216.547z M256.886,228.339l28.4,28.544c-3.568,4.816-7.448,9.4-11.624,13.712
			c-12.304-2.328-24.696-4.152-37.152-5.4l-8.312-8.304C239.086,248.635,248.71,239.035,256.886,228.339z M246.822,114.123
			l25.064,25.064c-0.176,7.808-1.016,15.464-2.456,22.928l-26.472-26.472c-0.096-0.096-0.2-0.192-0.304-0.296
			C244.51,128.443,245.95,121.379,246.822,114.123z M264.71,180.027c-2.728,8.056-6.152,15.808-10.296,23.136l-10.776-10.832
			c-5.904-5.904-11.872-11.744-17.888-17.552c4.344-7.128,8.16-14.584,11.296-22.416L264.71,180.027z M215.398,83.659
			c4.592,4.024,9.104,8.144,13.464,12.504l2.984,2.992c-0.184,8-0.976,15.848-2.488,23.448c-5.824-5.384-11.792-10.6-17.856-15.68
			C213.398,99.379,214.75,91.627,215.398,83.659z M224.534,140.083c-2.816,8.192-6.376,16.024-10.632,23.432
			c-6.184-5.848-12.424-11.64-18.72-17.384c4.336-7.184,8.064-14.744,11.112-22.672C212.518,128.827,218.59,134.379,224.534,140.083
			z M183.422,59.507c5.64,3.64,11.168,7.48,16.552,11.56l0.032,0.936c0,8.136-0.848,16.064-2.304,23.776
			c-5.984-4.648-12.048-9.192-18.232-13.552C181.39,74.867,182.766,67.291,183.422,59.507z M193.278,112.651
			c-2.664,7.888-6.048,15.424-10.12,22.552c-6.304-5.624-12.672-11.176-19.072-16.696c3.928-6.448,7.368-13.2,10.2-20.288
			C180.734,102.867,187.062,107.675,193.278,112.651z M151.518,41.755c5.56,2.608,11,5.456,16.384,8.44
			c-0.144,7.696-0.952,15.232-2.48,22.512c-5.696-3.72-11.48-7.288-17.32-10.76C149.782,55.403,150.958,48.675,151.518,41.755z
			 M160.718,88.795c-2.44,6.72-5.424,13.152-8.976,19.256c-5.632-4.744-11.288-9.456-16.992-14.12
			c3.144-5.248,5.96-10.688,8.296-16.4C149.022,81.147,154.91,84.907,160.718,88.795z M119.734,29.283
			c5.44,1.76,10.816,3.68,16.128,5.776c-0.16,6.376-0.832,12.632-2.104,18.68c-5.344-2.936-10.744-5.768-16.2-8.504
			C118.734,40.067,119.438,34.731,119.734,29.283z M112.686,60.691c5.512,2.8,10.976,5.688,16.368,8.704
			c-1.912,4.992-4.168,9.808-6.792,14.408c-5.024-4.016-10.096-7.976-15.176-11.92C109.174,68.283,111.07,64.563,112.686,60.691z
			 M87.758,21.019c5.456,1.056,10.864,2.28,16.224,3.656c-0.048,4.576-0.512,9.048-1.296,13.416
			c-5.376-2.472-10.8-4.848-16.264-7.12C87.11,27.731,87.518,24.403,87.758,21.019z M81.294,46.171
			c5.704,2.384,11.352,4.88,16.952,7.488c-1.152,2.872-2.416,5.688-3.88,8.392c-5.064-3.848-10.152-7.656-15.256-11.432
			C79.902,49.179,80.598,47.675,81.294,46.171z M71.886,18.475c-0.104,2.192-0.32,4.352-0.664,6.472
			c-8.256-3.112-16.6-6.016-25.032-8.68C54.838,16.603,63.398,17.355,71.886,18.475z M66.414,40.235
			c-3.024,6.264-7.16,11.872-12.184,16.576c-6.52-9.008-12.928-18.08-19.232-27.232C45.614,32.763,56.086,36.323,66.414,40.235z
			 M16.006,35.315c0-1.496,0.216-2.944,0.544-4.36c8.008,11.792,16.208,23.464,24.568,35.032c-6.864,3.464-14.528,5.536-22.64,5.888
			C16.886,59.851,16.006,47.651,16.006,35.315z M21.022,87.747c3.4-0.232,6.744-0.648,10-1.344
			c2.272,5.464,4.536,10.936,6.992,16.296c-4.344,0.768-8.784,1.232-13.336,1.272C23.302,98.611,22.078,93.203,21.022,87.747z
			 M29.286,119.731c5.464-0.296,10.808-1.008,15.992-2.184c2.832,5.656,5.776,11.232,8.816,16.76
			c-6.064,1.352-12.328,2.104-18.728,2.336C33.15,131.075,31.134,125.435,29.286,119.731z M42.094,152.259
			c6.896-0.608,13.608-1.84,20.136-3.576c3.368,5.656,6.84,11.24,10.44,16.744c-7.264,1.528-14.792,2.32-22.472,2.464
			C47.342,162.755,44.598,157.563,42.094,152.259z M71.126,200.051c-4.096-5.408-7.952-10.96-11.616-16.624
			c7.816-0.656,15.408-2.04,22.8-3.968c4.352,6.168,8.856,12.232,13.504,18.2c-7.904,1.512-16.04,2.368-24.392,2.376L71.126,200.051
			z M96.174,228.851c-4.352-4.344-8.472-8.856-12.488-13.44c7.976-0.648,15.744-1.984,23.304-3.888
			c5.08,6.048,10.312,11.992,15.704,17.816c-7.632,1.528-15.504,2.32-23.536,2.504L96.174,228.851z M114.118,246.819
			c7.256-0.864,14.328-2.312,21.232-4.168c0.096,0.096,0.184,0.192,0.28,0.288l21.576,21.664c-7.616,0.64-15.216,1.488-22.792,2.528
			L114.118,246.819z M411.382,462.931l-12.472-17.464c-23.336-32.664-42.864-68.048-57.96-104.96l-5.552-14.816l-14.984,5.616
			l5.64,15.032c10.832,26.496,23.952,52.048,38.896,76.488c-22.008-9.72-42.224-23.456-59.256-40.48l-21.784-21.784
			c-41.664-41.632-97.024-64.56-155.904-64.56v16c54.608,0,105.952,21.264,144.568,59.88l21.784,21.784
			c23.776,23.776,53.264,41.688,85.304,51.864c2.096,3.064,4.048,6.224,6.208,9.248l9.328,13.064
			c-6.248,1.296-12.664,1.992-19.2,1.992c-25.056-0.008-48.616-9.768-66.336-27.488l-22.856-22.864
			C221.51,354.187,137.342,314.611,46.614,305.851c83.2-31.64,175.976-35.408,261.464-10.664c2.12,7.16,4.384,14.288,6.808,21.376
			l15.144-5.168c-27.16-79.592-34.512-163.624-21.88-245.96c12.12,83.512,50.608,160.608,111.36,221.352l22.856,22.864
			c17.72,17.72,27.488,41.28,27.488,66.344c0,18.256-5.24,35.68-14.896,50.664c-0.792-8.104-1.992-16.168-3.664-24.128
			l-15.656,3.296c2.68,12.728,4.08,25.736,4.304,38.72C431.478,452.451,421.846,458.675,411.382,462.931z M442.558,463.243
			c3.856-2.96,7.608-6.088,11.104-9.584c3.496-3.496,6.624-7.248,9.584-11.104l13.448,13.448l-20.688,20.688L442.558,463.243z"/>
	</g>
</g>
<g>
	<g>
		<path d="M442.022,370.715c-11.128-29.704-28.144-56.152-50.584-78.6l-1.872-1.872c-25.12-25.12-43.328-56.504-52.672-90.776
			l-9.16-33.568l-15.44,4.208l9.16,33.568c10.08,36.944,29.72,70.792,56.808,97.88l1.864,1.88
			c20.816,20.816,36.592,45.336,46.832,72.672c1.72,5.008,3.24,9.76,4.584,14.232l15.328-4.576
			C445.478,381.091,443.878,376.147,442.022,370.715z"/>
	</g>
</g>
<g>
</g>
<g>
</g>
<g>
</g>
<g>
</g>
<g>
</g>
<g>
</g>
<g>
</g>
<g>
</g>
<g>
</g>
<g>
</g>
<g>
</g>
<g>
</g>
<g>
</g>
<g>
</g>
<g>
</g>
</svg>
