<svg height="512pt" viewBox="0 -43 512.0004 512" width="512pt" xmlns="http://www.w3.org/2000/svg"><path d="m47.144531 186.71875c-3.589843 2.074219-4.816406 6.660156-2.746093 10.246094l13.246093 22.941406c1.386719 2.40625 3.910157 3.753906 6.5 3.753906 1.273438 0 2.5625-.324218 3.746094-1.007812 3.585937-2.070313 4.816406-6.65625 2.742187-10.246094l-13.246093-22.941406c-2.070313-3.585938-6.65625-4.8125-10.242188-2.746094zm206.605469 143.257812c1.503906 0 3.023438-.132812 4.546875-.398437 15.375-2.710937 25.484375-18.519531 22.539063-35.238281 0 0 0 0 0-.003906-1.402344-7.941407-5.523438-14.957032-11.609376-19.75-6.335937-4.984376-14.015624-6.996094-21.621093-5.652344-15.375 2.710937-25.484375 18.515625-22.539063 35.238281 2.65625 15.0625 15.019532 25.804687 28.683594 25.804687zm-3.539062-46.273437c.648437-.113281 1.300781-.171875 1.953124-.171875 2.710938 0 5.417969.980469 7.78125 2.839844 3.1875 2.507812 5.359376 6.265625 6.117188 10.570312 1.511719 8.574219-3.140625 16.589844-10.367188 17.863282-7.234374 1.273437-14.34375-4.664063-15.855468-13.238282-1.511719-8.574218 3.140625-16.585937 10.371094-17.863281zm121.957031 10.21875c-4.078125.71875-6.800781 4.609375-6.082031 8.691406l9.933593 56.347657c.644531 3.636718 3.808594 6.195312 7.378907 6.195312.433593 0 .871093-.035156 1.308593-.113281 4.082031-.71875 6.804688-4.609375 6.085938-8.691407l-9.9375-56.34375c-.71875-4.082031-4.609375-6.8125-8.6875-6.085937zm49.15625-47.589844c-4.078125.71875-6.800781 4.609375-6.082031 8.6875l4.792968 27.179688c.640625 3.636719 3.804688 6.199219 7.375 6.199219.433594 0 .871094-.039063 1.3125-.117188 4.078125-.71875 6.804688-4.609375 6.082032-8.6875l-4.792969-27.179688c-.71875-4.078124-4.609375-6.804687-8.6875-6.082031zm89.957031 29.527344c-2.488281-14.109375-11.15625-26.09375-23.777344-32.875-42.03125-22.578125-87.941406-36.941406-135.078125-42.46875 29.144531-25.066406 55.394531-53.367187 78.1875-84.339844 12.277344-16.6875 16.363281-37.765625 11.210938-57.832031-5.152344-20.066406-18.894531-36.566406-37.691407-45.269531-49.933593-23.117188-109.363281-15.121094-151.40625 20.375-47.320312 39.945312-100.847656 70.851562-159.101562 91.855469-5.523438 1.992187-10.96875 4.347656-16.1875 6.996093-3.691406 1.875-5.164062 6.390625-3.289062 10.082031 1.875 3.691407 6.390624 5.164063 10.082031 3.289063 4.667969-2.367187 9.542969-4.476563 14.480469-6.257813 59.933593-21.609374 115.007812-53.40625 163.691406-94.503906 37.605468-31.75 90.765625-38.90625 135.425781-18.226562 14.699219 6.804687 25.4375 19.703125 29.46875 35.390625 4.027344 15.6875.835937 32.167969-8.765625 45.210937-25.054688 34.046875-54.414062 64.765625-87.28125 91.359375-11.378906-.6875-22.800781-.875-34.238281-.527343-32.828125 1-65.359375 5.804687-97.011719 14.292968l-18.527344-32.085937c-2.070312-3.585938-6.660156-4.8125-10.246094-2.746094-3.585937 2.074219-4.816406 6.660156-2.746093 10.246094l16.664062 28.863281c-2.734375.839844-5.464843 1.703125-8.183593 2.601562-50.386719 16.621094-96.699219 43.730469-135.816407 79.246094-17.742187-10.574218-27.816406-30.054687-25.929687-50.949218 2.890625-32.046876 17.660156-61.558594 41.589844-83.09375 3.082031-2.769532 3.332031-7.511719.558593-10.589844-2.769531-3.082032-7.511719-3.328125-10.589843-.558594-26.75 24.070312-43.265626 57.0625-46.5 92.894531-2.242188 24.878907 9.425781 48.984375 29.652343 62.902344-5.714843 5.632813-11.265625 11.453125-16.625 17.457031-9.542969 10.691406-13.589843 24.914063-11.101562 39.027344s11.15625 26.09375 23.78125 32.878906c34.863281 18.730469 73.773437 28.261719 112.8125 28.261719 25.234375 0 50.527343-3.984375 74.804687-12.042969 37.433594-12.429687 76.402344-19.300781 115.828125-20.425781 40.386719-1.152344 80.089844-12.675781 114.824219-33.320313 3.558594-2.117187 4.730469-6.71875 2.613281-10.28125-2.117187-3.558593-6.71875-4.726562-10.277343-2.613281-32.546876 19.34375-69.75 30.140625-107.585938 31.222657-40.890625 1.167968-81.308594 8.292968-120.128906 21.183593-57.941406 19.230469-122.015625 13.695313-175.792969-15.199219-8.550781-4.59375-14.421875-12.707031-16.105469-22.269531-1.6875-9.554687 1.054688-19.191406 7.519532-26.433593 42.382812-47.476563 96.726562-83.113282 157.167968-103.054688 37.4375-12.351562 76.398438-19.222656 115.804688-20.421875 63.617187-1.933594 126.875 12.96875 182.9375 43.089844 8.550781 4.589843 14.421875 12.707031 16.105468 22.265625 1.6875 9.558594-1.054687 19.191406-7.519531 26.433594-7.316406 8.199218-15.308593 15.917968-23.75 22.941406-3.183593 2.644531-3.617187 7.375-.96875 10.558594 2.648438 3.1875 7.378907 3.621093 10.5625.972656 9.007813-7.496094 17.535157-15.730469 25.347657-24.484375 9.542968-10.6875 13.589843-24.914063 11.101562-39.027344zm-198.375-14.652344c-4.082031.71875-6.804688 4.609375-6.085938 8.6875l1.925782 10.914063c.640625 3.640625 3.804687 6.199218 7.375 6.199218.433594 0 .871094-.039062 1.3125-.117187 4.082031-.71875 6.804687-4.605469 6.085937-8.6875l-1.925781-10.910156c-.71875-4.082031-4.609375-6.804688-8.6875-6.085938zm-96.386719 85.671875c-4.078125.71875-6.804687 4.609375-6.085937 8.6875l3.484375 19.757813c.644531 3.636719 3.808593 6.199219 7.378906 6.199219.433594 0 .871094-.039063 1.3125-.117188 4.078125-.71875 6.800781-4.609375 6.082031-8.6875l-3.484375-19.757812c-.71875-4.078126-4.605469-6.800782-8.6875-6.082032zm18.207031-213.054687c1.269532 0 2.5625-.324219 3.742188-1.007813 3.585938-2.070312 4.816406-6.65625 2.746094-10.242187l-12.160156-21.058594c-2.070313-3.589844-6.65625-4.816406-10.242188-2.746094-3.589844 2.070313-4.816406 6.660157-2.746094 10.246094l12.15625 21.058594c1.390625 2.40625 3.910156 3.75 6.503906 3.75zm135.980469-50.695313c1.273438 0 2.5625-.324218 3.746094-1.003906 3.585937-2.074219 4.8125-6.660156 2.742187-10.246094l-12.15625-21.058594c-2.070312-3.585937-6.660156-4.8125-10.246093-2.746093-3.585938 2.074219-4.816407 6.660156-2.742188 10.246093l12.15625 21.058594c1.386719 2.40625 3.910157 3.75 6.5 3.75zm-38.480469 106.746094c1.273438 0 2.5625-.324219 3.742188-1.007812 3.585938-2.070313 4.816406-6.65625 2.746094-10.246094l-23.046875-39.917969c-2.070313-3.589844-6.660157-4.816406-10.246094-2.746094-3.585937 2.070313-4.816406 6.660157-2.746094 10.246094l23.046875 39.917969c1.390625 2.40625 3.914063 3.753906 6.503906 3.753906zm-228.574218 128.839844c-4.078125.71875-6.804688 4.605468-6.085938 8.6875l7.714844 43.753906c.640625 3.636719 3.804688 6.195312 7.378906 6.195312.429688 0 .871094-.035156 1.308594-.113281 4.082031-.71875 6.804688-4.609375 6.085938-8.691406l-7.714844-43.75c-.71875-4.078125-4.605469-6.800781-8.6875-6.082031zm79.949218-34.707032c-4.078124.71875-6.804687 4.609376-6.082031 8.6875l1.921875 10.914063c.640625 3.636719 3.804688 6.195313 7.378906 6.195313.429688 0 .871094-.035157 1.3125-.113282 4.078126-.71875 6.800782-4.609375 6.082032-8.691406l-1.925782-10.910156c-.71875-4.078125-4.605468-6.808594-8.6875-6.082032zm0 0"/></svg>