<?xml version="1.0" encoding="iso-8859-1"?>
<!-- Generator: Adobe Illustrator 19.0.0, SVG Export Plug-In . SVG Version: 6.00 Build 0)  -->
<svg version="1.1" id="Capa_1" xmlns="http://www.w3.org/2000/svg" xmlns:xlink="http://www.w3.org/1999/xlink" x="0px" y="0px"
	 viewBox="0 0 512.001 512.001" style="enable-background:new 0 0 512.001 512.001;" xml:space="preserve">
<g>
	<g>
		<g>
			<path d="M366.66,230.193c4.143,0,7.5-3.357,7.5-7.5s-3.357-7.5-7.5-7.5h-9.707c-4.143,0-7.5,3.357-7.5,7.5s3.357,7.5,7.5,7.5
				H366.66z"/>
			<path d="M337.539,224.71h-9.707c-4.143,0-7.5,3.357-7.5,7.5s3.357,7.5,7.5,7.5h9.707c4.143,0,7.5-3.357,7.5-7.5
				S341.682,224.71,337.539,224.71z"/>
			<path d="M153.105,205.678h-9.707c-4.143,0-7.5,3.357-7.5,7.5s3.357,7.5,7.5,7.5h9.707c4.143,0,7.5-3.357,7.5-7.5
				S157.248,205.678,153.105,205.678z"/>
			<path d="M499.646,319.871h-66.359c0.052-0.67,0.086-1.342,0.086-2.017V165.597c0-14.63-12.073-26.532-26.914-26.532h-5.856
				c1.715-3.489,2.679-7.402,2.679-11.532c0-14.63-12.073-26.532-26.914-26.532s-26.914,11.902-26.914,26.532
				c0,4.13,0.963,8.043,2.679,11.532h-29.186c1.715-3.489,2.679-7.402,2.679-11.532c0-14.63-12.073-26.532-26.914-26.532
				c-5.216,0-10.254,1.484-14.571,4.229c-4.199-2.671-9.192-4.229-14.55-4.229c-14.841,0-26.914,11.902-26.914,26.532
				c0,4.13,0.963,8.043,2.679,11.532H105.541c-14.841,0-26.914,11.902-26.914,26.532v87.661H65.742
				c-9.488,0-17.207,7.634-17.207,17.017v47.58c0,0.684,0.053,1.354,0.132,2.017H12.354C5.542,319.871,0,325.37,0,332.129v38.064
				c0,6.759,5.542,12.258,12.354,12.258h46.859v16.291c0,6.759,5.542,12.258,12.354,12.258h80.568
				c6.812,0,12.354-5.499,12.354-12.258v-16.291h183.023v16.291c0,6.759,5.542,12.258,12.354,12.258h80.568
				c6.812,0,12.354-5.499,12.354-12.258v-16.291h46.859c6.812,0,12.354-5.499,12.354-12.258v-38.064
				C512,325.37,506.458,319.871,499.646,319.871z M376.367,116c6.569,0,11.914,5.174,11.914,11.532
				c0,6.358-5.345,11.532-11.914,11.532c-6.569,0-11.914-5.173-11.914-11.532C364.453,121.174,369.798,116,376.367,116z
				 M294.22,116.852c1.412-0.557,2.931-0.854,4.491-0.854c6.569,0.002,11.914,5.176,11.914,11.534
				c0,6.358-5.345,11.532-11.914,11.532c-1.573,0-3.087-0.299-4.492-0.853c1.465-3.27,2.285-6.881,2.285-10.68
				C296.504,123.733,295.684,120.122,294.22,116.852z M269.59,116c6.569,0,11.914,5.174,11.914,11.532
				c0,6.358-5.345,11.532-11.914,11.532c-6.569,0-11.914-5.173-11.914-11.532C257.676,121.174,263.021,116,269.59,116z
				 M63.535,270.274c0-1.112,0.99-2.017,2.207-2.017h48.535c1.217,0,2.207,0.904,2.207,2.017v16.359l-5.305,5.2
				c-3.284,3.22-5.093,7.513-5.093,12.086c0.001,4.573,1.81,8.864,5.094,12.083l3.946,3.868H65.742
				c-1.217,0.001-2.207-0.903-2.207-2.016V270.274z M149.488,396H74.213v-13.549h75.275V396z M437.787,396h-75.275v-13.549h75.275
				V396z M497,367.451H15v-32.58h318.737c4.143,0,7.5-3.357,7.5-7.5s-3.357-7.5-7.5-7.5H200.103l3.946-3.868
				c3.283-3.219,5.091-7.51,5.092-12.083c0-4.573-1.808-8.865-5.093-12.086l-34.319-33.645c-6.68-6.549-17.549-6.551-24.229,0
				l-14.016,13.74v-1.655c0-9.383-7.719-17.017-17.207-17.017h-20.65v-61.129h2.207c4.143,0,7.5-3.357,7.5-7.5s-3.357-7.5-7.5-7.5
				h-2.207v-11.532c0-6.359,5.345-11.532,11.914-11.532h300.918c6.569,0,11.914,5.173,11.914,11.532v11.532h-3.178
				c-4.143,0-7.5,3.357-7.5,7.5s3.357,7.5,7.5,7.5h3.178v125.726c0,0.688-0.082,1.357-0.201,2.017h-55.071
				c-4.143,0-7.5,3.357-7.5,7.5s3.357,7.5,7.5,7.5H497V367.451z M121.086,303.919c0-0.361,0.104-0.893,0.594-1.374L156,268.901
				c0.874-0.855,2.352-0.858,3.228-0.001l34.319,33.644c0.49,0.481,0.594,1.014,0.594,1.375c0,0.361-0.104,0.893-0.593,1.373
				l-14.872,14.579h-42.124l-14.872-14.58C121.19,304.811,121.087,304.28,121.086,303.919z"/>
			<path d="M279.297,281.807h-9.707c-4.143,0-7.5,3.357-7.5,7.5s3.357,7.5,7.5,7.5h9.707c4.143,0,7.5-3.357,7.5-7.5
				S283.439,281.807,279.297,281.807z"/>
			<path d="M240.469,177.129h-9.707c-4.143,0-7.5,3.357-7.5,7.5s3.357,7.5,7.5,7.5h9.707c4.143,0,7.5-3.357,7.5-7.5
				S244.611,177.129,240.469,177.129z"/>
		</g>
	</g>
</g>
<g>
</g>
<g>
</g>
<g>
</g>
<g>
</g>
<g>
</g>
<g>
</g>
<g>
</g>
<g>
</g>
<g>
</g>
<g>
</g>
<g>
</g>
<g>
</g>
<g>
</g>
<g>
</g>
<g>
</g>
</svg>
