<?xml version="1.0" encoding="iso-8859-1"?>
<!-- Generator: Adobe Illustrator 19.0.0, SVG Export Plug-In . SVG Version: 6.00 Build 0)  -->
<svg version="1.1" id="Capa_1" xmlns="http://www.w3.org/2000/svg" xmlns:xlink="http://www.w3.org/1999/xlink" x="0px" y="0px"
	 viewBox="0 0 512 512" style="enable-background:new 0 0 512 512;" xml:space="preserve">
<g>
	<g>
		<path d="M256,0C114.844,0,0,114.844,0,256s114.844,256,256,256s256-114.844,256-256S397.156,0,256,0z M256,490.667
			C126.604,490.667,21.333,385.396,21.333,256c0-60.866,23.488-116.212,61.628-157.956l44.721,44.721
			c-13.294,11.203-21.016,24.337-21.016,38.568c0,19.25,13.479,37,38.146,50.521l-16.333,115.938c-0.313,2.323-0.479,4.667-0.479,7
			c0,27.865,22.677,50.542,50.542,50.542h154.917c15.526,0,29.268-7.19,38.547-18.245l41.951,41.951
			C372.212,467.178,316.866,490.667,256,490.667z M345,227.313l16.822,119.426L161.421,146.337C184.095,135.566,216.934,128,256,128
			c75.438,0,128,28.104,128,53.333c0,12.146-12.042,24.854-33.031,34.865C346.771,218.198,344.354,222.698,345,227.313z
			 M356.927,372.01c-5.322,7.232-13.823,11.99-23.469,11.99H178.542c-16.104,0-29.208-13.104-29.208-29.208
			c0-1.375,0.104-2.76,0.281-4.073L167,227.313c0.646-4.615-1.771-9.115-5.969-11.115C140.042,206.188,128,193.479,128,181.333
			c0-7.915,5.182-16.112,14.613-23.637L356.927,372.01z M429.039,413.956l-46.762-46.762c1.017-3.991,1.723-8.1,1.723-12.402
			c0-2.333-0.167-4.677-0.49-7.052l-16.323-115.885c24.667-13.521,38.146-31.271,38.146-50.521
			c0-41.865-65.594-74.667-149.333-74.667c-44.177,0-83.178,9.188-110.289,23.961L98.044,82.961
			C139.788,44.822,195.134,21.333,256,21.333c129.396,0,234.667,105.271,234.667,234.667
			C490.667,316.866,467.178,372.212,429.039,413.956z"/>
	</g>
</g>
<g>
</g>
<g>
</g>
<g>
</g>
<g>
</g>
<g>
</g>
<g>
</g>
<g>
</g>
<g>
</g>
<g>
</g>
<g>
</g>
<g>
</g>
<g>
</g>
<g>
</g>
<g>
</g>
<g>
</g>
</svg>
