<?xml version="1.0" encoding="iso-8859-1"?>
<!-- Generator: Adobe Illustrator 19.0.0, SVG Export Plug-In . SVG Version: 6.00 Build 0)  -->
<svg version="1.1" id="Capa_1" xmlns="http://www.w3.org/2000/svg" xmlns:xlink="http://www.w3.org/1999/xlink" x="0px" y="0px"
	 viewBox="0 0 480 480" style="enable-background:new 0 0 480 480;" xml:space="preserve">
<g>
	<g>
		<path d="M416.992,224.549l-1.984,15.88c27.989,3.552,48.975,27.355,48.992,55.568v112c0,4.418-3.582,8-8,8H310.528
			c0.948-2.562,1.445-5.268,1.472-8v-112c-0.006-21.768-9.875-42.36-26.84-56H368v-16H128c-21.872-0.048-42.568,9.895-56.2,27
			l12.48,10c10.607-13.303,26.706-21.036,43.72-21h112c30.911,0.04,55.96,25.089,56,56v112c0,4.418-3.582,8-8,8h-16v16h184
			c13.255,0,24-10.745,24-24v-112C479.974,259.717,452.984,229.111,416.992,224.549z"/>
	</g>
</g>
<g>
	<g>
		<path d="M184,271.997H72c-39.746,0.044-71.956,32.254-72,72v112c0,13.255,10.745,24,24,24h208c13.255,0,24-10.745,24-24v-112
			C255.956,304.25,223.746,272.041,184,271.997z M240,455.997c0,4.418-3.582,8-8,8H24c-4.418,0-8-3.582-8-8v-112
			c0.04-30.911,25.089-55.96,56-56h112c30.911,0.04,55.96,25.089,56,56V455.997z"/>
	</g>
</g>
<g>
	<g>
		<rect x="364.69" y="328" transform="matrix(0.7071 -0.7071 0.7071 0.7071 -127.4596 364.2866)" width="22.624" height="16"/>
	</g>
</g>
<g>
	<g>
		<rect x="256" y="276.687" transform="matrix(0.7071 -0.7071 0.7071 0.7071 -126.3224 271.0304)" width="16" height="22.624"/>
	</g>
</g>
<g>
	<g>
		<rect x="108.692" y="311.995" transform="matrix(0.7071 -0.7071 0.7071 0.7071 -191.122 178.5798)" width="22.624" height="16"/>
	</g>
</g>
<g>
	<g>
		<rect x="416.003" y="284.654" transform="matrix(0.7071 -0.7071 0.7071 0.7071 -85.0924 386.5018)" width="16" height="22.624"/>
	</g>
</g>
<g>
	<g>
		<rect x="324.686" y="263.998" transform="matrix(0.7071 -0.7071 0.7071 0.7071 -93.9197 317.253)" width="22.624" height="16"/>
	</g>
</g>
<g>
	<g>
		<rect x="328.002" y="364.649" transform="matrix(0.7071 -0.7071 0.7071 0.7071 -167.432 347.7069)" width="16" height="22.624"/>
	</g>
</g>
<g>
	<g>
		<rect x="80.028" y="428.706" transform="matrix(0.7071 -0.7071 0.7071 0.7071 -285.3568 191.1236)" width="16" height="22.624"/>
	</g>
</g>
<g>
	<g>
		<rect x="40.042" y="364.697" transform="matrix(0.7071 -0.7071 0.7071 0.7071 -251.8071 144.1013)" width="16" height="22.624"/>
	</g>
</g>
<g>
	<g>
		<rect x="200.001" y="340.668" transform="matrix(0.7071 -0.7071 0.7071 0.7071 -187.9656 250.1717)" width="16" height="22.624"/>
	</g>
</g>
<g>
	<g>
		<rect x="164.714" y="383.996" transform="matrix(0.7071 -0.7071 0.7071 0.7071 -225.6268 239.283)" width="22.624" height="16"/>
	</g>
</g>
<g>
	<g>
		<rect x="416.003" y="364.663" transform="matrix(0.7071 -0.7071 0.7071 0.7071 -141.6669 409.9364)" width="16" height="22.624"/>
	</g>
</g>
<g>
	<g>
		<path d="M448,23.997h-16v24h-8c-2.62,0.009-5.233,0.277-7.8,0.8c3.761-18.371-4.071-37.177-19.76-47.448
			c-2.688-1.794-6.192-1.794-8.88,0c-15.689,10.271-23.521,29.077-19.76,47.448c-2.567-0.523-5.18-0.791-7.8-0.8h-8v-24h-16v48
			c0.029,8.684,2.914,17.117,8.208,24H344c-4.418,0-8,3.582-8,8v16c0.029,8.684,2.914,17.117,8.208,24H344c-4.418,0-8,3.582-8,8v16
			c0.026,22.08,17.92,39.974,40,40h8v80h16v-80h8c22.08-0.026,39.974-17.92,40-40v-16c0-4.418-3.582-8-8-8h-0.208
			c5.294-6.883,8.179-15.316,8.208-24v-16c0-4.418-3.582-8-8-8h-0.208c5.294-6.883,8.179-15.316,8.208-24V23.997z M384,191.997h-8
			c-13.255,0-24-10.745-24-24v-8h8c13.255,0,24,10.745,24,24V191.997z M384,143.997h-8c-13.255,0-24-10.745-24-24v-8h8
			c13.255,0,24,10.745,24,24V143.997z M384,95.997h-8c-13.255,0-24-10.745-24-24v-8h8c13.255,0,24,10.745,24,24V95.997z
			 M392,160.245c-0.064-0.088-0.136-0.16-0.208-0.248H392h0.208C392.136,160.085,392.064,160.157,392,160.245z M392,112.245
			c-0.064-0.088-0.136-0.16-0.208-0.248H392h0.208C392.136,112.085,392.064,112.157,392,112.245z M392.369,61.403
			c-0.122,0.124-0.245,0.247-0.369,0.369c-12.027-11.823-12.192-31.156-0.369-43.183c0.122-0.124,0.245-0.247,0.369-0.369
			C404.027,30.043,404.192,49.377,392.369,61.403z M432,167.997c0,13.255-10.745,24-24,24h-8v-8c0-13.255,10.745-24,24-24h8V167.997
			z M432,119.997c0,13.255-10.745,24-24,24h-8v-8c0-13.255,10.745-24,24-24h8V119.997z M432,71.997c0,13.255-10.745,24-24,24h-8v-8
			c0-13.255,10.745-24,24-24h8V71.997z"/>
	</g>
</g>
<g>
	<g>
		<path d="M232,23.997h-16c-4.418,0-8,3.582-8,8v16c0.026,22.08,17.92,39.974,40,40h16c4.418,0,8-3.582,8-8v-16
			C271.974,41.916,254.08,24.023,232,23.997z M256,71.997h-8c-13.255,0-24-10.745-24-24v-8h8c13.255,0,24,10.745,24,24V71.997z"/>
	</g>
</g>
<g>
	<g>
		<path d="M304,111.997h-16c-22.08,0.026-39.974,17.92-40,40v16c0,4.418,3.582,8,8,8h16c22.08-0.026,39.974-17.92,40-40v-16
			C312,115.578,308.418,111.997,304,111.997z M296,135.997c0,13.255-10.745,24-24,24h-8v-8c0-13.255,10.745-24,24-24h8V135.997z"/>
	</g>
</g>
<g>
	<g>
		<path d="M200,103.997h-16c-22.08,0.026-39.974,17.92-40,40v16c0,4.418,3.582,8,8,8h16c22.08-0.026,39.974-17.92,40-40v-16
			C208,107.578,204.418,103.997,200,103.997z M192,127.997c0,13.255-10.745,24-24,24h-8v-8c0-13.255,10.745-24,24-24h8V127.997z"/>
	</g>
</g>
<g>
</g>
<g>
</g>
<g>
</g>
<g>
</g>
<g>
</g>
<g>
</g>
<g>
</g>
<g>
</g>
<g>
</g>
<g>
</g>
<g>
</g>
<g>
</g>
<g>
</g>
<g>
</g>
<g>
</g>
</svg>
