<svg height="512pt" viewBox="0 0 512 511" width="512pt" xmlns="http://www.w3.org/2000/svg"><path d="m477.667969 240.527344c-22.644531-30.734375-52.972657-47.660156-85.394531-47.660156-10.824219 0-21.554688 1.984374-32.039063 5.902343 3.40625-37.292969 21.8125-62.457031 22.007813-62.722656 2.484374-3.3125 1.8125-8.015625-1.5-10.5s-8.015626-1.8125-10.5 1.5c-.960938 1.28125-21.765626 29.53125-25.089844 72.101563-9.996094-3.863282-20.230469-5.957032-30.554688-6.246094-6.667968-30.742188-19.949218-58.421875-37.691406-78.328125-19.785156-22.199219-43.644531-33.933594-69.003906-33.933594-11.246094 0-22.214844 2.328125-32.671875 6.855469-.277344-7.875-1.199219-15.296875-2.53125-22.199219 3.125.414063 6.292969.628906 9.484375.628906 13.148437 0 26.613281-3.507812 38.667968-10.277343 17.445313-9.792969 30.605469-25.667969 36.097657-43.546876.605469-1.960937.375-4.085937-.628907-5.875-1.003906-1.789062-2.699218-3.089843-4.6875-3.597656-18.125-4.617187-38.527343-1.648437-55.976562 8.148438-12.753906 7.160156-23.199219 17.578125-30.050781 29.644531-6.984375-18.308594-15.269531-29.359375-15.867188-30.140625-2.515625-3.292969-7.222656-3.925781-10.515625-1.414062-3.289062 2.515624-3.921875 7.222656-1.410156 10.515624.210938.273438 19.746094 26.304688 22.246094 64.957032-9.25-2.453125-18.722656-3.699219-28.308594-3.699219-35.484375 0-68.75 16.820313-93.667969 47.367187-24.558593 30.105469-38.082031 70.035157-38.082031 112.441407s13.523438 82.335937 38.082031 112.4375c24.917969 30.542969 58.183594 47.367187 93.667969 47.367187 14.066406 0 27.90625-2.671875 41.148438-7.9375 7.9375 3.710938 16.210937 6.167969 24.695312 7.269532 5.550781 24.324218 15.433594 46.652343 29.125 65.234374 22.648438 30.734376 52.972656 47.660157 85.394531 47.660157 13.609375 0 27.074219-3.128907 40.082031-9.304688 13.003907 6.175781 26.46875 9.304688 40.082032 9.304688 32.417968 0 62.746094-16.925781 85.394531-47.660157 22.136719-30.046874 34.328125-69.875 34.328125-112.148437 0-42.269531-12.191406-82.097656-34.332031-112.144531zm-274.667969-216.671875c11.40625-6.402344 24.277344-9.226563 36.414062-8.136719-5.390624 10.925781-14.503906 20.449219-25.90625 26.851562-11.40625 6.402344-24.28125 9.226563-36.414062 8.136719 5.386719-10.925781 14.5-20.449219 25.90625-26.851562zm189.273438 473.625c-10.992188 0-21.929688-2.480469-32.582032-7.363281v-9.183594c0-4.144532-3.355468-7.5-7.5-7.5-4.140625 0-7.5 3.355468-7.5 7.5v9.183594c-10.648437 4.886718-21.585937 7.363281-32.578125 7.363281-57.746093 0-104.726562-64.960938-104.726562-144.808594 0-55.132813 22.246093-104.785156 58.058593-129.585937 3.40625-2.355469 4.253907-7.03125 1.898438-10.4375-2.359375-3.402344-7.03125-4.253907-10.4375-1.894532-39.796875 27.558594-64.519531 81.9375-64.519531 141.917969 0 10.601563.765625 21.046875 2.261719 31.222656-47.347657-9.761719-83.457032-70.785156-83.457032-143.449219 0-33.304687 7.800782-65.855468 21.972656-91.65625 1.992188-3.632812.664063-8.191406-2.964843-10.183593-3.628907-1.996094-8.1875-.667969-10.183594 2.960937-15.585937 28.382813-23.824219 62.574219-23.824219 98.878906 0 40.398438 10.488282 78.921876 29.535156 108.472657 8.785157 13.632812 19.011719 24.789062 30.234376 33.1875-7.925782 2.074219-16.023438 3.148437-24.214844 3.148437-64.371094 0-116.746094-64.960937-116.746094-144.804687 0-79.847657 52.375-144.808594 116.75-144.808594 8.191406 0 16.292969 1.054687 24.214844 3.132813-5.371094 4.035156-10.542969 8.71875-15.46875 14.042968-2.8125 3.039063-2.625 7.785156.414062 10.597656 3.039063 2.8125 7.785156 2.628907 10.597656-.410156 16.5625-17.902344 36.0625-27.363281 56.394532-27.363281 41.25 0 78.238281 40.011719 91.53125 98.121094-3.597656.503906-7.171875 1.207031-10.699219 2.136719-4.003906 1.050781-6.398437 5.152343-5.34375 9.160156 1.050781 4.007812 5.152344 6.402344 9.160156 5.347656 6.402344-1.683594 12.984375-2.539062 19.5625-2.539062 10.992188 0 21.933594 2.480468 32.582031 7.363281v17.203125c0 4.140625 3.359376 7.5 7.5 7.5 4.140626 0 7.5-3.359375 7.5-7.5v-17.203125c10.648438-4.886719 21.589844-7.363281 32.582032-7.363281 57.746094 0 104.726562 64.960937 104.726562 144.804687-.003906 79.847656-46.984375 144.808594-104.730468 144.808594zm0 0"/><path d="m358.902344 275.769531c-1.269532-2.539062-3.867188-4.144531-6.710938-4.144531-2.839844 0-5.4375 1.605469-6.707031 4.144531-1.882813 3.765625-5.789063 8.578125-10.3125 14.152344-12.894531 15.886719-30.558594 37.644531-30.558594 69.363281s17.664063 53.480469 30.558594 69.367188c1.566406 1.925781 3.0625 3.769531 4.441406 5.527344 3.0625 3.910156 7.644531 6.152343 12.578125 6.152343s9.519532-2.242187 12.582032-6.152343c1.378906-1.757813 2.875-3.601563 4.441406-5.53125 12.894531-15.886719 30.558594-37.644532 30.558594-69.363282s-17.664063-53.476562-30.558594-69.363281c-4.523438-5.574219-8.429688-10.386719-10.3125-14.152344zm-1.335938 143.425781c-1.621094 2-3.171875 3.910157-4.601562 5.738282-.078125.097656-.316406.402344-.773438.402344-.457031 0-.691406-.304688-.769531-.402344-1.429687-1.824219-2.980469-3.734375-4.605469-5.734375-12.121094-14.933594-27.207031-33.515625-27.207031-59.914063 0-26.394531 15.085937-44.976562 27.207031-59.910156 1.910156-2.351562 3.71875-4.582031 5.375-6.726562 1.65625 2.144531 3.464844 4.375 5.375 6.726562 12.121094 14.929688 27.207032 33.515625 27.207032 59.910156 0 26.398438-15.085938 44.980469-27.207032 59.910156zm0 0"/></svg>