<svg id="Capa_1" enable-background="new 0 0 507.035 507.035" height="512" viewBox="0 0 507.035 507.035" width="512" xmlns="http://www.w3.org/2000/svg"><g><path d="m60.061 315.89c0-5.523 4.477-10 10-10s10 4.477 10 10-4.477 10-10 10-10-4.477-10-10zm436.826-148.475c-1.812 17.777-9.628 34.756-22.58 47.708-2.421 2.421-5.01 4.683-7.713 6.763-7.707 16.589-21.076 30.313-38.062 38.233-8.08 3.768-16.639 6.122-25.44 6.996-1.448.144-2.89.215-4.313.215-8.841 0-16.891-2.258-23.586-6.833l-132.383 132.384c-32.269 32.24-59.884 68.888-82.082 108.928-1.826 3.294-7.046 7.377-13.594 3.897l-57.411-32.007c-5.443-3.035-10.438-6.813-14.839-11.225l-30.808-30.886c-4.383-4.394-8.135-9.374-11.149-14.798l-31.64-56.93c-2.508-4.835-1.254-10.739 3.9-13.59 7.603-4.206 15.176-8.687 22.55-13.3 11.296-7.067 21.906 9.893 10.61 16.96-4.829 3.021-9.8 6.02-14.76 8.9l24.254 43.758 95.267-95.267-22.201-22.201c-5.342 5.284-8.775 8.653-9.549 9.36-9.776 8.922-23.256-5.848-13.48-14.77 4.83-4.408 119.859-119.204 148.947-148.239-5.404-7.885-7.945-17.473-6.943-27.566.874-8.799 3.227-17.358 6.996-25.44 7.92-16.985 21.644-30.354 38.233-38.062 2.083-2.706 4.346-5.296 6.764-7.714 12.951-12.951 29.929-20.766 47.705-22.578 26.408-11.037 56.144-13.122 83.916-5.841 3.475.911 6.203 3.652 7.113 7.127 2.138 8.165 3.47 16.521 4.007 24.944 8.385.529 16.737 1.842 24.917 3.985 3.485.913 6.228 3.655 7.141 7.14 2.143 8.18 3.456 16.531 3.985 24.917 8.423.536 16.782 1.868 24.945 4.007 3.475.91 6.215 3.638 7.126 7.113 7.278 27.769 5.193 57.503-5.843 83.912zm-85.878-110.3c3.139 13.163 2.78 26.87-.839 39.712 12.847-3.62 26.559-3.977 39.726-.835 1.714-12.483 1.324-25.253-1.222-37.669-12.415-2.546-25.182-2.922-37.665-1.208zm-4.614 82.024c9.836 2.47 19.679 6.916 27.73 12.309 6.054-11.19 8.395-24.193 6.44-36.932-11.656-1.795-23.633-.023-34.228 5.025.837 6.547.853 13.131.058 19.598zm-31.459-118.102c1.931 8.087 2.571 16.401 1.91 24.634 12.075-4.904 24.826-7.922 37.749-9.068-.351-4.821-1.009-9.612-1.981-14.343-12.42-2.547-25.192-2.938-37.678-1.223zm-61.448 272.882-100.471-100.471c-4.624 4.611-9.369 9.342-14.162 14.121l100.491 100.491zm-28.284 28.284-100.515-100.515c-9.469 9.436-18.844 18.774-27.57 27.46l120.471 80.668zm6.364-78.489 34.508-34.508c-2.348-4.511-6.705-12.248-11.371-16.913-4.621-4.621-12.371-9.006-16.909-11.375l-34.512 34.512zm14.936-99.207c3.832-7.971 8.971-15.209 15.275-21.514 7.726-7.726 16.888-13.616 26.794-17.504-1.217-5.309-3.149-10.441-5.772-15.218-18.169 3.622-33.829 15.755-41.735 32.708-2.813 6.033-4.569 12.413-5.219 18.964-.845 8.507 2.866 14.238 6.574 17.76.384-5.139 1.722-10.283 4.083-15.196zm47.323 37.96c5.934-2.852 11.329-6.685 16.035-11.391 13.228-13.227 19.273-32.09 16.462-50.402-2.95-.453-5.917-.676-8.87-.676-15.376 0-30.436 6.042-41.532 17.138-4.707 4.707-8.539 10.102-11.391 16.035-4.945 10.29-1.013 19.65 4.316 24.98 5.329 5.328 14.689 9.262 24.98 4.316zm33.63-81.807c5.048-10.595 6.818-22.573 5.025-34.227-12.741-1.955-25.741.386-36.93 6.438 5.688 8.129 9.995 17.879 12.373 27.724 6.445-.787 13.007-.769 19.532.065zm-67.99-63.839c6.068 8.19 10.281 18.16 12.548 28.142 7.14-6.183 15.276-10.957 23.96-14.197 1.329-6.723 1.493-13.625.447-20.395-12.747-1.958-25.759.388-36.955 6.45zm-47.359 90.929c1.597.823 3.412 1.793 5.341 2.907 1.236-5.532 3.066-10.931 5.491-16.13 6.804-14.591 17.891-26.51 31.396-34.469-.474-8.556-3.935-19.178-7.598-25.85-18.169 3.622-33.829 15.755-41.735 32.708-2.813 6.033-4.569 12.413-5.219 18.964-1.36 13.698 9.089 20.203 12.324 21.87zm-44.93 51.574 21.963 21.963 33.495-33.495c-2.518-3.854-4.318-8.202-5.573-13.035-4.589-4.088-14.944-9.668-15.351-9.893-6.959 6.948-19.524 19.487-34.534 34.46zm-92.069 91.713 100.63 100.63 27.435-27.435-120.516-80.698c-2.636 2.622-5.159 5.129-7.549 7.503zm50.425 78.71-28.284-28.284-97.581 97.581 28.284 28.284zm36.137 36.138-21.995-21.995-95.268 95.268 43.761 24.256c20.539-35.399 45.215-68.129 73.502-97.529zm140.462-140.611c-2.079-4.011-5.766-10.625-9.92-15.362-4.8-1.251-9.133-3.059-12.981-5.577l-33.521 33.521 21.92 21.92zm21.885-39.343c16.954-7.906 29.086-23.566 32.708-41.735-4.778-2.623-9.909-4.555-15.219-5.772-3.888 9.906-9.778 19.068-17.504 26.794-6.304 6.304-13.542 11.443-21.513 15.275-4.913 2.361-10.057 3.699-15.196 4.083 3.524 3.708 9.256 7.419 17.759 6.574 6.552-.649 12.932-2.406 18.965-5.219zm68.771-5.672c-6.85-3.761-16.529-7.121-26.123-7.135-7.958 13.295-19.772 24.207-34.196 30.933-5.199 2.425-10.599 4.255-16.13 5.491 1.114 1.929 2.084 3.744 2.907 5.341 1.668 3.235 8.185 13.685 21.87 12.324 6.552-.65 12.932-2.407 18.964-5.219 16.953-7.906 29.086-23.566 32.708-41.735zm23.837-49.684c-6.768-1.046-13.671-.882-20.394.447-3.243 8.691-8.021 16.833-14.211 23.977 9.986 2.308 19.776 6.595 28.093 12.642 6.107-11.22 8.477-24.274 6.512-37.066zm8.111-56.192c-4.73-.972-9.522-1.631-14.343-1.982-1.146 12.923-4.164 25.675-9.068 37.75 8.226-.66 16.534-.022 24.616 1.906 1.715-12.485 1.341-25.255-1.205-37.674z"/></g></svg>