<?xml version="1.0" encoding="iso-8859-1"?>
<!-- Generator: Adobe Illustrator 19.0.0, SVG Export Plug-In . SVG Version: 6.00 Build 0)  -->
<svg version="1.1" id="Capa_1" xmlns="http://www.w3.org/2000/svg" xmlns:xlink="http://www.w3.org/1999/xlink" x="0px" y="0px"
	 viewBox="0 0 511.997 511.997" style="enable-background:new 0 0 511.997 511.997;" xml:space="preserve">
<g>
	<g>
		<path d="M313.985,109.35C303.4,87.08,280.639,72.691,256,72.691c-24.639,0-47.4,14.389-57.984,36.659
			c-1.789,3.764-0.189,8.266,3.575,10.054c3.767,1.791,8.267,0.189,10.055-3.575c8.098-17.037,25.508-28.046,44.354-28.046
			s36.256,11.008,44.354,28.046c1.292,2.719,3.998,4.308,6.82,4.308c1.086,0,2.189-0.236,3.235-0.733
			C314.173,117.616,315.774,113.114,313.985,109.35z"/>
	</g>
</g>
<g>
	<g>
		<path d="M410.072,167.03c-15.331-19.288-40.759-28.155-64.777-22.583c-4.06,0.941-6.588,4.995-5.646,9.055
			c0.94,4.06,4.996,6.591,9.055,5.646c18.372-4.257,37.827,2.518,49.554,17.273c11.726,14.754,13.94,35.233,5.641,52.173
			c-1.834,3.744-0.287,8.265,3.456,10.098c1.068,0.523,2.2,0.771,3.314,0.771c2.79,0,5.472-1.553,6.783-4.228
			C428.3,213.092,425.404,186.321,410.072,167.03z"/>
	</g>
</g>
<g>
	<g>
		<path d="M166.706,144.448c-24.021-5.569-49.447,3.294-64.777,22.583c-15.332,19.29-18.228,46.062-7.38,68.205
			c1.311,2.674,3.992,4.228,6.783,4.228c1.114,0,2.246-0.249,3.314-0.771c3.743-1.833,5.29-6.354,3.457-10.097
			c-8.3-16.94-6.085-37.419,5.641-52.173c11.726-14.756,31.181-21.529,49.553-17.274c4.059,0.942,8.115-1.586,9.055-5.646
			C173.294,149.443,170.766,145.389,166.706,144.448z"/>
	</g>
</g>
<g>
	<g>
		<path d="M452.793,147.971c0.706-4.273,1.062-8.586,1.062-12.89c0-46.598-40.537-84.509-90.364-84.509
			c-9.267,0-18.361,1.307-27.122,3.891C320.963,26.401,290.159,8.617,256,8.617s-64.963,17.784-80.369,45.846
			c-8.761-2.584-17.855-3.891-27.122-3.891c-16.899,0-33.38,4.39-47.663,12.696c-3.602,2.095-4.824,6.714-2.73,10.317
			c2.095,3.602,6.713,4.822,10.317,2.73c11.981-6.967,25.84-10.65,40.076-10.65c9.76,0,19.283,1.716,28.307,5.098
			c3.735,1.405,7.917-0.35,9.542-3.993C198.019,40.612,225.354,23.71,256,23.71s57.981,16.902,69.642,43.06
			c1.625,3.643,5.804,5.395,9.542,3.993c9.024-3.383,18.548-5.098,28.307-5.098c41.505,0,75.272,31.14,75.272,69.417
			c0,5.429-0.702,10.884-2.086,16.214c-1.048,4.033,1.372,8.152,5.405,9.201c32.281,8.389,54.826,35.86,54.826,66.802
			c0,38.276-33.767,69.416-75.272,69.416c-1.667,0-3.325,0.01-4.971,0.02c-9.795,0.064-18.497,0.115-26.209-1.834
			c-0.062-0.017-0.12-0.044-0.183-0.06c-2.764-0.706-5.296-1.65-7.643-2.855c-0.035-0.018-0.071-0.034-0.106-0.053
			c-0.69-0.357-1.358-0.745-2.017-1.149c-0.129-0.079-0.259-0.154-0.387-0.235c-0.601-0.38-1.186-0.786-1.763-1.207
			c-0.167-0.122-0.335-0.242-0.5-0.368c-0.56-0.425-1.109-0.872-1.648-1.339c-0.156-0.135-0.311-0.272-0.466-0.411
			c-0.555-0.498-1.102-1.014-1.637-1.557c-0.105-0.107-0.209-0.219-0.314-0.328c-0.578-0.602-1.148-1.221-1.704-1.878
			c-0.395-0.467-0.803-0.917-1.219-1.359c-0.136-0.145-0.275-0.288-0.413-0.43c-0.298-0.306-0.601-0.606-0.908-0.9
			c-0.148-0.142-0.295-0.287-0.446-0.426c-0.406-0.375-0.819-0.738-1.24-1.092c-0.185-0.155-0.376-0.305-0.564-0.456
			c-0.286-0.23-0.575-0.456-0.868-0.677c-0.194-0.146-0.387-0.292-0.584-0.434c-0.464-0.334-0.932-0.66-1.41-0.97
			c-0.062-0.041-0.127-0.078-0.19-0.118c-0.49-0.314-0.988-0.612-1.491-0.901c-0.077-0.044-0.155-0.088-0.232-0.132
			c-9.781-5.506-22.048-6.288-33.344-1.571c-17.702,7.395-35.344,11.899-52.639,13.501c-2.653,0.246-5.294,0.425-7.903,0.534
			c-0.044,0.002-0.087,0.002-0.131,0.004c-1.275,0.053-2.543,0.09-3.801,0.111c-1.314,0.02-2.627,0.027-3.936,0.012l-14.176-0.167
			c-0.066-0.001-0.134-0.003-0.2-0.004c-0.972-0.013-1.946-0.041-2.922-0.074c-0.462-0.017-0.922-0.032-1.39-0.054
			c-0.365-0.016-0.731-0.039-1.096-0.058c-1.307-0.07-2.633-0.155-4.007-0.265c-0.004,0-0.007,0-0.011,0
			c-17.472-1.402-35.376-6.034-53.359-13.845c-9.468-4.11-19.903-4.215-28.996-0.847c-0.112,0.036-0.225,0.059-0.336,0.101
			c-1.066,0.404-2.1,0.873-3.118,1.373c-0.064,0.031-0.128,0.063-0.191,0.095c-0.834,0.415-1.653,0.857-2.451,1.333
			c-0.03,0.018-0.06,0.034-0.09,0.052c-0.334,0.201-0.663,0.409-0.99,0.62c-0.259,0.166-0.514,0.337-0.768,0.51
			c-0.309,0.211-0.618,0.422-0.921,0.642c-0.427,0.31-0.847,0.63-1.262,0.959c-0.189,0.15-0.375,0.303-0.561,0.457
			c-0.435,0.36-0.863,0.729-1.282,1.111c-0.073,0.067-0.149,0.129-0.221,0.197c-0.486,0.45-0.956,0.92-1.418,1.399
			c-0.128,0.132-0.254,0.266-0.38,0.401c-0.45,0.481-0.893,0.972-1.318,1.481c-0.013,0.015-0.026,0.029-0.039,0.044
			c-0.498,0.597-1.007,1.161-1.521,1.711c-0.134,0.142-0.267,0.287-0.402,0.426c-0.458,0.475-0.924,0.929-1.396,1.368
			c-0.228,0.211-0.458,0.412-0.688,0.614c-0.271,0.238-0.546,0.467-0.822,0.694c-0.475,0.389-0.955,0.762-1.441,1.116
			c-0.167,0.122-0.334,0.244-0.502,0.362c-0.716,0.501-1.441,0.969-2.179,1.399c-0.003,0.001-0.005,0.003-0.008,0.005
			c-0.388,0.226-0.779,0.442-1.173,0.65c-0.109,0.057-0.221,0.111-0.331,0.167c-0.635,0.326-1.279,0.63-1.931,0.912
			c-0.303,0.13-0.609,0.256-0.918,0.379c-0.424,0.169-0.852,0.33-1.284,0.483c-0.485,0.17-0.975,0.336-1.476,0.489
			c-8.034,2.471-17.22,2.414-27.657,2.345c-1.711-0.011-3.434-0.023-5.17-0.023c-41.505,0-75.272-31.14-75.272-69.416
			c0-30.942,22.546-58.413,54.826-66.802c4.033-1.048,6.453-5.167,5.405-9.201c-1.384-5.33-2.086-10.785-2.086-16.214
			c0-13.124,3.991-25.901,11.542-36.948c2.351-3.441,1.468-8.136-1.972-10.489c-3.442-2.351-8.136-1.468-10.489,1.972
			c-9.272,13.567-14.173,29.289-14.173,45.464c0,4.304,0.356,8.617,1.062,12.89C24.007,160.061,0,191.764,0,227.298
			c0,46.598,40.537,84.508,90.364,84.508c1.702,0,3.393,0.012,5.069,0.023c1.63,0.011,3.262,0.022,4.899,0.022
			c7.503,0,15.039-0.236,22.32-1.758c65.163,64.71,72.283,117.066,72.283,136.766v29.336c0,6.128,3.629,14.743,20.916,20.984
			c11.076,3.999,25.647,6.201,41.029,6.201s29.953-2.202,41.029-6.201c17.288-6.241,20.917-14.856,20.917-20.984v-29.337
			c0-24.246,8.625-50.655,25.634-78.494c2.173-3.556,1.052-8.2-2.505-10.373c-3.556-2.173-8.201-1.053-10.373,2.505
			c-18.479,30.242-27.848,59.299-27.848,86.362l0.004,29.291c-0.149,0.718-2.655,4.057-12.185,7.264
			c-9.344,3.143-21.657,4.874-34.673,4.874s-25.329-1.731-34.673-4.874c-9.53-3.207-12.035-6.546-12.181-7.219v-29.336
			c0-59.334-45.421-115.096-71.938-142.584c1.717-1.011,3.402-2.163,5.053-3.459c0.049-0.038,0.097-0.076,0.146-0.114
			c0.466-0.369,0.93-0.751,1.391-1.145c0.082-0.07,0.165-0.139,0.247-0.21c0.42-0.364,0.837-0.74,1.251-1.125
			c0.104-0.097,0.21-0.191,0.314-0.289c0.389-0.367,0.775-0.748,1.159-1.135c0.115-0.116,0.232-0.228,0.347-0.345
			c0.379-0.389,0.755-0.793,1.129-1.202c0.108-0.118,0.218-0.23,0.325-0.349c0.473-0.526,0.943-1.066,1.409-1.625
			c0.404-0.485,0.827-0.935,1.257-1.37c0.179-0.181,0.366-0.352,0.551-0.526c0.24-0.226,0.484-0.445,0.73-0.656
			c0.261-0.222,0.524-0.44,0.795-0.649c0.136-0.105,0.275-0.203,0.412-0.305c0.345-0.251,0.691-0.5,1.052-0.731
			c20.005,18.576,45.599,47.065,61.337,82.452c2.191,4.927,7.234,7.604,12.551,6.66c5.252-0.932,9.17-5.296,9.528-10.613
			l4.33-64.524c1.012,0.032,2.014,0.055,3.012,0.066l14.175,0.166c0.637,0.008,1.272,0.012,1.909,0.012
			c0.602,0,1.206-0.018,1.809-0.025c0.559-0.007,1.116-0.01,1.678-0.023c1.419-0.03,2.841-0.08,4.265-0.147
			c0.037-0.002,0.073-0.002,0.11-0.004l4.327,64.478c0.357,5.315,4.273,9.678,9.524,10.612c5.325,0.948,10.362-1.731,12.555-6.659
			c15.508-34.874,40.625-63.051,60.324-81.506c0.033,0.024,0.066,0.047,0.098,0.072c0.523,0.385,1.021,0.802,1.504,1.238
			c0.106,0.096,0.216,0.185,0.32,0.284c0.543,0.512,1.064,1.051,1.551,1.628c0.519,0.614,1.044,1.206,1.573,1.78
			c0.098,0.106,0.199,0.206,0.297,0.311c0.446,0.477,0.893,0.944,1.345,1.393c0.084,0.083,0.169,0.162,0.253,0.244
			c0.484,0.475,0.971,0.937,1.462,1.383c0.052,0.047,0.106,0.093,0.158,0.14c0.546,0.491,1.096,0.964,1.65,1.42
			c0.004,0.003,0.009,0.007,0.013,0.01c2.468,2.03,5.013,3.728,7.624,5.13c-6.544,6.82-14.363,15.493-22.321,25.521
			c-2.591,3.265-2.044,8.012,1.22,10.602c3.263,2.59,8.011,2.044,10.602-1.22c9.767-12.309,19.32-22.49,26.36-29.53
			c8.489,1.543,17.285,1.49,25.955,1.435c1.615-0.01,3.242-0.02,4.879-0.02c49.827,0,90.364-37.91,90.364-84.508
			C512,191.764,487.993,160.061,452.793,147.971z M224.908,353.213c-14.193-27.14-33.208-49.785-50.098-66.669
			c0.968,0.279,1.904,0.606,2.784,0.988c17.006,7.385,34.011,12.158,50.762,14.281L224.908,353.213z M288.852,353.214l-3.458-51.531
			c16.401-2.231,33.002-6.83,49.599-13.763c1.201-0.502,2.483-0.904,3.808-1.217C322.026,303.499,303.033,326.106,288.852,353.214z"
			/>
	</g>
</g>
<g>
</g>
<g>
</g>
<g>
</g>
<g>
</g>
<g>
</g>
<g>
</g>
<g>
</g>
<g>
</g>
<g>
</g>
<g>
</g>
<g>
</g>
<g>
</g>
<g>
</g>
<g>
</g>
<g>
</g>
</svg>
