<svg height="512pt" viewBox="0 0 512 512" width="512pt" xmlns="http://www.w3.org/2000/svg"><path d="m437.019531 74.980469c-48.351562-48.351563-112.640625-74.980469-181.019531-74.980469s-132.667969 26.628906-181.019531 74.980469c-48.351563 48.351562-74.980469 112.640625-74.980469 181.019531s26.628906 132.667969 74.980469 181.019531c48.351562 48.351563 112.640625 74.980469 181.019531 74.980469s132.667969-26.628906 181.019531-74.980469c48.351563-48.351562 74.980469-112.640625 74.980469-181.019531s-26.628906-132.667969-74.980469-181.019531zm-340.824219 21.214843c42.683594-42.6875 99.4375-66.195312 159.804688-66.195312 55.339844 0 107.632812 19.769531 148.84375 55.941406l-42.90625 42.910156c-19.15625-11.941406-41.753906-18.851562-65.9375-18.851562-2.640625 0-5.230469.695312-7.515625 2.019531l-190 110c-4.632813 2.679688-7.484375 7.628907-7.484375 12.980469v120c0 8.285156 6.714844 15 15 15h14.785156l-34.84375 34.84375c-36.171875-41.210938-55.941406-93.503906-55.941406-148.84375 0-60.367188 23.507812-117.121094 66.195312-159.804688zm24.804688 243.804688v-90h119.785156l-90 90zm40.847656-120 138.042969-79.921875c14.414063.585937 28.011719 4.398437 40.085937 10.734375l-69.191406 69.1875zm121.367188 30h107.785156v90h-197.785156zm30-30 51.023437-51.027344c13.261719 13.703125 22.441407 31.371094 25.570313 51.027344zm102.589844 195.804688c-42.683594 42.6875-99.4375 66.195312-159.804688 66.195312-55.339844 0-107.632812-19.769531-148.84375-55.941406l56.058594-56.058594h242.785156c8.285156 0 15-6.714844 15-15v-120c0-33.902344-13.570312-64.6875-35.558594-87.226562l40.617188-40.617188c36.171875 41.210938 55.941406 93.503906 55.941406 148.84375 0 60.367188-23.507812 117.121094-66.195312 159.804688zm0 0"/></svg>