<?xml version="1.0" encoding="iso-8859-1"?>
<!-- Generator: Adobe Illustrator 19.0.0, SVG Export Plug-In . SVG Version: 6.00 Build 0)  -->
<svg version="1.1" id="Capa_1" xmlns="http://www.w3.org/2000/svg" xmlns:xlink="http://www.w3.org/1999/xlink" x="0px" y="0px"
	 viewBox="0 0 512 512" style="enable-background:new 0 0 512 512;" xml:space="preserve">
<g>
	<g>
		<path d="M256,0C114.844,0,0,114.844,0,256s114.844,256,256,256s256-114.844,256-256S397.156,0,256,0z M256,490.667
			C126.604,490.667,21.333,385.396,21.333,256c0-60.866,23.488-116.212,61.628-157.956l109.934,109.934
			c-20.712,23.876-31.919,51.602-32.361,76.646L92.281,310c-3.406,1.271-5.927,4.177-6.698,7.729
			c-0.781,3.542,0.302,7.25,2.875,9.813c9.729,9.729,11.656,17.042,14.104,26.302c2.74,10.385,5.844,22.146,19.646,35.948
			c13.802,13.802,25.563,16.906,35.948,19.646c9.26,2.448,16.573,4.375,26.302,14.104c2.021,2.021,4.74,3.125,7.542,3.125
			c0.74,0,1.49-0.073,2.24-0.24c3.531-0.76,6.448-3.26,7.729-6.635l25.87-68.115c24.944-0.586,52.667-11.74,76.4-32.356
			l109.717,109.717C372.212,467.178,316.866,490.667,256,490.667z M318.615,193.385c20.923,20.932,13.919,62.185-14.543,95.603
			l-80.926-80.926c20.195-17.174,43.111-26.896,62.844-26.896C298.885,181.167,310.344,185.115,318.615,193.385z M305.996,162.697
			l18.712-49.103c8.708,5.635,16.531,7.708,23.698,9.594c9.26,2.448,16.573,4.375,26.302,14.104
			c9.729,9.729,11.656,17.042,14.104,26.302c1.896,7.177,3.958,15.01,9.604,23.719l-49.066,18.793
			c-2.783-10.591-7.952-20.103-15.652-27.803C326.022,170.629,316.544,165.483,305.996,162.697z M288.991,304.074
			c-33.4,28.457-74.645,35.501-95.605,14.54c-20.923-20.932-13.919-62.185,14.543-95.603L288.991,304.074z M206.026,349.027
			l-18.755,49.369c-8.688-5.625-16.51-7.698-23.677-9.583c-9.26-2.448-16.573-4.375-26.302-14.104
			c-9.729-9.729-11.656-17.042-14.104-26.302c-1.885-7.135-3.938-14.938-9.531-23.594l49.238-18.302
			c2.822,10.331,7.865,19.645,15.408,27.188C185.957,341.353,195.516,346.233,206.026,349.027z M429.039,413.956L319.105,304.022
			c20.501-23.633,31.658-51.025,32.309-75.871l68.398-26.193c3.375-1.292,5.865-4.198,6.625-7.74c0.75-3.531-0.344-7.208-2.896-9.76
			c-9.729-9.729-11.656-17.042-14.104-26.302c-2.74-10.385-5.844-22.146-19.646-35.948c-13.802-13.802-25.563-16.906-35.948-19.646
			c-9.26-2.448-16.573-4.375-26.302-14.104c-2.563-2.563-6.24-3.729-9.771-2.885c-3.542,0.75-6.448,3.25-7.74,6.625l-26.066,68.392
			c-24.871,0.625-52.307,11.785-75.984,32.307L98.044,82.961C139.788,44.822,195.134,21.333,256,21.333
			c129.396,0,234.667,105.271,234.667,234.667C490.667,316.866,467.178,372.212,429.039,413.956z"/>
	</g>
</g>
<g>
</g>
<g>
</g>
<g>
</g>
<g>
</g>
<g>
</g>
<g>
</g>
<g>
</g>
<g>
</g>
<g>
</g>
<g>
</g>
<g>
</g>
<g>
</g>
<g>
</g>
<g>
</g>
<g>
</g>
</svg>
