<svg id="Layer_3" enable-background="new 0 0 64 64" height="512" viewBox="0 0 64 64" width="512" xmlns="http://www.w3.org/2000/svg"><g><path d="m62.936 24.072c-.206-1.125-.875-2.104-1.884-2.756-.477-.308-.975-.576-1.483-.824 2.209-.666 3.726-2.885 3.382-5.16-.169-1.114-.761-2.072-1.668-2.698-.104-.072-.22-.118-.329-.179-.002-.013-.001-.026-.003-.039-.169-1.114-.761-2.072-1.668-2.698-.941-.65-2.108-.866-3.279-.615-.514.11-1.022.25-1.523.418.168-.501.308-1.009.418-1.523.253-1.174.034-2.339-.615-3.279-.626-.907-1.584-1.499-2.701-1.669-.012-.002-.024-.001-.037-.003-.061-.109-.107-.225-.179-.328-.626-.907-1.584-1.499-2.699-1.668-2.271-.346-4.493 1.172-5.159 3.383-.248-.508-.516-1.006-.824-1.483-.652-1.009-1.631-1.678-2.756-1.884-1.085-.197-2.18.061-3.086.729-2.018 1.485-2.45 4.497-.945 6.577.944 1.304 1.768 2.726 2.446 4.225l.21.464c-4.05-.389-8.052 1.026-10.992 3.966-.711.711-1.346 1.503-1.887 2.355l-24.112 38.017c-.922 1.454-.715 3.318.502 4.534.708.709 1.636 1.075 2.575 1.075.673 0 1.352-.188 1.958-.573l38.022-24.111c.852-.54 1.644-1.175 2.359-1.891 2.936-2.936 4.349-6.936 3.96-10.988l.465.21c1.499.679 2.921 1.502 4.226 2.447.838.606 1.827.897 2.808.897 1.451 0 2.882-.64 3.769-1.844.668-.904.927-2.001.729-3.084zm-4.283-5.394c-.914.145-1.83.35-2.732.596-1.656-.318-3.378-.364-5.098-.106l-.163.025.202-.274c1.852-2.509 4.607-4.312 7.562-4.945.63-.137 1.241-.027 1.724.306.447.31.741.79.827 1.353.21 1.389-.875 2.812-2.322 3.045zm-2.229-7.621c.631-.137 1.242-.027 1.724.306.222.154.406.35.546.577-.229.013-.458.03-.689.079-3.474.745-6.582 2.774-8.751 5.713l-1.389 1.883-2.431.367 7.691-7.691c1.05-.572 2.159-.99 3.299-1.234zm-4.443-5.061c.05-.231.067-.46.08-.688.227.14.423.323.576.545.332.482.441 1.094.306 1.724-.246 1.143-.663 2.252-1.235 3.301l-7.689 7.689.367-2.431 1.883-1.389c2.938-2.169 4.967-5.277 5.712-8.751zm-6.659-.648c.232-1.447 1.662-2.528 3.045-2.322.563.086 1.044.38 1.354.827.332.482.441 1.094.306 1.724-.634 2.954-2.437 5.71-4.945 7.562l-.274.202.025-.163c.259-1.72.213-3.442-.106-5.099.245-.902.45-1.819.595-2.731zm-7.805 1.85c-.859-1.188-.621-2.961.511-3.795.36-.264.774-.403 1.194-.403.115 0 .231.011.347.032.576.105 1.086.461 1.436 1.002 1.641 2.537 2.314 5.761 1.85 8.844l-.547 3.627-2.142-4.733c-.735-1.623-1.627-3.161-2.649-4.574zm8.044 27.827c-.607.607-1.284 1.149-2.012 1.611l-38.022 24.111c-.656.417-1.498.322-2.048-.227-.55-.55-.644-1.392-.227-2.049l24.109-38.02c.463-.729 1.005-1.405 1.617-2.018 2.792-2.791 6.71-3.952 10.56-3.194l2.34 5.171c.051.112.126.206.209.29l-.005.005 1.209 1.209.003-.003c.084.084.179.157.292.207l5.172 2.34c.762 3.854-.401 7.771-3.197 10.567zm15.036-9.052c-.835 1.131-2.607 1.368-3.794.512-1.414-1.023-2.952-1.915-4.574-2.649l-4.733-2.142 3.627-.547c3.082-.467 6.308.209 8.844 1.85.541.35.896.859 1.002 1.436.097.534-.035 1.081-.372 1.54z"/><path d="m34.207 29.793c-2.068-2.068-3.207-4.818-3.207-7.743v-.05l-2 .05c0 3.459 1.347 6.711 3.793 9.157s5.698 3.793 9.207 3.793l-.05-2c-2.925 0-5.675-1.139-7.743-3.207z"/><path d="m28.535 35.121c-1.635-1.635-2.535-3.809-2.535-6.121h-2c0 2.847 1.108 5.522 3.121 7.535l.344.344c2.013 2.013 4.688 3.121 7.535 3.121v-2c-2.312 0-4.486-.9-6.121-2.535z"/><path d="m23.207 40.793c-1.423-1.424-2.207-3.315-2.207-5.328v-.465h-2v.465c0 2.547.992 4.941 2.793 6.742s4.195 2.793 6.742 2.793h.465v-2h-.465c-2.013 0-3.904-.784-5.328-2.207z"/><path d="m16.707 47.293c-.456-.456-.707-1.063-.707-1.707v-1.586h-2v1.586c0 1.179.459 2.287 1.293 3.121s1.942 1.293 3.121 1.293h1.586v-2h-1.586c-.644 0-1.251-.251-1.707-.707z"/></g></svg>