<svg id="Layer_1" enable-background="new 0 0 512 512" height="512" viewBox="0 0 512 512" width="512" xmlns="http://www.w3.org/2000/svg"><g><path d="m482.164 261.449c.124-.226.258-.444.371-.678 7.087-14.677 10.68-30.41 10.68-46.766 0-59.552-48.448-108.001-108-108.001s-108 48.449-108 108.001c0 16.459 3.809 32.747 11.038 47.468-7.063 14.351-11.038 30.483-11.038 47.529 0 16.44 3.811 32.763 11.036 47.474-7.061 14.349-11.036 30.48-11.036 47.524 0 59.552 48.448 108 108 108s108-48.448 108-108c0-17.042-3.974-33.171-11.034-47.52 7.233-14.725 11.034-31.003 11.034-47.479 0-17.054-3.98-33.196-11.051-47.552zm-172.781 65.73c-1.428-5.937-2.169-12.044-2.169-18.177 0-43.01 34.99-78 78-78s78 34.99 78 78c0 6.144-.739 12.248-2.166 18.18-19.515-19.268-46.308-31.182-75.833-31.182s-56.316 11.913-75.832 31.179zm75.832-191.175c43.01 0 78 34.991 78 78.001 0 6.208-.724 12.288-2.146 18.198-19.517-19.279-46.318-31.201-75.854-31.201-29.525 0-56.316 11.913-75.832 31.18-1.427-5.933-2.168-12.038-2.168-18.177 0-43.01 34.99-78.001 78-78.001zm0 345.996c-43.01 0-78-34.99-78-78s34.99-78 78-78 78 34.99 78 78-34.991 78-78 78z"/><path d="m186.07 67.197v-33.676c0-18.483-15.038-33.521-33.521-33.521h-37.043c-18.484 0-33.522 15.038-33.522 33.521v33.676c-14.923 9.76-26.92 23.864-34.38 41.259-26.574 61.98-35.305 139.732-23.956 213.324 12.564 81.468 48.586 147.971 101.43 187.257 2.656 1.976 5.803 2.963 8.949 2.963s6.293-.987 8.949-2.963c43.912-32.646 76.193-84.099 93.065-147.303.08-.277.16-.552.224-.831 3.331-12.598 6.063-25.651 8.141-39.123 11.35-73.592 2.618-151.345-23.956-213.324-7.46-17.395-19.457-31.499-34.38-41.259zm-74.086-33.676c0-1.909 1.612-3.521 3.521-3.521h37.043c1.909 0 3.521 1.612 3.521 3.521v20.964c-7.076-1.626-14.454-2.485-22.042-2.485s-14.966.859-22.043 2.485zm22.043 444.327c-41.613-35.31-70.118-91.841-80.729-160.641-2.584-16.757-4.015-33.914-4.333-51.1.716-.259 1.425-.557 2.114-.933 4.171-2.279 5.606-1.833 11.645.039 4.386 1.359 10.218 3.167 17.505 3.167 3.993 0 8.424-.543 13.291-2.001 7.936-2.377 12.442-10.737 10.065-18.673-2.377-7.937-10.732-12.442-18.673-10.065-4.992 1.493-7.945.579-13.306-1.083-5.437-1.685-12.811-3.964-21.959-2.37 2.496-40.808 11.191-80.466 25.53-113.91 10.277-23.968 32.278-38.278 58.85-38.278s48.573 14.31 58.851 38.278c4.111 9.588 7.746 19.696 10.917 30.186-3.417 1.11-6.527 2.526-9.116 3.708-10.808 4.935-17.385 7.452-26.878 1.888-7.149-4.19-16.338-1.791-20.526 5.354-4.189 7.146-1.792 16.337 5.354 20.526 9.196 5.391 17.78 7.292 25.523 7.291 11.969-.001 21.924-4.545 28.987-7.77 1.25-.571 2.725-1.244 4.05-1.801 9.096 43.87 10.566 92.171 3.568 137.546-1.219 7.905-2.686 15.64-4.37 23.208-6.015.276-11.415 1.896-16.198 3.332-9.415 2.826-17.547 5.269-32.402-.674-7.694-3.081-16.422.664-19.498 8.355-3.077 7.692.664 16.422 8.355 19.498 10.803 4.321 20.063 5.782 27.982 5.782 9.362 0 16.831-2.038 22.78-3.809-14.604 43.642-37.641 79.717-67.379 104.95z"/></g></svg>