<svg id="Layer_5" enable-background="new 0 0 64 64" height="512" viewBox="0 0 64 64" width="512" xmlns="http://www.w3.org/2000/svg"><g><path d="m60.57 38.201c.488-1.199.565-2.486.219-3.772-.247-.915-.717-1.738-1.335-2.425.978-1.092 1.546-2.519 1.546-4.004 0-2.166-1.158-4.136-3.003-5.198-.095-2.904-2.263-5.292-5.068-5.73-.449-2.869-2.936-5.072-5.929-5.072-1.914 0-3.679.912-4.8 2.432-1.124-.452-2.355-.549-3.516-.282-.782-2.433-3.047-4.15-5.684-4.15s-4.902 1.717-5.685 4.15c-1.668-.386-3.445-.01-4.815.98-1.016-.734-2.229-1.13-3.5-1.13-2.279 0-4.301 1.271-5.312 3.254-.554-.169-1.119-.254-1.688-.254-3.309 0-6 2.691-6 6 0 .255.02.513.061.781-1.884 1.051-3.061 3.018-3.061 5.219 0 1.279.405 2.496 1.144 3.513-.415.574-.744 1.215-.933 1.916-.347 1.286-.27 2.573.219 3.772-1.712 1.261-2.634 3.321-2.392 5.483.34 3.031 2.992 5.316 6.169 5.316h.431l.975.812c3.241 2.701 7.349 4.188 11.568 4.188h23.748c4.688 0 9.103-1.772 12.479-5h.386c3.177 0 5.829-2.285 6.169-5.315.241-2.163-.681-4.223-2.393-5.484zm-53.004-12.922.847-.327-.244-.875c-.115-.414-.169-.757-.169-1.077 0-2.206 1.794-4 4-4 .603 0 1.204.149 1.788.444l1.061.535.347-1.137c.517-1.7 2.045-2.842 3.804-2.842 1.051 0 2.045.408 2.8 1.149l.7.688.7-.688c1.155-1.135 2.908-1.481 4.443-.786l1.255.568.151-1.37c.224-2.03 1.923-3.561 3.951-3.561s3.727 1.531 3.95 3.562l.151 1.37 1.255-.568c1.214-.551 2.543-.47 3.696.224l.916.552.489-.952c.693-1.35 2.051-2.188 3.543-2.188 2.206 0 4 1.794 4 4v1h1c2.206 0 4 1.794 4 4 0 .038-.008.074-.013.11-.01.07-.019.14-.024.21l-.057.717.661.282c1.478.631 2.433 2.076 2.433 3.681 0 1.049-.416 2.014-1.128 2.753-.634-.351-1.326-.602-2.06-.699-2.869-.376-5.543 1.316-6.464 3.96-1.199-.074-2.337.269-3.438.986-.479-2.834-2.943-5-5.91-5-2.58 0-4.822 1.639-5.651 4.011-3.424-.204-6.349 2.565-6.349 5.989 0 .61.098 1.214.292 1.805-1.418.906-2.292 2.463-2.292 4.195 0 .48.041 1.038.128 1.626-1.525-.257-3.128-.739-3.128-1.626 0-1.732-.874-3.29-2.293-4.196.335-1.027.383-2.1.133-3.151-.294-1.235-1.065-2.395-2.172-3.265-1.278-1.007-2.605-1.46-4.016-1.375-.921-2.644-3.589-4.337-6.464-3.96-.946.125-1.829.492-2.594 1.026-.381-.621-.594-1.333-.594-2.079 0-1.659 1.007-3.12 2.566-3.721zm2.327 22.996-1.531-1.275h-1.155c-2.122 0-3.959-1.554-4.181-3.539-.188-1.662.661-3.233 2.161-4.003l.952-.489-.553-.917c-.404-.669-.809-1.751-.444-3.102.414-1.536 1.743-2.707 3.308-2.914 2.146-.274 4.104 1.152 4.478 3.265l.182 1.029 1.021-.227c.851-.19 1.912-.236 3.301.857.754.593 1.273 1.359 1.464 2.157.217.914.098 1.822-.354 2.7l-.511.991 1.041.4c1.17.45 1.928 1.546 1.928 2.792 0 2.596 3.027 3.397 5.639 3.723.021.059.045.116.067.174-8.337-.762-11.529-5.701-14.123-9.719-.944-1.463-1.836-2.845-2.877-3.886l-1.414 1.414c.891.891 1.727 2.186 2.611 3.556.524.812 1.085 1.68 1.716 2.556l-5.304-1.768-.633 1.897 8.393 2.798c2.7 2.711 6.561 4.964 12.76 5.217.009.012.018.024.028.036h-7.683c-3.751.002-7.406-1.321-10.287-3.723zm23.215 3.725c.29-1.63 1.184-3.82 2.301-6.082l5.907-1.969-.633-1.897-3.947 1.316c1.521-2.787 3.141-5.381 4.096-6.812l-1.664-1.109c-.163.244-2.107 3.176-4.057 6.724l-1.162-3.485-1.896.633 1.767 5.304c-1.29 2.573-2.39 5.218-2.718 7.253-3.038-.81-3.1-5.65-3.101-5.873 0-1.246.758-2.342 1.93-2.792l1.041-.4-.51-.991c-.307-.597-.462-1.208-.462-1.82 0-2.206 1.794-4 4-4 .275 0 .561.034.871.103l1.02.227.182-1.028c.338-1.914 1.99-3.302 3.927-3.302 2.206 0 4 1.794 4 4 0 .716-.197 1.406-.587 2.052l-.553.917.952.489c1.35.693 2.188 2.05 2.188 3.542 0 1.918-1.357 3.521-3.161 3.908-.346.032-.71.053-1.086.067-.188-.012-.377-.019-.563-.057l-1.234-.253.034 1.26c.002.042.005.083.011.126-.029 2.182-1.813 3.949-4.001 3.949zm27.866-8.538c-.222 1.984-2.059 3.538-4.181 3.538h-1.207l-.293.293c-3.035 3.035-7.071 4.707-11.364 4.707h-3.482c.746-.828 1.277-1.854 1.47-3h.083c.408 0 .807-.042 1.193-.12 4.086-.418 6.511-1.996 8.093-3.921l.031-.01c.028-.01 2.889-.949 6.683-.949v-2c-2.056 0-3.844.252-5.142.509.441-.873.8-1.746 1.127-2.555.553-1.371 1.031-2.555 1.723-3.247l-1.414-1.414c-.979.979-1.555 2.404-2.163 3.912-.314.777-.641 1.574-1.031 2.35l-1.17-2.927-1.857.743 1.705 4.263c-.623.763-1.397 1.447-2.393 1.998.389-.796.615-1.687.615-2.632 0-1.914-.912-3.679-2.433-4.8.034-.084.047-.174.077-.26.249-.361.557-.692.924-.982 1.391-1.093 2.45-1.047 3.302-.856l1.021.227.182-1.029c.374-2.113 2.336-3.538 4.478-3.265 1.564.207 2.894 1.377 3.308 2.914.364 1.351-.04 2.433-.444 3.102l-.553.917.952.489c1.498.771 2.347 2.342 2.16 4.005z"/><path d="m24 34v-2c-1.103 0-2-.897-2-2s.897-2 1.965-2l.907.066.25-.719c.28-.805 1.035-1.347 1.878-1.347.684 0 1.313.35 1.685.935l.509.804.828-.469c.317-.179.646-.27.978-.27 1.103 0 2 .897 2 2h2c0-2.206-1.794-4-4-4-.398 0-.789.061-1.169.181-.742-.751-1.752-1.181-2.831-1.181-1.448 0-2.766.791-3.467 2.027-1.986.232-3.533 1.925-3.533 3.973 0 2.206 1.794 4 4 4z"/><path d="m37 20.982c.332 0 .661.091.979.27l.828.469.509-.804c.371-.585 1.001-.935 1.685-.935.842 0 1.597.542 1.878 1.348l.249.712.753-.043.119-.017c1.103 0 2 .897 2 2h2c0-2.048-1.547-3.741-3.534-3.973-.701-1.236-2.019-2.027-3.466-2.027-1.079 0-2.089.43-2.831 1.181-.38-.121-.771-.181-1.169-.181-2.206 0-4 1.794-4 4h2c0-1.103.897-2 2-2z"/><path d="m45 25c-1.654 0-3 1.346-3 3h2c0-.551.448-1 1-1s1 .449 1 1v1h1c.552 0 1 .449 1 1h2c0-1.352-.898-2.497-2.129-2.871-.374-1.231-1.519-2.129-2.871-2.129z"/><path d="m12 27h1v-1c0-.551.448-1 1-1s1 .449 1 1h2c0-1.654-1.346-3-3-3-1.352 0-2.497.898-2.871 2.129-1.231.374-2.129 1.519-2.129 2.871h2c0-.551.448-1 1-1z"/></g></svg>