<?xml version="1.0" encoding="iso-8859-1"?>
<!-- Generator: Adobe Illustrator 19.0.0, SVG Export Plug-In . SVG Version: 6.00 Build 0)  -->
<svg version="1.1" id="Capa_1" xmlns="http://www.w3.org/2000/svg" xmlns:xlink="http://www.w3.org/1999/xlink" x="0px" y="0px"
	 viewBox="0 0 512 512" style="enable-background:new 0 0 512 512;" xml:space="preserve">
<g>
	<g>
		<path d="M452,351.937c-5.52,0-10,4.48-10,10c0,5.52,4.48,10,10,10c5.52,0,10-4.48,10-10C462,356.417,457.52,351.937,452,351.937z"
			/>
	</g>
</g>
<g>
	<g>
		<path d="M186,351.937c-5.52,0-10,4.48-10,10c0,5.52,4.48,10,10,10s10-4.48,10-10C196,356.417,191.52,351.937,186,351.937z"/>
	</g>
</g>
<g>
	<g>
		<path d="M191.449,391.666c-5.499-0.347-10.259,3.85-10.6,9.361c-1.546,24.917-22.772,46.806-49.377,50.916
			c-5.457,0.845-9.198,5.953-8.355,11.411c0.845,5.468,5.964,9.198,11.41,8.355c35.674-5.512,64.17-35.366,66.283-69.443
			C201.152,396.753,196.96,392.008,191.449,391.666z"/>
	</g>
</g>
<g>
	<g>
		<path d="M457.294,391.687c-5.522-0.355-10.26,3.845-10.604,9.356c-1.552,24.84-22.721,46.711-49.24,50.875
			c-5.456,0.856-9.185,5.974-8.328,11.43c0.865,5.509,6.036,9.182,11.43,8.328c35.561-5.583,63.977-35.412,66.1-69.385
			C466.995,396.779,462.806,392.032,457.294,391.687z"/>
	</g>
</g>
<g>
	<g>
		<path d="M475.371,305.866c-15.848-10.688-28.773-15.169-40.7-14.106c-11.129,0.992-18.944,6.608-25.84,11.563
			c-5.598,4.023-10.219,7.331-16.164,8.311C313.328,253.185,266,123.091,266,29.937c0-5.522-4.478-10-10-10c-5.522,0-10,4.478-10,10
			c0,12.697-0.887,26.085-2.606,39.882c-9.751-18.293-25.463-40.123-49.195-53.822c0-0.001,0-0.001,0-0.001
			C148.111-10.608,91.111,3.994,88.707,4.628c-2.576,0.681-4.774,2.36-6.107,4.668c-1.332,2.308-1.688,5.052-0.99,7.624
			c0.652,2.399,16.502,59.073,62.592,85.678c22.241,12.838,47.028,16.221,66.982,16.221c8.984,0,16.982-0.687,23.333-1.504
			c-18.534,75.01-58.763,152.831-115.176,194.32c-13.705-2.254-22.199-18.109-42.012-19.875c-11.925-1.067-24.852,3.419-40.7,14.106
			C13.351,321.564,0,352.936,0,391.937c0,67.664,54.42,120,123,120c68.763,0,123-52.505,123-120
			c0-39.001-13.351-70.373-36.629-86.071c-15.237-10.275-27.774-14.798-39.313-14.189c42.587-48.697,71.83-115.976,85.945-178.407
			c14.154,62.546,43.441,129.757,85.98,178.409c-11.548-0.626-24.098,3.9-39.354,14.187C279.351,321.564,266,352.936,266,391.937
			c0,67.664,54.42,120,123,120c68.763,0,123-52.505,123-120C512,352.936,498.649,321.564,475.371,305.866z M154.199,85.276
			c-28.116-16.229-43.379-47.267-49.716-63.359c17.08-2.579,51.491-4.893,79.718,11.401v-0.001
			c28.12,16.232,43.382,47.608,49.715,63.875C216.788,99.597,182.414,101.564,154.199,85.276z M198.189,322.448
			C223.29,339.375,226,376.683,226,391.937c0,57.008-45.937,100-103,100c-57.164,0-103-43.109-103-100
			c0-15.254,2.71-52.562,27.811-69.489c11.681-7.877,19.526-10.785,25.775-10.785c15.505,0,24.273,20.274,49.414,20.274
			c14.283,0,23.831-6.86,31.503-12.373C165.993,311.308,173.582,305.854,198.189,322.448z M389,491.937
			c-57.164,0-103-43.109-103-100c0-15.254,2.71-52.562,27.811-69.489c11.681-7.877,19.526-10.785,25.775-10.785
			c6.916,0,11.876,3.564,17.911,7.901c7.672,5.513,17.22,12.373,31.503,12.373c14.283,0,23.831-6.86,31.503-12.373
			c11.49-8.256,19.079-13.71,43.687,2.884c25.1,16.927,27.81,54.235,27.81,69.489C492,448.945,446.063,491.937,389,491.937z"/>
	</g>
</g>
<g>
</g>
<g>
</g>
<g>
</g>
<g>
</g>
<g>
</g>
<g>
</g>
<g>
</g>
<g>
</g>
<g>
</g>
<g>
</g>
<g>
</g>
<g>
</g>
<g>
</g>
<g>
</g>
<g>
</g>
</svg>
