<svg id="Capa_1" enable-background="new 0 0 510.013 510.013" height="512" viewBox="0 0 510.013 510.013" width="512" xmlns="http://www.w3.org/2000/svg"><g><path d="m429.582 55.232c-16.917-12.345-37.269-17.381-57.418-14.52-23.142-42.165-79.195-53.732-117.158-24.493-37.939-29.22-93.995-17.709-117.158 24.492-20.147-2.861-40.496 2.171-57.406 14.51-55.933 40.814-35.548 128.131 31.138 141.29l24.43 195.467c.518 65.177 53.7 118.035 118.996 118.035 65.376 0 118.609-52.988 118.998-118.274l18.215-194.245c70.388-8.255 95.73-99.674 37.363-142.262zm-49.945 112.662-14.673-1.09c-21.908 233.63-20.959 223.114-20.959 224.209 0 31.833-16.802 59.81-42 75.544v-209.11l39.23-117.691-28.461-9.486-40.77 122.309v225.799c-11.027 2.142-22.571 2.22-34 0v-291.824l38.417-76.833-26.833-13.416-28.039 56.078-25.825-41.32-25.44 15.9 37.72 60.352v279.242c-25.022-15.624-42-43.199-42-76.478l-27.708-221.694-12.831-.396c-47.055-1.447-64.548-61.385-27.341-88.534 12.829-9.362 28.803-11.935 43.814-7.127l13.952 4.47 4.797-13.844c12.273-35.418 58.265-44.437 83.075-16.352l11.242 12.729 11.242-12.729c24.817-28.094 70.806-19.054 83.075 16.352l4.797 13.844 13.953-4.47c31.456-10.076 63.934 13.352 63.934 46.685 0 28.717-24.483 50.974-52.368 48.881z"/></g></svg>