<svg id="no-cookie" enable-background="new 0 0 300 300" height="512" viewBox="0 0 300 300" width="512" xmlns="http://www.w3.org/2000/svg"><g><path d="m210.301 156.693c-2.164-.271-4.18 1.312-4.438 3.506-1.035 8.809-4.172 17.375-9.078 24.771-1.223 1.842-.719 4.322 1.121 5.545.68.451 1.449.666 2.207.666 1.297 0 2.566-.629 3.336-1.789 5.598-8.438 9.18-18.211 10.359-28.26.258-2.194-1.312-4.181-3.507-4.439z"/><path d="m154.672 119.781-8 12c-1.227 1.838-.73 4.322 1.109 5.547.684.455 1.453.672 2.215.672 1.293 0 2.562-.625 3.332-1.781l8-12c1.227-1.838.73-4.322-1.109-5.547-1.848-1.231-4.324-.729-5.547 1.109z"/><path d="m81.996 150c1.293 0 2.562-.625 3.332-1.781l8-12c1.227-1.838.73-4.322-1.109-5.547-1.848-1.229-4.324-.73-5.547 1.109l-8 12c-1.227 1.838-.73 4.322 1.109 5.547.684.455 1.453.672 2.215.672z"/><path d="m148.219 82.672c-1.844-1.23-4.328-.73-5.547 1.109l-8 12c-1.227 1.838-.73 4.322 1.109 5.547.684.455 1.453.672 2.215.672 1.293 0 2.562-.625 3.332-1.781l8-12c1.227-1.838.731-4.323-1.109-5.547z"/><path d="m116.062 99.984c-1.496-1.627-4.031-1.725-5.652-.234-1.629 1.496-1.73 4.025-.238 5.652l9.766 10.613c.789.857 1.867 1.291 2.945 1.291.969 0 1.941-.35 2.707-1.057 1.629-1.496 1.73-4.025.238-5.652z"/><path d="m147.938 184.016c.789.857 1.867 1.291 2.945 1.291.969 0 1.941-.35 2.707-1.057 1.629-1.496 1.73-4.025.238-5.652l-6.723-7.307c-1.496-1.625-4.035-1.725-5.652-.234-1.629 1.496-1.73 4.025-.238 5.652z"/><path d="m184.062 95.984c-1.496-1.623-4.031-1.729-5.652-.234-1.629 1.496-1.73 4.025-.238 5.652l9.766 10.613c.789.857 1.867 1.291 2.945 1.291.969 0 1.941-.35 2.707-1.057 1.629-1.496 1.73-4.025.238-5.652z"/><path d="m270 150c0-66.168-53.832-120-120-120s-120 53.832-120 120 53.832 120 120 120 120-53.832 120-120zm-120-112c61.758 0 112 50.242 112 112 0 31.474-13.069 59.938-34.042 80.304l-23.557-23.557c13.342-13.818 21.599-32.579 21.599-53.259 0-9.362-1.752-18.425-5.013-27.061h1.419c1.344 0 2.594-.674 3.336-1.793s.871-2.535.344-3.771c-13.125-30.898-43.297-50.863-76.863-50.863-22.529 0-42.966 9.01-58.001 23.566l-21.525-21.525c20.366-20.973 48.829-34.041 80.303-34.041zm54.844 80.428c-5.98 0-10.844 4.865-10.844 10.844 0 7.018-5.711 12.729-12.727 12.729-10.628-.001-19.273 8.644-19.273 19.27v3.073l-65.124-65.124c13.585-13.108 32.022-21.22 52.347-21.22 28.285 0 53.906 15.68 66.867 40.428zm-72.585 27.488 29.741 29.741v8.343c0 7.719-6.281 14-14 14s-14-6.281-14-14v-30c0-2.881-.639-5.606-1.741-8.084zm-10.175-10.175c-2.477-1.102-5.203-1.741-8.084-1.741-11.027 0-20 8.973-20 20 0 8.822-7.176 16-16 16h-2.363c-1.262-5.566-1.902-11.107-1.902-16.512 0-18.426 6.656-35.314 17.663-48.434zm-20.084 18.259c0-6.617 5.383-12 12-12s12 5.383 12 12v30c0 12.131 9.871 22 22 22s22-9.869 22-22v-.343l22.91 22.911c-11.888 9.802-27.111 15.698-43.688 15.698-29.112 0-54.705-18.079-64.581-45.221 10.011-2.89 17.359-12.117 17.359-23.045zm68 18.345v-11.073c0-6.215 5.059-11.271 11.273-11.271 11.43 0 20.727-9.299 20.727-20.729 0-1.568 1.277-2.844 2.844-2.844h7.584c3.672 8.559 5.572 17.65 5.572 27.061 0 18.474-7.359 35.235-19.252 47.604zm-132-22.345c0-27.409 9.912-52.537 26.32-72.024l21.424 21.424c-12.447 14.585-20.009 33.457-20.009 54.088 0 7.059.977 14.307 2.906 21.541.465 1.752 2.051 2.971 3.863 2.971h3.976c10.532 31.298 39.609 52.266 72.743 52.266 18.781 0 35.988-6.801 49.345-18.04l23.456 23.456c-19.488 16.406-44.615 26.318-72.024 26.318-61.758 0-112-50.242-112-112z"/><path d="m248 242c-7.719 0-14 6.281-14 14s6.281 14 14 14 14-6.281 14-14-6.281-14-14-14zm0 20c-3.309 0-6-2.691-6-6s2.691-6 6-6 6 2.691 6 6-2.691 6-6 6z"/><path d="m81.937 208.134c-2.362 0-4.276 1.915-4.276 4.276s1.915 4.276 4.276 4.276 4.277-1.915 4.277-4.276-1.915-4.276-4.277-4.276z"/><path d="m237.937 172.687c2.362 0 4.277-1.915 4.277-4.276s-1.915-4.276-4.277-4.276-4.276 1.915-4.276 4.276 1.914 4.276 4.276 4.276z"/><path d="m241.937 60.687c2.362 0 4.277-1.915 4.277-4.276s-1.915-4.276-4.277-4.276-4.276 1.915-4.276 4.276 1.914 4.276 4.276 4.276z"/><path d="m189.937 228.134c-2.362 0-4.276 1.915-4.276 4.276s1.915 4.276 4.276 4.276 4.277-1.915 4.277-4.276-1.915-4.276-4.277-4.276z"/><path d="m161.937 56.687c2.362 0 4.277-1.915 4.277-4.276s-1.915-4.276-4.277-4.276-4.276 1.915-4.276 4.276 1.914 4.276 4.276 4.276z"/></g></svg>