<svg height="512pt" viewBox="0 -66 512 512" width="512pt" xmlns="http://www.w3.org/2000/svg"><path d="m512 150c0-16.542969-13.457031-30-30-30h-21.917969c-18.304687-17.789062-38.769531-33.058594-61.011719-45.507812 4.3125-6.972657 5.882813-13.238282 4.894532-19.335938-1.714844-10.597656-10.417969-16.277344-18.09375-21.285156-2.78125-1.816406-5.40625-3.527344-7.664063-5.398438-1.910156-1.582031-4.644531-4.964844-7.285156-8.242187-7.289063-9.035157-16.316406-20.230469-28.527344-20.230469-.285156 0-.578125.0078125-.867187.0195312-12.863282.5546878-21.960938 8.0507808-24.332032 20.0507808-1.394531 7.066407-.308593 15.515626 2.554688 24.113282-20.902344-4.664063-42.261719-7.023438-63.75-7.023438-26.964844 0-53.75 3.726563-79.691406 11.0625-3.085938-1.589844-6.246094-2.992187-9.207032-4.304687-3.847656-1.703125-7.824218-3.464844-9.847656-4.902344-2.390625-1.695313-4.722656-3.789063-7.195312-6.003906-6.824219-6.121094-14.566406-13.0625-25.246094-11.972657-7.910156.804688-14.980469 5.75-22.25 15.566407-9.433594 12.734375-9.050781 26.988281 1.050781 39.101562.777344.933594 1.609375 1.84375 2.492188 2.734375-19.625 11.6875-37.789063 25.617188-54.191407 41.558594h-21.914062c-16.542969 0-30 13.457031-30 30 0 13.09375 8.4375 24.25 20.15625 28.332031 2.285156 60.96875 29.542969 117.730469 73.953125 158.550781.308594.328126.640625.636719.992187.917969 18.511719 16.816407 39.960938 30.882813 63.789063 41.355469 1.269531.554688 2.640625.84375 4.023437.84375h186.171876c1.382812 0 2.753906-.289062 4.023437-.84375 81.761719-35.929688 135.484375-114.132812 138.734375-200.824219 11.71875-4.082031 20.15625-15.238281 20.15625-28.332031zm-175.183594-126.054688c.445313-2.257812 1.074219-3.75 5.527344-3.945312 2.917969.273438 9.734375 8.726562 13.011719 12.785156 3.414062 4.234375 6.636719 8.230469 10.097656 11.09375 3.132813 2.59375 6.507813 4.796875 9.488281 6.738282 3.574219 2.335937 8.980469 5.863281 9.28125 7.738281.046875.285156.292969 2.976562-5.1875 9.878906-4.074218 5.125-8.128906 6.109375-13.992187 3.398437-6.589844-3.050781-12.960938-9.558593-18-17.03125-.269531-.496093-.582031-.964843-.933594-1.410156-6.644531-10.347656-10.683594-22.203125-9.292969-29.246094zm-218.183594 24.5625c.003907 0 .003907 0 0 0 5.246094-7.082031 7.914063-7.542968 8.203126-7.570312.039062-.003906.082031-.007812.125-.007812 1.972656 0 6.636718 4.183593 9.75 6.972656 2.648437 2.375 5.648437 5.066406 8.964843 7.421875 3.660157 2.601562 8.355469 4.679687 13.328125 6.882812 2.871094 1.269531 7.601563 3.371094 11.140625 5.429688.09375.054687.1875.113281.285157.164062 2.203124 1.304688 3.894531 2.585938 4.28125 3.621094.976562 4.394531-.304688 5.386719-2.371094 6.402344-8.671875 4.261719-28.308594 1.273437-42.242188-6.292969-.550781-.386719-1.128906-.71875-1.738281-.988281-3.75-2.21875-7-4.785157-9.386719-7.640625-4.136718-4.960938-4.234375-9.132813-.339844-14.394532zm5.8125 42.46875c11.5625 5.503907 25.039063 8.703126 37.003907 8.703126 7.425781-.003907 14.273437-1.234376 19.714843-3.90625 10.976563-5.398438 15.863282-16.121094 13.070313-28.691407-.207031-.914062-.472656-1.792969-.792969-2.644531 20.492188-4.828125 41.46875-7.277344 62.558594-7.277344 25.789062 0 51.375 3.652344 76.117188 10.839844 6.917968 9.582031 15.527343 17.621094 24.53125 21.785156 4.839843 2.238282 9.625 3.339844 14.222656 3.339844 4.878906 0 9.542968-1.25 13.832031-3.691406 16.183594 8.652344 31.398437 18.886718 45.476563 30.566406h-348.371094c13.25-10.988281 27.511718-20.703125 42.636718-29.023438zm222.515626 269.023438h-181.921876c-12.492187-5.632812-24.25-12.351562-35.1875-20.003906h26.492188c5.519531 0 10-4.476563 10-10 0-5.519532-4.480469-10-10-10h-51.027344c-38.585937-36.535156-62.410156-86.421875-65.0625-139.996094h431.492188c-3.832032 77.421875-51.882813 147.136719-124.785156 180zm135.039062-200h-452c-5.515625 0-10-4.484375-10-10 0-5.511719 4.484375-10 10-10h452c5.515625 0 10 4.488281 10 10 0 5.515625-4.484375 10-10 10zm0 0"/><path d="m230.945312 81.101562h-.007812c-5.519531 0-9.996094 4.476563-9.996094 10 0 5.523438 4.484375 10 10.003906 10 5.523438 0 10-4.476562 10-10 0-5.523437-4.476562-10-10-10zm0 0"/><path d="m308.945312 75.101562h-.007812c-5.519531 0-9.996094 4.476563-9.996094 10 0 5.519532 4.480469 10 10.003906 10 5.523438 0 10-4.480468 10-10 0-5.523437-4.476562-10-10-10zm0 0"/><path d="m432 200h-54.996094c-5.523437 0-10 4.480469-10 10 0 5.523438 4.476563 10 10 10h54.996094c5.519531 0 10-4.476562 10-10 0-5.519531-4.480469-10-10-10zm0 0"/><path d="m332.007812 200h-.007812c-5.523438 0-9.996094 4.480469-9.996094 10 0 5.523438 4.480469 10 10.003906 10 5.523438 0 10-4.476562 10-10 0-5.519531-4.480468-10-10-10zm0 0"/><path d="m201.339844 320c-5.523438 0-10 4.476562-10 10 0 5.519531 4.476562 10 10 10h.007812c5.523438 0 9.996094-4.480469 9.996094-10 0-5.523438-4.480469-10-10.003906-10zm0 0"/></svg>