<svg id="Capa_1" enable-background="new 0 0 512.034 512.034" height="512" viewBox="0 0 512.034 512.034" width="512" xmlns="http://www.w3.org/2000/svg"><g><path d="m339.619 98.431c3.27-2.543 3.857-7.256 1.313-10.525-2.544-3.27-7.255-3.856-10.524-1.314-16.231 12.629-25.922 34.534-25.922 58.596 0 24.457 10.416 47.274 27.183 59.548 3.362 2.462 8.051 1.699 10.481-1.622 2.446-3.342 1.721-8.035-1.622-10.482-12.979-9.501-21.042-27.681-21.042-47.444 0-19.179 7.715-37.095 20.133-46.757z"/><path d="m264.204 338.896c1.199 2.883 3.988 4.622 6.928 4.622 5.326 0 8.979-5.437 6.922-10.382-6.078-14.618-3.848-34.104 5.822-50.853 9.702-16.804 25.509-28.485 41.251-30.485 4.109-.522 7.017-4.277 6.495-8.386-.522-4.11-4.283-7.014-8.386-6.495-43.798 5.566-75.995 61.191-59.032 101.979z"/><path d="m145.098 429.023c3.689 0 6.906-2.725 7.421-6.483 2.138-15.606 13.8-31.267 30.436-40.871 17.094-9.869 36.852-11.984 51.565-5.518 3.792 1.668 8.217-.057 9.884-3.849 1.666-3.792-.057-8.217-3.849-9.884-19.006-8.352-43.95-5.953-65.101 6.26-20.872 12.05-35.002 31.424-37.797 51.825-.618 4.516 2.893 8.52 7.441 8.52z"/><path d="m415.794 233.003c20.802-21.597 32.732-53.604 32.732-87.815 0-54.898-29.521-95.691-63.545-108.579-7.594-2.876-13.955-7.887-18.397-14.49-2.822-4.196-5.788-8.368-8.813-12.399-14.467-19.275-45.151-7.796-43.25 16.182l.059.745c.854 11.019-3.313 22.145-11.431 30.523-34.446 35.555-41.612 95.255-22.676 140.905 2.049 4.942.526 10.57-3.703 13.687-31.269 23.042-53.195 60.971-57.52 99.628-.585 5.221-4.697 9.354-10.002 10.049-23.637 3.1-48.514 13.349-69.453 30.262-3.222 2.603-3.725 7.325-1.121 10.547 2.601 3.221 7.322 3.724 10.547 1.122 18.317-14.796 40.471-24.238 61.979-27.058 12.163-1.596 21.604-11.158 22.957-23.254 3.856-34.459 23.564-68.626 51.512-89.221 9.798-7.22 13.359-20.176 8.66-31.509-16.741-40.361-10.511-93.647 19.594-124.722 10.79-11.137 16.878-26.19 15.551-42.898-.131-1.654.112-3.029.567-4.168 17.957 38.85 27.983 81.733 27.983 127.988 0 158.38-121.281 290.282-277.688 304.542.755-.94 1.811-1.816 3.275-2.513 15.227-7.265 25.149-20.092 29.374-34.917 2.615-9.177 6.89-18.202 12.704-26.826 2.316-3.435 1.41-8.096-2.024-10.412-3.434-2.315-8.096-1.409-10.411 2.025-6.701 9.937-11.646 20.401-14.694 31.102-3.197 11.22-10.749 20.39-20.721 25.162l-.68.324c-9.852 4.692-15.076 14.687-13.312 25.466 1.751 10.7 10.157 18.776 20.93 20.077 5.006.605 10.102 1.087 15.146 1.434 7.94.545 15.46 3.549 21.746 8.687 28.21 23.051 78.342 28.146 125.806.743 29.627-17.105 51.381-43.44 59.684-72.254 1.327-4.607 4.946-7.464 9.144-8.339 14.391-3.001 28.966-9.559 42.149-18.964 3.372-2.405 4.155-7.089 1.75-10.461s-7.088-4.156-10.461-1.75c-11.506 8.208-24.128 13.911-36.5 16.491-9.482 1.976-17.579 8.746-20.496 18.87-7.238 25.12-26.472 48.234-52.77 63.417-37.809 21.83-82.555 22.089-108.813.633-8.706-7.115-19.152-11.277-30.21-12.037-4.062-.279-12.808-1.076-14.932-1.443 20.77-2.175 40.929-6.329 60.295-12.266 7.837 10.369 19.969 17.066 34.738 19.053 33.294 4.479 70.003-16.661 82.964-47.583 5.62-13.41 6.122-26.951 1.549-38.765 8.314-7.421 16.237-15.266 23.736-23.501 5.575 2.305 11.552 3.461 17.737 3.461 39.885 0 75.236-45.272 69.542-87.604-1.959-14.568-8.504-26.571-18.677-34.441 3.375-10.572 6.216-21.376 8.491-32.379 12.522-1.935 24.001-9.132 32.807-20.706 12.914-16.973 17.511-40.114 14.053-61.472-.66-4.089-4.51-6.868-8.601-6.207-4.089.661-6.868 4.512-6.206 8.601.598 3.701.905 7.519.912 11.347.04 25.068-12.794 46.363-30.061 52.311 5.336-34.709 4.911-70.563-1.081-104.809 6.558 2.021 12.692 6.289 17.818 12.501 1.483 1.797 3.628 2.727 5.789 2.727 6.245 0 9.855-7.336 5.781-12.273-8.934-10.826-20.354-17.417-32.614-18.948-4.554-19.906-11.037-39.329-19.424-58.175.744.931 4.714 6.298 8.572 12.033 6.186 9.196 15.014 16.162 25.529 20.146 31.711 12.011 53.858 50.893 53.858 94.552 0 30.366-10.4 58.581-28.535 77.408-7.288 7.566-9.129 17.972-6.095 27.185 11.822 35.917-.566 78.921-25.104 109.133-3.994 4.915-.435 12.229 5.816 12.229 2.182 0 4.345-.947 5.826-2.771 28.076-34.569 40.985-82.947 27.71-123.28-1.336-4.06-.686-8.626 2.649-12.089zm-192.954 217.752c-12.774 7.375-26.902 10.482-39.79 8.75-8.614-1.158-15.906-4.408-21.256-9.371 33.384-12.143 64.14-29.668 91.253-51.497 3.423 17.898-8.578 39.63-30.207 52.118zm138.872-168.376c3.586 26.668-13.952 57.038-38.835 67.263-7.973 3.277-15.852 4.123-22.911 2.559 22.201-26.993 40.071-57.644 52.58-90.858 4.846 5.329 8.023 12.54 9.166 21.036z"/></g></svg>