<?xml version="1.0" encoding="iso-8859-1"?>
<!-- Generator: Adobe Illustrator 19.0.0, SVG Export Plug-In . SVG Version: 6.00 Build 0)  -->
<svg version="1.1" id="Capa_1" xmlns="http://www.w3.org/2000/svg" xmlns:xlink="http://www.w3.org/1999/xlink" x="0px" y="0px"
	 viewBox="0 0 512 512" style="enable-background:new 0 0 512 512;" xml:space="preserve">
<g>
	<g>
		<path d="M256,0C116.513,0,0,116.141,0,256c0,67.468,26.88,131.504,75.688,180.312C124.496,485.12,188.532,512,256,512
			c139.487,0,256-116.141,256-256C512,116.519,395.866,0,256,0z M256,482c-59.455,0-115.957-23.759-159.099-66.901
			C11.255,329.453,7.845,197.225,86.639,107.852l56.567,56.567C129.166,175.797,121,192.69,121,211
			c0,23.983,14.046,44.694,34.419,54.307l87.118,177.308c5.484,11.159,21.441,11.161,26.926,0l50.058-101.881l84.628,84.628
			C362.608,461.985,310.551,482,256,482z M288.573,189.787c5.857,5.858,15.355,5.858,21.213,0c5.667-5.666,13.2-8.787,21.213-8.787
			c16.614,0,30,13.451,30,30c0,16.581-13.417,30-30,30h-68.787l-80.971-80.971C184.242,121.571,216.344,91,256,91
			c36.832,0,66.7,26.258,73.497,60.037c-15.462,0.378-29.946,6.56-40.923,17.537C282.716,174.431,282.716,183.929,288.573,189.787z
			 M292.213,271h28.145l-9.273,18.872L292.213,271z M297.107,318.321L256,401.985L191.642,271h58.145L297.107,318.321z M219.787,241
			H181c-16.581,0-30-13.417-30-30c0-10.293,5.16-19.606,13.646-25.141L219.787,241z M425.361,404.148l-91.863-91.863l23.082-46.979
			C376.441,255.936,391,235.53,391,211c0-22.437-12.202-41.769-30.238-52.108C357.179,104.599,312.063,61,256,61
			c-47.921,0-87.183,31.763-100.237,73.55l-47.912-47.912C149.392,50.015,201.449,30,256,30c59.455,0,115.957,23.759,159.099,66.901
			C500.745,182.547,504.154,314.775,425.361,404.148z"/>
	</g>
</g>
<g>
</g>
<g>
</g>
<g>
</g>
<g>
</g>
<g>
</g>
<g>
</g>
<g>
</g>
<g>
</g>
<g>
</g>
<g>
</g>
<g>
</g>
<g>
</g>
<g>
</g>
<g>
</g>
<g>
</g>
</svg>
