<?xml version="1.0" encoding="iso-8859-1"?>
<!-- Generator: Adobe Illustrator 19.0.0, SVG Export Plug-In . SVG Version: 6.00 Build 0)  -->
<svg version="1.1" id="Layer_1" xmlns="http://www.w3.org/2000/svg" xmlns:xlink="http://www.w3.org/1999/xlink" x="0px" y="0px"
	 viewBox="0 0 512 512" style="enable-background:new 0 0 512 512;" xml:space="preserve">
<g>
	<g>
		<path d="M398.271,265.763V142.27C398.271,63.822,334.448,0,256,0S113.729,63.822,113.729,142.27v123.492
			c-7.948,6.209-9.574,17.645-3.554,25.819c6.13,8.323,17.843,10.097,26.161,3.97l54.707-40.288
			c4.758-3.504,7.581-9.051,7.615-14.96v-65.274c0.022-2.089,1.727-3.766,3.815-3.753c2.088,0.012,3.773,1.707,3.773,3.794
			l0.009,314.477c0,12.399,10.052,22.452,22.452,22.452c12.399,0,22.452-10.052,22.452-22.452V310.089h9.694v179.459
			c0,12.399,10.052,22.452,22.452,22.452c12.399,0,22.452-10.051,22.452-22.452c0-297.086,0-126.72,0-314.819
			c0-2.096,1.699-3.796,3.796-3.797c2.096-0.001,3.797,1.699,3.797,3.796c0,0.102-0.001,0.207-0.004,0.314v65.263
			c0.033,5.909,2.856,11.456,7.615,14.96l54.707,40.288c8.323,6.13,20.034,4.348,26.161-3.97
			C407.845,283.408,406.218,271.972,398.271,265.763z M375.247,248.774l-24.696-18.072v-55.86h0.001
			c-0.122-24.291-20.142-44.054-44.434-44.054c-12.432,0-87.728,0-100.235,0c-24.292,0-44.312,19.762-44.434,44.043v55.871
			l-24.696,18.072V142.27c0-65.754,53.494-119.248,119.248-119.248S375.247,76.516,375.247,142.27V248.774z"/>
	</g>
</g>
<g>
	<g>
		<circle cx="255.999" cy="79.651" r="38.776"/>
	</g>
</g>
<g>
</g>
<g>
</g>
<g>
</g>
<g>
</g>
<g>
</g>
<g>
</g>
<g>
</g>
<g>
</g>
<g>
</g>
<g>
</g>
<g>
</g>
<g>
</g>
<g>
</g>
<g>
</g>
<g>
</g>
</svg>
