<svg id="Layer_3" enable-background="new 0 0 64 64" height="512" viewBox="0 0 64 64" width="512" xmlns="http://www.w3.org/2000/svg"><g><path d="m62.99 16c0-.238-.075-.473-.237-.659l-6.753-7.717v-3.624c0-1.654-1.346-3-3-3h-18c-1.654 0-3 1.346-3 3v3.624l-6.753 7.717c-.164.188-.248.425-.247.665v45.994c0 .552.447 1 1 1h22c.14 0 .273-.029.393-.081l6.607-2.831 6.606 2.831c.126.054.26.081.394.081.192 0 .385-.056.551-.165.28-.185.449-.499.449-.835v-46zm-35.99 29.431c1.616-.693 3.587-.492 5 .569l.8.599c1.203.903 2.694 1.4 4.2 1.4s2.997-.498 4.199-1.4l.802-.6c1.41-1.06 3.383-1.262 4.999-.569v3.892c-2.09-.601-4.454-.234-6.199 1.077l-.802.601c-1.717 1.29-4.28 1.291-5.999 0l-.8-.6c-1.748-1.311-4.111-1.678-6.2-1.077zm34 11.053-5.606-2.403c-.25-.108-.537-.108-.787 0l-5.607 2.403v-39.484h12zm-1.204-41.484h-9.592l4.796-5.481zm-25.796-11c0-.551.448-1 1-1h18c.552 0 1 .449 1 1v3h-20zm-.546 5h19.342l-5.25 6h-19.342zm13.546 8v26.323c-2.09-.6-4.454-.235-6.199 1.077l-.802.6c-1.717 1.29-4.28 1.291-5.999 0l-.8-.6c-1.748-1.312-4.111-1.678-6.2-1.077v-26.323zm-20 44v-9.569c1.616-.692 3.587-.491 5 .569l.8.599c1.203.903 2.694 1.4 4.2 1.4s2.997-.498 4.199-1.4l.802-.6c1.41-1.06 3.383-1.262 4.999-.569v9.57zm28.394-2.919c-.25-.108-.537-.108-.787 0l-5.607 2.403v-1.825l6-2.571 6 2.571v1.824z"/><path d="m32 31h10c1.654 0 3-1.346 3-3v-6c0-1.654-1.346-3-3-3h-10c-1.654 0-3 1.346-3 3v6c0 1.654 1.346 3 3 3zm-1-9c0-.551.448-1 1-1h10c.552 0 1 .449 1 1v6c0 .551-.448 1-1 1h-10c-.552 0-1-.449-1-1z"/><path d="m21 23h-18c-1.103 0-2 .897-2 2v35c0 1.654 1.346 3 3 3h16c1.654 0 3-1.346 3-3v-35c0-1.103-.897-2-2-2zm0 2v6.091c-1.818-.251-3.729.204-5.201 1.309l-.8.6c-1.721 1.29-4.282 1.291-6.001 0l-.8-.599c-1.473-1.107-3.382-1.561-5.198-1.311v-6.09zm-1 36h-16c-.552 0-1-.449-1-1v-26.893c1.378-.274 2.868.045 3.999.893l.799.6c1.203.903 2.694 1.4 4.2 1.4 1.505 0 2.997-.497 4.2-1.4l.801-.6c1.129-.849 2.62-1.167 4.001-.892v26.892c0 .551-.448 1-1 1z"/><path d="m51 19h2v22h-2z"/><path d="m57 28h2v22h-2z"/><path d="m57 24h2v2h-2z"/><path d="m51 43h2v2h-2z"/><path d="m34.828 37.057c-.267-.755-.812-1.362-1.535-1.707-.723-.344-1.535-.389-2.292-.122-.756.267-1.362.812-1.708 1.536-.345.723-.388 1.537-.121 2.291l.132.375c.198.559.554 1.043 1.029 1.4l2.401 1.799c.176.131.387.2.6.2.112 0 .225-.019.333-.057.315-.112.555-.373.637-.697l.735-2.907c.147-.576.12-1.177-.079-1.74zm-1.727 1.618-.368 1.454-1.199-.899c-.159-.119-.278-.281-.344-.466l-.132-.374c-.089-.252-.074-.523.041-.764.114-.241.316-.423.568-.512.109-.039.222-.058.334-.058.147 0 .294.033.43.098.241.115.423.317.513.57l.132.371c.065.188.074.387.025.58z"/><path d="m43.131 35.229c-.752-.267-1.568-.225-2.292.122-.724.345-1.269.952-1.535 1.706l-.132.373c-.199.562-.227 1.163-.08 1.737l.736 2.908c.082.324.321.585.637.697.108.038.221.057.333.057.213 0 .424-.068.6-.2l2.401-1.798c.475-.356.831-.84 1.029-1.401l.132-.373c.268-.755.225-1.57-.121-2.293s-.952-1.268-1.708-1.535zm-.056 3.161-.132.372c-.066.188-.186.349-.344.468l-1.2.899-.369-1.456c-.049-.191-.039-.391.026-.577l.132-.373c.09-.252.271-.454.513-.569.136-.065.282-.098.43-.098.112 0 .225.019.334.058.252.089.454.271.569.512s.13.513.041.764z"/></g></svg>