<svg id="Capa_1" enable-background="new 0 0 511.99 511.99" height="512" viewBox="0 0 511.99 511.99" width="512" xmlns="http://www.w3.org/2000/svg"><g><path d="m136.556 162.65c-21.216 15.11-31.491 42.1-24.434 64.175 3.299 10.315 15.606 34.307 58.562 34.307 42.957 0 55.265-23.992 58.562-34.308 7.058-22.075-3.218-49.064-24.433-64.174-6.519-4.643-9.154-10.457-11.704-16.08-3.543-7.815-7.952-17.542-22.426-17.542-14.473 0-18.883 9.726-22.426 17.541-2.547 5.624-5.184 11.439-11.701 16.081zm25.365-9.886c3.412-7.526 4.286-8.735 8.764-8.735 4.479 0 5.353 1.208 8.765 8.735 2.893 6.379 6.854 15.117 16.663 22.104 16.046 11.429 23.973 31.358 18.848 47.389-4.923 15.396-20.646 23.875-44.275 23.875-23.628 0-39.353-8.479-44.274-23.875-5.125-16.03 2.801-35.96 18.847-47.389 9.807-6.987 13.769-15.724 16.662-22.104z"/><path d="m170.685 239.399c1.907 0 3.815-.723 5.276-2.17 8.756-8.667 13.578-20.221 13.578-32.533s-4.822-23.866-13.578-32.533c-2.922-2.894-7.631-2.894-10.553 0-8.755 8.667-13.577 20.221-13.577 32.533s4.822 23.866 13.577 32.533c1.461 1.447 3.369 2.17 5.277 2.17zm0-49.641c2.517 4.517 3.854 9.623 3.854 14.938s-1.338 10.421-3.854 14.938c-2.517-4.517-3.854-9.623-3.854-14.938s1.337-10.421 3.854-14.938z"/><path d="m104.558 296.498c-4.793 4.518-28.702 27.914-28.702 44.844 0 18.663 15.184 33.847 33.847 33.847 18.662 0 33.846-15.184 33.846-33.847 0-16.93-23.908-40.326-28.701-44.844-2.889-2.723-7.401-2.723-10.29 0zm23.99 44.844c0 10.392-8.454 18.847-18.846 18.847s-18.847-8.455-18.847-18.847c0-4.042 6.021-15.492 18.847-28.833 12.825 13.342 18.846 24.791 18.846 28.833z"/><path d="m341.325 142.466c-4.519-4.793-27.913-28.702-44.844-28.702-18.663 0-33.847 15.184-33.847 33.847s15.184 33.846 33.847 33.846c16.931 0 40.325-23.909 44.844-28.702 2.723-2.889 2.723-7.4 0-10.289zm-44.844 23.99c-10.393 0-18.847-8.455-18.847-18.846 0-10.392 8.454-18.847 18.847-18.847 4.042 0 15.492 6.022 28.833 18.847-13.341 12.826-24.791 18.846-28.833 18.846z"/><path d="m60.132 115.874c-16.94 0-30.723 13.782-30.723 30.723s13.782 30.723 30.723 30.723 30.724-13.782 30.724-30.723-13.783-30.723-30.724-30.723zm0 46.447c-8.67 0-15.723-7.053-15.723-15.723s7.053-15.723 15.723-15.723 15.724 7.053 15.724 15.723-7.054 15.723-15.724 15.723z"/><path d="m208.878 431.466c16.941 0 30.724-13.782 30.724-30.723s-13.782-30.723-30.724-30.723c-16.94 0-30.723 13.782-30.723 30.723s13.783 30.723 30.723 30.723zm0-46.447c8.67 0 15.724 7.053 15.724 15.723s-7.054 15.723-15.724 15.723-15.723-7.053-15.723-15.723 7.053-15.723 15.723-15.723z"/><path d="m248.506 22.929c-16.94 0-30.723 13.782-30.723 30.723s13.782 30.723 30.723 30.723 30.724-13.782 30.724-30.723-13.783-30.723-30.724-30.723zm0 46.446c-8.67 0-15.723-7.053-15.723-15.723s7.053-15.723 15.723-15.723 15.724 7.053 15.724 15.723-7.054 15.723-15.724 15.723z"/><path d="m342.238 295.116 2.617-.211c14.556-1.21 29.194-2.263 43.505-3.127 17.325-1.033 34.522-1.827 51.115-2.361 3.954-.127 7.13-3.304 7.255-7.258.439-13.843.724-27.917.844-41.829.162-17.583.074-35.182-.261-52.3-.659-34.979-2.338-70.506-4.989-105.589-.445-5.938-.922-11.905-1.416-17.734-1.188-14-6.785-26.885-16.171-37.245-2.674-2.97-5.642-5.698-8.836-8.119-9.602-7.241-21.008-11.604-32.98-12.615-8.341-.711-15.743-1.293-22.61-1.777-82.483-6.019-166.09-6.552-248.493-1.587-14.728.88-29.488 1.937-43.843 3.14l-2.633.223c-30.965 2.624-55.354 27.006-57.99 57.978-.514 6.033-1.032 12.508-1.586 19.797-.313 4.13 2.78 7.733 6.91 8.047 4.135.315 7.733-2.78 8.047-6.91.551-7.244 1.065-13.675 1.574-19.662 1.755-20.612 16.12-37.4 35.41-42.714-.161 1.339-.254 2.688-.254 4.045 0 18.664 15.181 33.848 33.84 33.848 16.932 0 40.327-23.911 44.846-28.704 2.723-2.89 2.723-7.401-.001-10.29-.162-.172-1.977-2.087-4.846-4.839 72.269-3.617 145.323-2.986 217.604 1.878-2.978 9.567-3.708 19.919-2.009 30.039 1.326 7.89-.922 13.864-3.096 19.642-3.021 8.031-6.781 18.025 3.45 28.257 5.062 5.061 10.062 6.701 14.797 6.701 4.842 0 9.406-1.716 13.467-3.244 5.778-2.173 11.75-4.419 19.644-3.095 11.108 1.869 22.649.752 33.003-3.03 1.965 28.229 3.291 56.67 3.961 84.82-9.076-.209-17.957 3.241-24.629 9.914-13.191 13.19-13.193 34.662 0 47.865 4.761 4.76 12.984 7.983 25 9.802-.115 9.264-.281 18.559-.537 27.792-14.53.526-29.459 1.243-44.485 2.139-12.289.743-24.811 1.629-37.306 2.627-7.449-13.728-19.38-22.973-33.406-25.646-12.396-2.363-31.765-.584-53.654 21.304-25.672 25.672-23.514 47.976-19.942 58.985 5.15 15.876 19.548 28.47 37.609 33.411-1.474 21.3-2.598 42.638-3.341 63.775-55.232 1.583-111.083.672-166.417-2.702 1.748-2.937 2.844-6.654 2.844-11.507 0-14.474-9.726-18.883-17.541-22.426-5.621-2.549-11.434-5.184-16.075-11.699-14.456-20.297-38.663-30.189-59.772-25.611-5.798-80.34-6.382-161.704-1.699-242.008.241-4.135-2.916-7.683-7.051-7.924-4.132-.243-7.683 2.915-7.924 7.051-4.908 84.172-4.094 169.504 2.419 253.617.361 4.73.743 9.48 1.146 14.236.921 10.818 4.611 21.273 10.667 30.23 6.329 9.374 15.053 16.893 25.192 21.726 6.9 3.335 14.342 5.368 22.142 6.042 8.652.72 16.217 1.311 23.118 1.806 45.112 3.279 90.657 4.924 136.041 4.924 20.188 0 40.35-.326 60.417-.978 3.974-.129 7.143-3.343 7.253-7.293 1.028-32.85 2.972-66.264 5.775-99.307 2.015-23.669 20.65-42.309 44.281-44.32zm-250.945-248.96c-10.389 0-18.84-8.455-18.84-18.848 0-2.125.358-4.222 1.046-6.2 11.986-.975 24.191-1.845 36.411-2.594 3.882 3.067 7.452 6.279 10.166 8.846-13.321 12.79-24.746 18.796-28.783 18.796zm318.359-12.539c.386.341.769.687 1.144 1.041-1.51 4.385-3.995 8.38-7.321 11.705-3.76 3.76-8.317 6.425-13.293 7.838 1.414-4.97 4.078-9.526 7.836-13.288 3.301-3.301 7.276-5.782 11.634-7.296zm-12.017 49.092c-11.876-1.994-20.854 1.381-27.41 3.847-7.734 2.91-9.208 3.146-12.376-.024-3.164-3.164-2.928-4.636-.019-12.369 2.467-6.556 5.846-15.535 3.85-27.41-1.515-9.018-.537-18.245 2.726-26.467 5.336.399 11.024.856 17.248 1.387 4.413.373 8.723 1.346 12.826 2.867-2.525 1.677-4.9 3.597-7.071 5.767-8.704 8.714-13.463 20.292-13.398 32.601.021 4.111 3.349 7.438 7.46 7.46h.25c12.23 0 23.715-4.754 32.362-13.402 2.658-2.657 4.954-5.606 6.863-8.777 2.773 5.487 4.483 11.484 5.017 17.783.356 4.197.697 8.468 1.03 12.748-8.852 4.223-19.309 5.681-29.358 3.989zm20.456 117.103c3.864-3.864 9.057-5.793 14.32-5.502.198 12.314.27 24.827.212 37.393-10.318-1.811-13.662-4.369-14.53-5.238-7.347-7.351-7.348-19.308-.002-26.653zm-350.075 191.816c6.986 9.807 15.722 13.767 22.101 16.658 7.525 3.412 8.733 4.286 8.733 8.764 0 4.479-1.208 5.354-8.734 8.769-.823.374-1.67.763-2.534 1.167-6.116-.446-12.77-.969-20.227-1.588 1.165-.965 2.29-1.987 3.363-3.072 2.894-2.923 2.894-7.631 0-10.553-8.669-8.755-20.222-13.576-32.53-13.576-3.576 0-7.096.409-10.524 1.218-2.97-5.693-4.817-11.956-5.366-18.396-.241-2.849-.46-5.694-.687-8.541 15.633-4.432 35.132 3.321 46.405 19.15zm-29.596 21.577c5.227.039 10.247 1.365 14.696 3.843-1.827 1.016-3.759 1.832-5.762 2.455-3.212-1.755-6.206-3.871-8.934-6.298zm219.002-83.76c-4.339-13.375 1.443-28.913 16.281-43.75 13.651-13.651 27.565-19.592 40.238-17.175 7.659 1.459 14.473 5.964 19.606 12.737-10.192 2.085-19.466 6.568-27.219 12.848-6.791-3.794-14.537-5.844-22.375-5.844-.073 0-.147 0-.22 0-4.113.02-7.442 3.348-7.464 7.46-.055 10.336 3.323 20.205 9.582 28.264-1.452 4.522-2.422 9.268-2.84 14.181-.395 4.655-.768 9.318-1.128 13.985-11.893-4.037-21.122-12.414-24.461-22.706zm35.024-25.012c1.008.287 1.998.632 2.969 1.022-.601.805-1.182 1.625-1.745 2.459-.477-1.134-.886-2.296-1.224-3.481z"/><path d="m489.527 324.964c-12.256.404-24.533.925-36.492 1.546-4.136.215-7.315 3.743-7.101 7.879.215 4.137 3.723 7.32 7.88 7.101 9.258-.481 18.71-.901 28.195-1.253-1.08 30.245-2.931 60.925-5.509 91.32-2.005 23.669-20.641 42.304-44.313 44.31-29.581 2.519-59.547 4.343-89.198 5.431.722-20.224 1.796-40.638 3.194-61.028 4.315.141 8.647-.144 12.953-.865 7.894-1.329 13.871.917 19.652 3.091 4.062 1.527 8.624 3.243 13.466 3.242 4.731 0 9.73-1.639 14.786-6.694 10.239-10.232 6.48-20.229 3.459-28.261-2.173-5.779-4.42-11.755-3.094-19.647 1.506-8.958 1.136-17.984-1.029-26.573 6.011-.467 11.913-.898 17.609-1.279 4.133-.276 7.259-3.851 6.982-7.984-.276-4.134-3.854-7.257-7.984-6.983-9.214.616-18.918 1.35-28.825 2.178l-2.616.222c-30.978 2.625-55.366 27.013-57.991 57.989-2.828 33.334-4.787 67.023-5.822 100.13-.065 2.071.729 4.076 2.195 5.541 1.408 1.407 3.316 2.194 5.301 2.194.08 0 .161-.001.242-.004 32.516-1.049 65.486-2.985 97.99-5.753 30.978-2.625 55.366-27.013 57.991-57.989 2.828-33.346 4.787-67.034 5.822-100.129.065-2.072-.73-4.078-2.197-5.542-1.467-1.466-3.488-2.246-5.546-2.19zm-93.092 83.471c-3.162 3.163-4.633 2.928-12.367.02-6.559-2.466-15.544-5.842-27.416-3.843-3.12.523-6.256.742-9.381.677.391-5.111.795-10.218 1.228-15.316.12-1.416.303-2.812.54-4.189 7.034 4.233 15.103 6.49 23.526 6.49h.25c4.111-.022 7.438-3.35 7.46-7.46.059-11.345-3.976-22.049-11.402-30.461 6.433-4.537 14.034-7.538 22.29-8.512 2.209 7.269 2.732 15.193 1.451 22.809-1.995 11.877 1.382 20.857 3.847 27.414 2.907 7.732 3.144 9.204-.026 12.371zm-38.35-43.616c2.802 3.33 4.846 7.158 6.018 11.283-3.607-1.027-6.993-2.722-10.025-5.011 1.178-2.199 2.519-4.294 4.007-6.272z"/><path d="m287.879 466.284-20.035-10.055c-4.693-2.356-10.213-2.194-14.761.437-4.548 2.63-7.442 7.332-7.742 12.576l-1.5 26.281c-.351 6.117 2.789 11.711 8.191 14.601 2.336 1.249 4.855 1.866 7.36 1.866 3.291 0 6.555-1.065 9.334-3.159l21.536-16.227c4.327-3.261 6.618-8.429 6.129-13.825-.488-5.394-3.671-10.066-8.512-12.495zm-6.644 14.341-21.536 16.227c-.124.094-.278.213-.593.045-.311-.166-.3-.361-.29-.518l1.501-26.282c.005-.096.017-.297.274-.446.106-.062.2-.083.278-.083.111 0 .194.042.245.067l20.036 10.055c.096.048.274.137.302.443.028.307-.131.427-.217.492z"/><path d="m505.326 254.67c-4.285-3.316-9.873-4.166-14.951-2.274l-21.003 7.83c-4.923 1.835-8.561 5.988-9.73 11.109s.304 10.442 3.941 14.232l18.228 18.992c3.006 3.132 7.012 4.803 11.153 4.803 1.703 0 3.431-.283 5.119-.863 5.795-1.99 9.786-7.012 10.417-13.106l2.777-26.822c.559-5.389-1.667-10.585-5.951-13.901zm-8.969 12.356-2.777 26.822c-.017.156-.036.351-.37.465-.331.113-.469-.027-.577-.14l-18.228-18.992c-.067-.07-.207-.215-.141-.505s.255-.36.346-.394h.001l21.003-7.83c.049-.019.119-.044.206-.044.091 0 .201.029.325.125.244.188.223.386.212.493z"/><path d="m466.748 239.399c4.143 0 7.5-3.358 7.5-7.5v-.503c0-4.142-3.357-7.5-7.5-7.5s-7.5 3.358-7.5 7.5v.503c0 4.142 3.357 7.5 7.5 7.5z"/><path d="m441.301 308.847v.503c0 4.142 3.357 7.5 7.5 7.5s7.5-3.358 7.5-7.5v-.503c0-4.142-3.357-7.5-7.5-7.5s-7.5 3.357-7.5 7.5z"/><path d="m307.064 449.099c-4.143 0-7.5 3.358-7.5 7.5v.503c0 4.142 3.357 7.5 7.5 7.5s7.5-3.358 7.5-7.5v-.503c0-4.143-3.357-7.5-7.5-7.5z"/><path d="m194.742 302.207v-.503c0-4.142-3.357-7.5-7.5-7.5s-7.5 3.358-7.5 7.5v.503c0 4.142 3.357 7.5 7.5 7.5s7.5-3.358 7.5-7.5z"/><path d="m335.229 209.478c-4.143 0-7.5 3.358-7.5 7.5v.503c0 4.142 3.357 7.5 7.5 7.5s7.5-3.358 7.5-7.5v-.503c0-4.142-3.358-7.5-7.5-7.5z"/><path d="m54.193 224.148c-4.143 0-7.5 3.358-7.5 7.5v.503c0 4.142 3.357 7.5 7.5 7.5s7.5-3.358 7.5-7.5v-.503c0-4.142-3.357-7.5-7.5-7.5z"/><path d="m159.955 96.581v-.503c0-4.142-3.357-7.5-7.5-7.5s-7.5 3.358-7.5 7.5v.503c0 4.142 3.357 7.5 7.5 7.5s7.5-3.357 7.5-7.5z"/></g></svg>