<?xml version="1.0" encoding="iso-8859-1"?>
<!-- Generator: Adobe Illustrator 19.0.0, SVG Export Plug-In . SVG Version: 6.00 Build 0)  -->
<svg version="1.1" id="Capa_1" xmlns="http://www.w3.org/2000/svg" xmlns:xlink="http://www.w3.org/1999/xlink" x="0px" y="0px"
	 viewBox="0 0 512 512" style="enable-background:new 0 0 512 512;" xml:space="preserve">
<g>
	<g>
		<path d="M398.387,329.383c-1.528-13.597-12.994-23.846-26.675-23.846c-0.003,0-0.008,0-0.011,0l-29.174,0.012
			c-3.572,0.001-6.872,1.909-8.657,5.002c-1.785,3.094-1.784,6.906,0.004,9.998l14.598,25.259
			c4.936,8.544,13.911,13.422,23.236,13.422c3.607,0,7.27-0.731,10.767-2.262C393.313,352.225,399.706,341.14,398.387,329.383z
			 M374.457,338.649c-3.199,1.4-6.927,0.176-8.672-2.846l-5.932-10.265l11.856-0.005c0.001,0,0.002,0,0.003,0
			c3.488,0,6.413,2.615,6.803,6.081C378.852,334.613,377.22,337.441,374.457,338.649z"/>
	</g>
</g>
<g>
	<g>
		<path d="M336.662,352.627l-14.577-25.271c-1.785-3.095-5.084-5.001-8.658-5.003c-0.001,0-0.002,0-0.004,0
			c-3.57,0-6.87,1.904-8.657,4.996l-14.598,25.259c-6.848,11.85-3.704,26.911,7.31,35.033c4.764,3.513,10.347,5.269,15.931,5.269
			c5.576,0,11.153-1.752,15.912-5.256C340.344,379.542,343.5,364.483,336.662,352.627z M317.468,371.551
			c-2.431,1.788-5.694,1.787-8.121-0.003c-2.809-2.071-3.609-5.912-1.864-8.935l5.933-10.265l5.924,10.269
			C321.085,365.641,320.28,369.481,317.468,371.551z"/>
	</g>
</g>
<g>
	<g>
		<path d="M493.899,278.195c-4.202-7.278-9.111-14.196-14.591-20.562c-3.603-4.184-9.913-4.658-14.102-1.055
			c-4.185,3.602-4.656,9.915-1.055,14.101c4.667,5.422,8.85,11.314,12.429,17.514c14.626,25.332,19.035,54.974,12.417,83.465
			c-6.803,29.281-25.635,54.694-51.667,69.723L375,477.369c-26.033,15.03-57.456,18.631-86.216,9.882
			c-27.983-8.514-51.449-27.153-66.074-52.485c-11.59-20.073-16.804-42.901-15.078-66.015l3.728-49.963
			c1.188-15.895,1.727-32.048,1.604-48.006l-0.406-52.819c-0.095-12.258,4.059-24.29,11.696-33.879
			c8.395-10.54,20.348-17.499,33.654-19.598l0.638-0.101c12.251-1.93,24.888,0.466,35.581,6.75l46.18,27.136
			c13.48,7.89,27.443,15.326,41.505,22.102c4.978,2.398,10.95,0.308,13.349-4.666c2.397-4.974,0.308-10.95-4.666-13.348
			c-13.581-6.545-27.067-13.727-40.083-21.346l-46.153-27.12c-14.674-8.623-32.016-11.912-48.825-9.262l-0.637,0.101
			c-2.226,0.351-4.422,0.805-6.588,1.35c-9.34-15.195-24.102-26.475-41.188-31.924l-13.794-34.878
			c-5.101-12.896-8.726-26.188-10.872-39.743h6.073c11.484,0,22.832,1.004,33.946,2.948c0.819,15.311,6.166,50.625,36.912,72.831
			c23.767,17.165,48.226,22.649,76.975,22.649c17.381,0,36.332-2.005,57.64-4.645c4.957-0.614,8.701-4.792,8.769-9.787
			c0.286-21.133-6.777-45.034-19.379-65.574c-14.793-24.115-35.91-42.025-61.066-51.794c-23.33-9.06-47.581-8.009-70.129,3.039
			c-9.671,4.738-17.089,10.388-21.729,14.424c-13.688-2.698-27.72-4.087-41.939-4.087h-8.154c-0.158-3.156-0.243-6.322-0.243-9.498
			c0-5.522-4.477-9.998-9.998-9.998H137.7c-5.521,0-9.998,4.476-9.998,9.998v3.18c0.006,24.12,4.154,47.855,12.331,70.548
			l10.751,29.838c-16.751,6.639-30.864,18.914-39.754,34.589l-28.333,49.959c-8.276,14.592-17.26,29.017-26.703,42.877
			l-30.679,45.025C8.755,310.364,0,338.759,0,368.17c0,37.118,13.962,72.49,39.313,99.603
			c26.257,28.079,63.362,44.184,101.805,44.184h78.262c15.125,0,30.074-2.45,44.431-7.281c2.021-0.68,3.675-1.947,4.851-3.542
			c4.64,2.003,9.411,3.76,14.304,5.248c12.222,3.718,24.843,5.552,37.436,5.551c22.478-0.001,44.852-5.846,64.598-17.247
			l62.331-35.987c30.808-17.787,53.095-47.863,61.146-82.516C516.247,342.735,511.07,307.935,493.899,278.195z M323.373,93.595
			c1.937,1.848,4.421,2.766,6.902,2.766c2.637,0,5.27-1.037,7.234-3.095c3.812-3.994,3.664-10.323-0.33-14.136
			c-23.63-22.551-51.589-39.146-81.905-49.018c13.353-7.944,34.388-15.143,59.714-5.308c40.976,15.913,64.195,56.324,67.331,89.776
			c-48.312,5.695-80.911,6.49-111.324-15.476c-20.467-14.781-26.4-38.134-28.09-51.873
			C272.783,55.871,300.344,71.617,323.373,93.595z M147.823,20.038h12.45v0.001c1.086,22.859,5.903,45.216,14.36,66.595L184,110.319
			c-4.769-0.287-9.177-0.358-13.222-0.216l-11.932-33.115C152.228,58.619,148.528,39.491,147.823,20.038z M219.381,491.961h-26.778
			c3.333-3.881,6.178-8.236,8.396-12.995c2.332-5.005,0.166-10.953-4.84-13.286c-5.004-2.334-10.953-0.165-13.286,4.839
			c-6.069,13.025-19.277,21.441-33.647,21.441h-8.107c-32.928,0-64.71-13.794-87.199-37.845
			c-21.876-23.395-33.923-53.918-33.923-85.946c0-25.379,7.554-49.88,21.844-70.855l30.678-45.024
			c9.75-14.311,19.027-29.205,27.571-44.272l28.334-49.96c6.675-11.769,17.284-20.976,29.875-25.927
			c5.609-2.206,16.826-2.702,30.773-1.363c16.341,1.57,31.119,10.08,40.248,22.988c-7.881,4.565-14.911,10.594-20.706,17.869
			c-10.479,13.159-16.18,29.67-16.051,46.491l0.406,52.818c0.119,15.412-0.402,31.012-1.55,46.364l-3.728,49.963
			c-2.025,27.136,4.096,53.937,17.702,77.502c10.277,17.803,24.278,32.786,40.906,44.093
			C237.482,490.904,228.47,491.961,219.381,491.961z"/>
	</g>
</g>
<g>
	<g>
		<path d="M435.621,224.108c-0.107-0.051-0.244-0.113-0.353-0.161c-5.069-2.195-10.954,0.132-13.15,5.199
			c-2.167,4.997,0.068,10.792,4.99,13.057c0.005,0.002,0.01,0.004,0.015,0.007c1.367,0.635,2.807,0.936,4.224,0.936
			c3.777,0,7.402-2.135,9.094-5.776C442.766,232.362,440.629,226.434,435.621,224.108z"/>
	</g>
</g>
<g>
	<g>
		<path d="M83.127,426.797c-0.018-0.02-0.061-0.065-0.078-0.084c-3.781-4.003-10.074-4.183-14.094-0.418
			c-4.018,3.765-4.224,10.083-0.475,14.117c0.018,0.02,0.061,0.065,0.078,0.084c1.964,2.079,4.603,3.126,7.252,3.126
			c2.452,0,4.909-0.898,6.842-2.709C86.671,437.148,86.877,430.83,83.127,426.797z"/>
	</g>
</g>
<g>
	<g>
		<path d="M102.936,260.918c-4.562-3.108-10.783-1.93-13.893,2.633l-30.679,45.025c-12.018,17.641-18.371,38.25-18.371,59.595
			c0,10.307,1.486,20.513,4.417,30.332c1.295,4.337,5.27,7.142,9.576,7.142c0.947,0,1.91-0.135,2.863-0.42
			c5.291-1.58,8.301-7.149,6.721-12.44c-2.377-7.964-3.581-16.245-3.581-24.614c0-17.313,5.152-34.027,14.901-48.336l30.678-45.024
			C108.678,270.248,107.5,264.028,102.936,260.918z"/>
	</g>
</g>
<g>
</g>
<g>
</g>
<g>
</g>
<g>
</g>
<g>
</g>
<g>
</g>
<g>
</g>
<g>
</g>
<g>
</g>
<g>
</g>
<g>
</g>
<g>
</g>
<g>
</g>
<g>
</g>
<g>
</g>
</svg>
