<?xml version="1.0"?>
<svg xmlns="http://www.w3.org/2000/svg" id="outline" viewBox="0 0 512 512" width="512" height="512"><path d="M477.20605,325.40625,424,313.58252v-44.751a36.92321,36.92321,0,0,0-.49365-5.98474A31.90157,31.90157,0,0,0,432,264h24a31.97848,31.97848,0,0,0,27.55566-48.24176l5.13086-5.1308A24.97074,24.97074,0,0,0,471.0293,168H436.84473a45.80548,45.80548,0,0,1-38.18848-20.4375A7.99986,7.99986,0,0,0,384,152v15.208A47.65748,47.65748,0,0,0,387.05859,184H238.49121a39.78117,39.78117,0,0,0-15.58594,3.16113L20.88281,272.63232A7.99916,7.99916,0,0,0,16,280v80a8.00008,8.00008,0,0,0,8,8H40a7.99979,7.99979,0,0,0,7.15527-4.42236L69.46289,318.9624,240.89746,280H351.8418l11.16894,55.84473A40.10753,40.10753,0,0,0,402.2334,368H488a8.00008,8.00008,0,0,0,8-8V348.835A23.85836,23.85836,0,0,0,477.20605,325.40625ZM448,248H432a16,16,0,0,1,0-32l.001.001a7.99893,7.99893,0,0,0,2.34277,5.65576L448,235.31348Zm16-2.165V232a8.00121,8.00121,0,0,0-2.34277-5.65674L451.31445,216H456a15.98644,15.98644,0,0,1,8,29.835ZM436.84473,184H471.0293a8.97038,8.97038,0,0,1,6.34277,15.314l-5.13037,5.13031A31.79617,31.79617,0,0,0,456,200H432.792l-7.06738-1.41357a32.1064,32.1064,0,0,1-25.34082-26.44727A61.78112,61.78112,0,0,0,436.84473,184Zm-384.658,92.76117L171.33789,226.351l18.33154,48.88349L67.87866,302.91418ZM35.05566,352H32V285.30176l5.30444-2.2442,17.57593,29.29333ZM240,264a8.02726,8.02726,0,0,0-1.77344.19873l-32.812,7.45728-19.3291-51.54432,43.0542-18.21521A23.873,23.873,0,0,1,238.49121,200H272v64Zm118.68555-18.519A36.72577,36.72577,0,0,0,350.64648,264H288V200H397.01172a48.13194,48.13194,0,0,0,12.28223,9.477A31.8951,31.8951,0,0,0,400,232c0,.79034.03906,1.57141.09521,2.34753A36.812,36.812,0,0,0,358.68555,245.481ZM480,352H402.2334a24.0635,24.0635,0,0,1-23.5332-19.293l-11.958-59.79A20.83121,20.83121,0,1,1,408,268.83154V320a8.00044,8.00044,0,0,0,6.26465,7.80957l59.4707,13.21582A7.95278,7.95278,0,0,1,480,348.835Z"/></svg>
