<svg height="512pt" viewBox="0 -18 512.0115 512" width="512pt" xmlns="http://www.w3.org/2000/svg"><path d="m68.277344 306.300781c0 4.710938-3.820313 8.53125-8.535156 8.53125-4.710938 0-8.535157-3.820312-8.535157-8.53125 0-4.714843 3.824219-8.535156 8.535157-8.535156 4.714843 0 8.535156 3.820313 8.535156 8.535156zm0 0"/><path d="m256.007812 127.097656c-41.464843-.160156-82.859374 3.421875-123.679687 10.703125-15.121094-29.484375-40.832031-85.332031-50.679687-110.363281-.648438-1.726562-1.410157-3.414062-2.28125-5.042969-11.085938-20.617187-36.753907-28.394531-57.417969-17.398437-20.417969 11.371094-27.886719 37.050781-16.753907 57.601562.832032 1.570313 1.789063 3.074219 2.859376 4.496094 12.527343 17.671875 38.886718 59.785156 56.046874 89.265625-41.972656 16.15625-64.0937495 36.90625-64.0937495 60.339844-.0234375.765625.0039063 1.535156.0859375 2.296875.90625 100.050781 65.1875 178.890625 162.046875 209.730468v22.640626c0 23.753906 71.851563 25.597656 93.867187 25.597656 22.015626 0 93.867188-1.84375 93.867188-25.597656v-22.632813c96.855469-30.804687 161.136719-109.5 161.996094-208.894531.105468-1.042969.152344-2.09375.136718-3.140625 0-58.195313-131.898437-89.601563-256-89.601563zm-235.765624-72.53125c-6.769532-12.28125-2.359376-27.722656 9.871093-34.578125 12.359375-6.503906 27.652344-1.804687 34.21875 10.523438.527344.976562.984375 1.988281 1.375 3.027343 10.726563 27.230469 39.714844 89.96875 54.460938 117.855469l.441406.851563c.417969.792968.855469 1.589844 1.09375 1.988281l9.035156 16.65625c-11.902343-.03125-23.535156 3.539063-33.371093 10.242187l-8.414063-15.632812c-1.425781-2.671875-3.105469-5.691406-4.976563-8.808594-15.105468-26.707031-46.675781-77.847656-62.164062-99.710937-.589844-.757813-1.117188-1.566407-1.570312-2.414063zm170.664062 126.710938c3.261719-.332032 6.597656-.589844 9.976562-.851563 4.265626-.351562 8.355469-.617187 12.375-.855469-5.625 8.78125-11.589843 13.800782-37.90625 3.550782 5.164063-.664063 10.257813-1.367188 15.554688-1.878906zm250.480469 42.785156c-2.136719-6.816406-5.40625-13.222656-9.675781-18.953125 8.136718 3.050781 15.957031 6.886719 23.347656 11.453125-4.363282 2.828125-8.933594 5.324219-13.671875 7.46875zm-85.085938-38.289062-4.523437 1.921874c-8.542969 4.414063-17.90625 7.023438-27.5 7.671876-9.976563 0-12.871094-4.269532-18.449219-13.84375-.292969-.503907-.617187-1.039063-.921875-1.550782 2.011719.085938 4.007812.210938 6.152344.433594 16.476562 1.304688 31.503906 3.148438 45.242187 5.335938zm-75.65625-9.386719.121094.113281.058594.050781c.152343.160157.316406.316407.484375.460938 3.988281 3.78125 7.292968 8.222656 9.765625 13.132812 5.785156 9.90625 12.984375 22.289063 33.203125 22.289063 11.917968-.613282 23.578125-3.707032 34.234375-9.089844 12.363281-5.308594 23.039062-9.890625 36.054687-5.878906 15.046875 5.4375 26.605469 17.722656 31.109375 33.074218-24.320312 8.902344-79.828125 24.558594-169.667969 24.558594-92.527343 0-148.53125-16.269531-173.558593-25.886718 4.644531-12.875 12.617187-24.289063 23.109375-33.078126l.273437-.210937c9.367188-6.742187 21.042969-9.460937 32.425781-7.542969h.316407c6.941406 1.164063 13.695312 3.257813 20.078125 6.21875 47.589844 21.136719 59.734375 9.171875 70.707031-8.695312 1.941406-3.488282 4.292969-6.730469 7.007813-9.660156 5.320312-4.863282 12.46875-7.222657 19.640624-6.476563 8.730469-.765625 17.453126 1.5625 24.636719 6.578125zm-213.828125 45.945312c-3.410156-1.699219-6.710937-3.601562-9.890625-5.699219 5.375-3.402343 11.023438-6.355468 16.878907-8.832031-2.652344 4.679688-4.988282 9.535157-6.988282 14.53125zm5.84375-50.96875c.394532.707031.898438 1.550781 1.257813 2.21875l7.105469 13.089844c-21.332032 7.679687-37.246094 16.398437-43.84375 24.457031-2.570313 3.140625-2.570313 7.660156 0 10.800782 8.855468 8.722656 19.425781 15.507812 31.042968 19.925781 21.0625 9.113281 81.554688 30.308593 187.785156 30.308593 97.828126 0 156.210938-17.652343 182.296876-28.15625 13.507812-4.703124 25.890624-12.152343 36.378906-21.871093 2.722656-3.140625 2.789062-7.785157.152344-11-11.832032-14.429688-66.40625-40.109375-162.199219-47.710938-2.558594-.273437-5.265625-.453125-7.679688-.539062l-2.5625-.179688c-2.011719-.132812-4.042969-.28125-5.492187-.304687-1.707032-.171875-3.484375-.265625-5.191406-.351563h-1.210938c-.339844 0-.640625 0-.964844-.050781-9.90625-6.574219-21.648437-9.832031-33.527344-9.300781-10.296874-.433594-20.417968 2.765625-28.59375 9.035156-8.925781.335937-18.046874.855469-27.84375 1.65625-3.5.257813-6.988281.523437-10.351562.855469h-.050781c-13.738281 1.320312-26.921875 3.199218-39.699219 5.339844l-8.660156-15.992188c38.0625-6.40625 76.601562-9.558594 115.199218-9.429688 140.800782 0 238.933594 38.222657 238.933594 72.535157.015625.503906-.003906 1.007812-.050781 1.511719-.375 3.925781-1.792969 7.679687-4.105469 10.878906-22.449218 34.285156-123.382812 60.144531-234.777344 60.144531-111.394531 0-212.324218-25.859375-234.851562-60.265625-2.320312-3.226562-3.726562-7.015625-4.082031-10.972656-.023438-.433594-.023438-.863282 0-1.296875 0-15.511719 20.644531-32.238281 55.585937-45.335938zm260.148438 277.996094c-5.972656 3.933594-32.777344 10.539063-76.800782 10.539063-44.023437 0-70.824218-6.605469-76.800781-10.539063v-15.757813c50.460938 12.304688 103.140625 12.304688 153.601563 0zm-76.800782-23.59375c-123.664062 0-217.386718-70.597656-235.636718-172.824219 38.859375 32.023438 130.34375 53.359375 235.636718 53.359375 105.292969 0 197-21.335937 235.726563-53.386719-17.929687 101.957032-111.796875 172.851563-235.726563 172.851563zm0 0"/><path d="m145.074219 212.433594c0 4.710937-3.820313 8.53125-8.53125 8.53125-4.714844 0-8.535157-3.820313-8.535157-8.53125 0-4.714844 3.820313-8.535156 8.535157-8.535156 4.710937 0 8.53125 3.820312 8.53125 8.535156zm0 0"/><path d="m281.609375 212.433594c0 4.710937-3.820313 8.53125-8.535156 8.53125-4.710938 0-8.53125-3.820313-8.53125-8.53125 0-4.714844 3.820312-8.535156 8.53125-8.535156 4.714843 0 8.535156 3.820312 8.535156 8.535156zm0 0"/><path d="m324.277344 229.5c0 4.710938-3.820313 8.53125-8.535156 8.53125-4.710938 0-8.535157-3.820312-8.535157-8.53125 0-4.714844 3.824219-8.535156 8.535157-8.535156 4.714843 0 8.535156 3.820312 8.535156 8.535156zm0 0"/><path d="m247.476562 220.964844c0 4.714844-3.820312 8.535156-8.535156 8.535156-4.710937 0-8.53125-3.820312-8.53125-8.535156 0-4.710938 3.820313-8.53125 8.53125-8.53125 4.714844 0 8.535156 3.820312 8.535156 8.53125zm0 0"/><path d="m384.007812 220.964844c0 4.714844-3.820312 8.535156-8.53125 8.535156-4.714843 0-8.535156-3.820312-8.535156-8.535156 0-4.710938 3.820313-8.53125 8.535156-8.53125 4.710938 0 8.53125 3.820312 8.53125 8.53125zm0 0"/><path d="m223.085938 391.71875c-70.371094-10.085938-113.109376-41.097656-136.53125-65.332031-3.277344-3.398438-8.691407-3.496094-12.089844-.21875-3.394532 3.277343-3.492188 8.691406-.214844 12.089843 25.308594 26.152344 71.253906 59.578126 146.40625 70.355469 3.015625.433594 6.039062-.777343 7.921875-3.175781 1.882813-2.394531 2.34375-5.617188 1.210937-8.445312-1.132812-2.832032-3.691406-4.839844-6.710937-5.273438zm0 0"/></svg>