<svg height="496pt" viewBox="0 -56 496 496" width="496pt" xmlns="http://www.w3.org/2000/svg"><path d="m344 368h-40v16h40c17.648438 0 32-14.351562 32-32h-16c0 8.824219-7.175781 16-16 16zm0 0"/><path d="m80 360c0-4.40625 3.585938-8 8-8h40c13.230469 0 24-10.769531 24-24s-10.769531-24-24-24h-56v16h56c4.414062 0 8 3.59375 8 8s-3.585938 8-8 8h-40c-13.230469 0-24 10.769531-24 24s10.769531 24 24 24h200v-16h-200c-4.414062 0-8-3.59375-8-8zm0 0"/><path d="m495.847656 84.65625c.054688-1.550781.152344-3.097656.152344-4.65625h-.609375c-2.589844-13.96875-13.46875-25.375-27.789063-28.238281l-77.320312-15.464844c-13.503906-2.703125-26.992188-6.121094-40.121094-10.160156l-51.992187-16c-21.839844-6.730469-44.511719-10.136719-67.375-10.136719h-1.65625c-66.496094 0-130.679688 27.785156-176.082031 76.230469l-45.503907 48.546875c-4.871093 5.207031-7.550781 11.992187-7.550781 19.101562v10.585938c0 10.09375 2.382812 20.199218 6.894531 29.222656 7.304688 14.617188 19.738281 25.898438 34.984375 31.761719l8.328125 3.199219c32.761719 12.597656 66.984375 21.070312 101.792969 25.558593v19.792969c0 4.40625-3.585938 8-8 8h-120c-13.230469 0-24 10.769531-24 24s10.769531 24 24 24h32v-16h-32c-4.414062 0-8-3.59375-8-8s3.585938-8 8-8h120c13.230469 0 24-10.769531 24-24v-50.472656c0-20.847656-15.777344-37.960938-36.6875-39.816406-23.839844-2.101563-47.832031-5.71875-71.296875-10.75l-34.574219-7.410157c-5.472656-1.167969-9.441406-6.078125-9.441406-11.671875 0-3.039062 1.152344-5.941406 3.222656-8.160156l45.503906-48.550781c42.394532-45.222657 102.3125-71.167969 164.410157-71.167969h1.65625c21.269531 0 42.359375 3.167969 62.679687 9.425781l51.992188 16c13.632812 4.199219 27.65625 7.75 41.679687 10.558594l77.320313 15.464844c8.421875 1.6875 14.605468 8.78125 15.382812 17.207031-.085937 1.894531-.230468 3.792969-.414062 5.671875-1.25 5.9375-5.105469 11.105469-10.753906 13.671875l-42.601563 19.359375c-64.726563 29.425781-133.519531 46.703125-204.484375 51.367187-21.089844 1.394532-37.59375 18.90625-37.59375 39.882813v89.390625c0 17.648438 14.351562 32 32 32h128c4.542969 0 8.886719 1.945312 11.929688 5.335938l11.917968-10.671876c-6.0625-6.777343-14.757812-10.664062-23.847656-10.664062h-128c-8.824219 0-16-7.175781-16-16v-56.152344c2.753906.046875 5.503906.152344 8.265625.152344 79.78125 0 158.117187-21.695312 226.527344-62.753906l2.4375-1.460938c32.34375-19.402344 53.707031-53.160156 57.945312-90.234375.488281-2.328125.824219-4.710937.824219-7.152343 0-.589844-.128906-1.160157-.152344-1.742188zm-473.769531 86.542969 34.578125 7.410156c24.113281 5.167969 48.757812 8.878906 73.246094 11.039063 12.59375 1.121093 22.097656 11.382812 22.097656 23.878906v14.535156c-32.832031-4.398438-65.121094-12.445312-96.039062-24.335938l-8.328126-3.199218c-11.519531-4.429688-20.90625-12.953125-26.425781-23.992188-1.03125-2.0625-1.863281-4.207031-2.589843-6.398437 1.136718.398437 2.261718.808593 3.460937 1.0625zm406.914063-1.128907-2.441407 1.464844c-68.277343 40.976563-147.070312 61.785156-226.550781 60.304688v-17.230469c0-12.578125 9.945312-23.074219 22.632812-23.90625 72.886719-4.800781 143.566407-22.550781 210.0625-52.773437l39.273438-17.851563c-8.527344 20.539063-23.449219 38.28125-42.976562 49.992187zm0 0"/><path d="m344.648438 131.152344 14.703124-6.304688c-16.289062-38.007812-46.183593-67.910156-84.199218-84.199218l-6.296875 14.703124c34.207031 14.664063 61.128906 41.585938 75.792969 75.800782zm0 0"/><path d="m201.824219 59.503906-6.671875-2.855468-6.296875 14.703124 6.671875 2.855469c30.066406 12.890625 54.6875 36.105469 69.320312 65.367188l14.3125-7.160157c-16.328125-32.636718-43.792968-58.535156-77.335937-72.910156zm0 0"/><path d="m121.824219 75.503906-6.671875-2.855468-6.296875 14.703124 6.671875 2.855469c30.066406 12.890625 54.6875 36.105469 69.320312 65.367188l14.3125-7.160157c-16.328125-32.636718-43.792968-58.535156-77.335937-72.910156zm0 0"/></svg>