<?xml version="1.0" encoding="iso-8859-1"?>
<!-- Generator: Adobe Illustrator 19.0.0, SVG Export Plug-In . SVG Version: 6.00 Build 0)  -->
<svg version="1.1" id="Capa_1" xmlns="http://www.w3.org/2000/svg" xmlns:xlink="http://www.w3.org/1999/xlink" x="0px" y="0px"
	 viewBox="0 0 489.768 489.768" style="enable-background:new 0 0 489.768 489.768;" xml:space="preserve">
<g>
	<g>
		<path d="M474.86,216.072l-23.904-103.576l-87.872,16.472c-2.88-8.664-6.264-17.208-10.336-25.352
			c-14.144-28.28-35.312-52.824-61.216-70.952L244.884,0l-46.648,32.656c-25.904,18.136-47.08,42.672-61.216,70.952
			c-4.08,8.168-7.408,16.704-10.272,25.368l-87.928-16.48L14.908,216.072c-1.344,5.832-2.024,11.816-2.024,17.8v42.856
			c0,25.8,12.616,50.04,33.76,64.832l31.28,21.896c13.376,9.368,29.072,14.312,45.392,14.312h14.024
			c6.792,0,13.512,1.096,19.968,3.232l34.472,11.496c8.624,31.488,13.104,64.152,13.104,97.272h16
			c0-36.52-5.192-72.504-15.224-107.072l2.84-14.232c0.768-3.824,1.992-7.488,3.416-11.056l24.968,16.64v115.72h16V374.2
			l25.376-15.864c1.248,3.28,2.304,6.64,3.008,10.128l2.84,14.232c-10.032,34.568-15.224,70.552-15.224,107.072h16
			c0-33.12,4.48-65.784,13.104-97.272l34.464-11.488c6.464-2.144,13.192-3.24,19.976-3.24h14.024
			c16.32,0,32.016-4.944,45.392-14.304l31.28-21.896c21.144-14.8,33.76-39.04,33.76-64.832V233.88
			C476.884,227.888,476.204,221.904,474.86,216.072z M236.884,354.816l-17.248-11.496c1.856-2.512,3.904-4.896,6.136-7.128
			c4.24-4.24,7.944-8.984,11.112-14.064V354.816z M236.884,252.712c0,2.96-0.208,5.968-0.64,8.928l-3.928,27.52
			c-1.912,13.432-8.248,26.112-17.848,35.712c-8.248,8.248-14.48,18.104-18.408,28.936c-6.504-17.12-14.24-33.808-23.176-49.944
			v-6.096c0-15.256,3.048-30.104,9.056-44.128l-14.704-6.296c-4.464,10.416-7.344,21.256-8.92,32.344
			c-0.008-0.016-0.016-0.024-0.024-0.04L132.884,240.8v-10.184c0-17.28,5.072-34.024,14.656-48.408l-13.312-8.872
			c-8.928,13.392-14.488,28.52-16.472,44.328L83.58,165.4l-13.392,8.752l54.248,82.96c-19.632-10.024-41.296-15.344-63.552-15.344
			v16c24.584,0,48.392,7.208,68.84,20.84l14.72,9.816l0.24-0.352l0.216,0.328c5.752,8.8,11.064,17.832,16.016,27.024
			c-20.784-11.56-44.072-17.656-68.032-17.656v16c24.584,0,48.392,7.208,68.84,20.84l12.592,8.4
			c4.392,10.08,8.344,20.336,11.808,30.744l-23.768-7.928c-8.088-2.688-16.512-4.056-25.016-4.056h-14.024
			c-13.024,0-25.544-3.944-36.216-11.416l-31.28-21.896c-16.864-11.808-26.936-31.144-26.936-51.728v-42.856
			c0-4.776,0.544-9.552,1.616-14.2l20.456-88.624l106.176,19.904c8.416,1.584,16.28,4.792,23.392,9.528l28.24,18.832
			c17.616,11.736,28.12,31.376,28.12,52.536V252.712z M252.884,355.328v-33.2c3.16,5.072,6.864,9.816,11.112,14.064
			c2.488,2.488,4.68,5.192,6.696,8.016L252.884,355.328z M460.884,276.728c0,20.584-10.072,39.92-26.928,51.728l-31.28,21.896
			c-10.672,7.472-23.2,11.416-36.224,11.416h-14.024c-8.504,0-16.928,1.368-25.032,4.064l-23.76,7.92
			c3.464-10.416,7.416-20.664,11.808-30.744l12.592-8.4c20.456-13.632,44.264-20.84,68.848-20.84v-16
			c-23.96,0-47.248,6.096-68.032,17.656c4.952-9.192,10.256-18.224,16.016-27.024l0.216-0.328l0.24,0.352l14.72-9.816
			c20.448-13.632,44.256-20.84,68.84-20.84v-16c-22.256,0-43.92,5.32-63.552,15.336l54.248-82.96l-13.392-8.752l-34.176,52.264
			c-1.992-15.8-7.552-30.928-16.472-44.328l-13.312,8.872c9.584,14.392,14.656,31.128,14.656,48.408v10.184l-25.392,38.824
			c-3.064-21.16-11.352-41.512-24.216-58.648l-12.792,9.6c14.448,19.264,22.4,43.136,22.4,67.2v6.096
			c-8.936,16.136-16.672,32.824-23.168,49.952c-3.928-10.832-10.168-20.696-18.408-28.936c-9.6-9.6-15.936-22.28-17.848-35.72
			l-3.928-27.512c-0.432-2.96-0.64-5.968-0.64-8.928v-20.872c0-21.16,10.504-40.8,28.12-52.536l28.24-18.832l-8.872-13.312
			L272.14,166c-2.632,1.752-5.12,3.672-7.488,5.688c6.76-17.192,18.12-32.328,33.048-43.52l-9.616-12.8
			c-15.2,11.4-27.176,26.344-35.2,43.304V89.768h-16v39.544c-9.496-12.864-21.896-23.44-36.424-30.704l-7.16,14.312
			c18.872,9.44,33.592,25.432,41.44,45.032l2.144,5.36v20.984c-5.296-7.024-11.704-13.272-19.24-18.296l-28.24-18.832
			c-8.904-5.936-18.768-9.952-29.312-11.936l-17.472-3.272c2.496-7.224,5.296-14.352,8.712-21.184
			c12.952-25.904,32.344-48.384,56.08-65l37.472-26.24l37.48,26.232c23.736,16.616,43.128,39.096,56.08,65
			c3.408,6.816,6.248,13.952,8.744,21.176l-17.504,3.28c-4.824,0.904-9.576,2.264-14.152,4.048l5.816,14.904
			c3.648-1.424,7.448-2.504,11.288-3.232l106.176-19.904l20.456,88.624c1.072,4.648,1.616,9.432,1.616,14.208V276.728z"/>
	</g>
</g>
<g>
	<g>
		<path d="M182.476,220.968c-3.152,4.224-6.056,8.632-8.624,13.112l13.888,7.952c2.24-3.92,4.784-7.784,7.544-11.472
			L182.476,220.968z"/>
	</g>
</g>
<g>
</g>
<g>
</g>
<g>
</g>
<g>
</g>
<g>
</g>
<g>
</g>
<g>
</g>
<g>
</g>
<g>
</g>
<g>
</g>
<g>
</g>
<g>
</g>
<g>
</g>
<g>
</g>
<g>
</g>
</svg>
