<svg id="Capa_1" enable-background="new 0 0 512 512" height="512" viewBox="0 0 512 512" width="512" xmlns="http://www.w3.org/2000/svg"><path d="m256 0c-68.372 0-132.655 26.627-180.999 74.971-48.344 48.345-74.971 112.627-74.971 180.999s26.627 132.655 74.971 180.999c100.04 100.039 261.956 100.042 361.998 0 48.344-48.344 74.971-112.627 74.971-180.999 0-141.476-114.483-255.97-255.97-255.97zm0 29.997c56.913 0 108.987 21.148 148.753 56.014l-46.495 46.495c-1.11-1.78-2.33-3.5-3.64-5.159l-17.968-22.637-.001-.001h.505c8.283 0 14.998-6.715 14.998-14.998s-6.715-14.998-14.998-14.998h-162.308c-8.283 0-14.998 6.715-14.998 14.998s6.715 14.998 14.998 14.998h1.074l-.001.001c-17.562 21.667-30.976 33.777-30.976 58.553v182.557l-58.903 58.903c-34.866-39.765-56.014-91.839-56.014-148.753 0-124.605 101.368-225.973 225.974-225.973zm-42.345 377.236c-36.009-45.358-35.457-43.673-37.486-50.224-1.694-5.438-1.23-.544-1.23-96.254l153.161 108.674-30.625 37.804zm123.406-68.227-162.122-115.031v-51.04l162.121 115.03v51.041zm0-87.82-153.162-108.674 30.625-37.804h83.82l32.776 41.285c3.785 4.767 5.939 10.799 5.939 17.028.002 9.761.002 78.57.002 88.165zm-81.061 230.758c-56.913 0-108.987-21.148-148.753-56.014l46.495-46.495c1.661 2.664 1.707 2.922 21.609 27.798-9.472 0-15.503 7.223-15.503 14.998 0 8.283 6.715 14.998 14.998 14.998h162.309c8.283 0 14.998-6.715 14.998-14.998s-6.715-14.998-14.998-14.998h-1.075l.001-.001 18.178-22.427c8.163-10.065 12.799-22.881 12.799-36.126v-182.558l58.903-58.903c34.866 39.765 56.014 91.839 56.014 148.753-.001 124.605-101.369 225.973-225.975 225.973z"/></svg>