<?xml version="1.0" encoding="iso-8859-1"?>
<!-- Generator: Adobe Illustrator 19.0.0, SVG Export Plug-In . SVG Version: 6.00 Build 0)  -->
<svg version="1.1" id="Capa_1" xmlns="http://www.w3.org/2000/svg" xmlns:xlink="http://www.w3.org/1999/xlink" x="0px" y="0px"
	 viewBox="0 0 368 368" style="enable-background:new 0 0 368 368;" xml:space="preserve">
<g>
	<g>
		<path d="M279.996,0h-192c-13.232,0-24,10.768-23.992,24.4l4.08,81.44l10.312,206.168l1.6,31.992c0,13.232,10.768,24,24,24h160
			c13.232,0,24-10.768,23.992-23.6l11.28-225.6l4.72-94.4c0.008-0.136,0.008-0.264,0.008-0.4C303.996,10.768,293.228,0,279.996,0z
			 M271.996,344c0,4.408-3.584,8-8,8h-160c-4.416,0-8-3.592-8.008-8.4L94.812,320h89.184h89.2L271.996,344z M273.996,304h-90H94.012
			l-9.416-188.384c0.232,0.072,0.488,0.136,0.72,0.2c1.312,0.392,2.576,0.816,3.824,1.248c0.512,0.176,1.048,0.344,1.56,0.528
			c1.704,0.608,3.392,1.24,5.096,1.88c11.152,4.192,22.688,8.528,45.48,8.528c22.824,0,34.368-4.328,45.528-8.512
			C197.076,115.64,206.78,112,226.636,112c19.896,0,29.608,3.64,39.888,7.496c2.112,0.792,4.28,1.576,6.504,2.352
			c0.656,0.232,1.328,0.448,2,0.672c2.392,0.792,4.888,1.552,7.624,2.232c0.104,0.024,0.184,0.056,0.288,0.08L273.996,304z
			 M283.764,108.456c-0.344-0.096-0.704-0.192-1.04-0.288c-1.288-0.384-2.544-0.792-3.768-1.208
			c-0.568-0.192-1.152-0.376-1.712-0.576c-1.712-0.608-3.4-1.232-5.112-1.872C260.98,100.328,249.436,96,226.636,96
			c-22.76,0-34.288,4.328-45.448,8.504c-10.28,3.856-19.992,7.496-39.912,7.496c-19.888,0-29.584-3.648-39.848-7.504
			c-1.504-0.568-3.04-1.136-4.592-1.704c-0.48-0.176-0.968-0.336-1.448-0.512c-1.216-0.432-2.464-0.848-3.752-1.256
			c-0.568-0.184-1.136-0.36-1.712-0.536c-1.464-0.44-3-0.864-4.592-1.264c-0.384-0.096-0.744-0.2-1.136-0.296
			c-0.144-0.032-0.28-0.08-0.424-0.112L79.996,24c0-4.408,3.584-8,8-8h192c4.36,0,7.904,3.504,8,7.832L283.764,108.456z"/>
	</g>
</g>
<g>
</g>
<g>
</g>
<g>
</g>
<g>
</g>
<g>
</g>
<g>
</g>
<g>
</g>
<g>
</g>
<g>
</g>
<g>
</g>
<g>
</g>
<g>
</g>
<g>
</g>
<g>
</g>
<g>
</g>
</svg>
