<?xml version="1.0"?>
<svg xmlns="http://www.w3.org/2000/svg" id="Outline" viewBox="0 0 512 512" width="512" height="512"><path d="M72,144H328a8,8,0,0,0,8-8V72a8,8,0,0,0-8-8H72a8,8,0,0,0-8,8v64A8,8,0,0,0,72,144Zm8-64H320v48H80Z"/><path d="M272,216a24,24,0,1,0-24-24A24.028,24.028,0,0,0,272,216Zm0-32a8,8,0,1,1-8,8A8.009,8.009,0,0,1,272,184Z"/><path d="M312,224a24,24,0,1,0,24,24A24.028,24.028,0,0,0,312,224Zm0,32a8,8,0,1,1,8-8A8.009,8.009,0,0,1,312,256Z"/><path d="M272,280a24,24,0,1,0,24,24A24.027,24.027,0,0,0,272,280Zm0,32a8,8,0,1,1,8-8A8.009,8.009,0,0,1,272,312Z"/><path d="M232,336a24,24,0,1,0,24,24A24.027,24.027,0,0,0,232,336Zm0,32a8,8,0,1,1,8-8A8.009,8.009,0,0,1,232,368Z"/><path d="M472,16H40a8,8,0,0,0-8,8V488a8,8,0,0,0,8,8H472a8,8,0,0,0,8-8V24A8,8,0,0,0,472,16ZM352,32V424.27a138.772,138.772,0,0,0-42.108-18.087,23.99,23.99,0,0,0-42.979-1.635c-.294.05-.593.095-.885.146-16,2.846-46.865,7.021-73.8,3.024-22.231-3.3-35.356-11.171-39.073-23.406A119.7,119.7,0,0,0,192,296a8,8,0,0,0-8-8H170.437a46.519,46.519,0,0,0-4.626-19.366l30.343-75.7A24,24,0,1,0,151.6,175.075l-30.342,75.7c-12.716,4.615-23.433,15.458-29.156,29.737A58.144,58.144,0,0,0,89.674,288H48v-9.376a24,24,0,1,0,0-45.248V32ZM296,416a8,8,0,1,1-8-8A8.009,8.009,0,0,1,296,416ZM48,304H175.7A104.139,104.139,0,0,1,72,400H48Zm102.2-30.535A29.646,29.646,0,0,1,154.413,288H106.392c.184-.514.357-1.03.561-1.54,4.354-10.863,12.881-19.068,22.253-21.412a8,8,0,0,0,5.484-4.784l31.762-79.237A8,8,0,0,1,181.3,186.98l-31.761,79.237A8,8,0,0,0,150.2,273.465ZM48,256a8,8,0,1,1,8,8A8.009,8.009,0,0,1,48,256Zm0,160H72a119.318,119.318,0,0,0,68.085-21.242c9.067,18.782,31.4,26.057,49.794,28.786a183.213,183.213,0,0,0,26.7,1.81,304.543,304.543,0,0,0,47.99-4.179,24,24,0,0,0,46.391,1.814A127.366,127.366,0,0,1,352,443.812V480H48Zm416,64H368V32h96Z"/><path d="M392,80h32a8,8,0,0,0,0-16H392a8,8,0,0,0,0,16Z"/><path d="M392,160h32a8,8,0,0,0,0-16H392a8,8,0,0,0,0,16Z"/><path d="M392,200h48a8,8,0,0,0,0-16H392a8,8,0,0,0,0,16Z"/><path d="M392,120h48a8,8,0,0,0,0-16H392a8,8,0,0,0,0,16Z"/><path d="M392,384h32a8,8,0,0,0,0-16H392a8,8,0,0,0,0,16Z"/><path d="M392,424h48a8,8,0,0,0,0-16H392a8,8,0,0,0,0,16Z"/><path d="M392,304h32a8,8,0,0,0,0-16H392a8,8,0,0,0,0,16Z"/><path d="M392,344h48a8,8,0,0,0,0-16H392a8,8,0,0,0,0,16Z"/><path d="M240,248a24,24,0,1,0-24,24A24.027,24.027,0,0,0,240,248Zm-32,0a8,8,0,1,1,8,8A8.009,8.009,0,0,1,208,248Z"/><path d="M88,216a24,24,0,1,0-24-24A24.027,24.027,0,0,0,88,216Zm0-32a8,8,0,1,1-8,8A8.009,8.009,0,0,1,88,184Z"/><path d="M392,264h48a8,8,0,0,0,0-16H392a8,8,0,0,0,0,16Z"/></svg>
