<svg id="Capa_1" enable-background="new 0 0 512.005 512.005" height="512" viewBox="0 0 512.005 512.005" width="512" xmlns="http://www.w3.org/2000/svg"><g><path d="m111.225 51.777v179.137c0 10.244 7.406 18.791 17.144 20.569l11.334 190.315c.129 2.167.767 4.257 1.841 6.105l1.537 25.804c.193 3.251 1.548 6.326 3.817 8.658 8.671 8.912 36.661 29.641 109.104 29.641s100.433-20.729 109.104-29.641c2.269-2.332 3.624-5.406 3.817-8.656l1.537-25.805c1.075-1.849 1.712-3.938 1.841-6.105l11.334-190.316c9.739-1.778 17.144-10.324 17.144-20.569v-179.137c0-11.528-9.379-20.908-20.908-20.908h-164.349l-2.013-8.908c-1.705-7.542-6.289-13.898-12.908-17.896-13.677-8.261-31.479-3.527-39.217 10.508-2.789 5.059-3.936 10.691-3.381 16.295h-25.869c-11.529.001-20.909 9.381-20.909 20.909zm268.647-5.908c3.258 0 5.908 2.65 5.908 5.908v179.137c0 3.258-2.65 5.908-5.908 5.908h-174.657c-4.142 0-7.5 3.358-7.5 7.5s3.358 7.5 7.5 7.5h163.373l-11.233 188.623c-2.383 2.367-7.594 6.695-17.284 11.202-3.756 1.747-5.385 6.208-3.638 9.963 1.744 3.75 6.201 5.387 9.963 3.638 3.095-1.439 5.839-2.89 8.261-4.304l-.675 11.335c-5.028 4.93-29.512 24.726-97.979 24.726s-92.951-19.796-97.98-24.726l-.67-11.255c16.167 9.471 46.023 20.072 98.65 20.072 20.269 0 38.763-1.615 54.97-4.8 4.064-.799 6.712-4.741 5.913-8.806-.799-4.064-4.742-6.709-8.806-5.913-15.256 2.999-32.777 4.519-52.077 4.519-71.042 0-96.292-20.656-101.354-25.652l-11.232-188.622h26.799c4.142 0 7.5-3.358 7.5-7.5s-3.358-7.5-7.5-7.5h-38.082c-3.258 0-5.908-2.65-5.908-5.908v-179.137c0-3.257 2.65-5.908 5.908-5.908h29.924l9.059 29.152c-11.186 5.13-18.679 16.371-18.679 29.229v74.191c0 17.738 14.431 32.168 32.169 32.168h142.792c17.738 0 32.169-14.431 32.169-32.168v-74.191c0-17.738-14.431-32.168-32.169-32.168h-45.608c-4.142 0-7.5 3.358-7.5 7.5s3.358 7.5 7.5 7.5h45.608c9.467 0 17.169 7.702 17.169 17.168v18.841c-6.683-5.455-15.113-8.822-24.264-9.046-.644-.016-1.307-.024-1.991-.024-11.82 0-18.045 2.47-23.539 4.65-4.858 1.928-9.054 3.592-18.006 3.592-8.951 0-13.146-1.665-18.003-3.592-7.587-3.011-13.557-4.76-24.445-4.645l-6.09-26.944h18.562c4.142 0 7.5-3.358 7.5-7.5s-3.358-7.5-7.5-7.5h-21.953l-5.925-26.212h160.958zm-186.185 127.814c11.819 0 18.044-2.47 23.537-4.65 4.857-1.928 9.052-3.592 18.003-3.592 7.957 0 11.95 1.189 18.003 3.592 5.493 2.18 11.718 4.65 23.537 4.65 4.142 0 7.5-3.358 7.5-7.5s-3.358-7.5-7.5-7.5c-16.743 0-17.996-6.172-34.134-7.875l-4.914-21.74c7.285.281 11.129 1.806 15.512 3.546 5.493 2.18 11.718 4.65 23.537 4.65 11.82 0 18.045-2.47 23.539-4.65 6.172-2.449 10.505-3.794 19.633-3.573 13.581.333 24.629 11.729 24.629 25.405v23.996c0 9.467-7.702 17.168-17.169 17.168h-142.793c-9.467 0-17.169-7.702-17.169-17.168v-15.77c0-13.276 10.139-24.079 23.056-25.295l6.594 21.218c-1.055.058-2.184.089-3.401.089-4.142 0-7.5 3.358-7.5 7.5s3.358 7.499 7.5 7.499zm-26.249-42.42v-27.013c0-6.165 3.224-11.634 8.204-14.667l10.34 33.274c-6.789 1.17-13.151 4.036-18.544 8.406zm7.082-109.446c3.61-6.55 11.926-8.777 18.326-4.911 3.093 1.868 5.235 4.838 6.032 8.363 2.931 12.967 27.781 122.906 28.39 125.6-6.948.8-11.462 2.589-15.564 4.217-.406-1.307-2.222-7.152-38.227-123.011-1.072-3.451-.701-7.094 1.043-10.258z"/></g></svg>