<?xml version="1.0" encoding="iso-8859-1"?>
<!-- Generator: Adobe Illustrator 19.0.0, SVG Export Plug-In . SVG Version: 6.00 Build 0)  -->
<svg version="1.1" id="Capa_1" xmlns="http://www.w3.org/2000/svg" xmlns:xlink="http://www.w3.org/1999/xlink" x="0px" y="0px"
	 viewBox="0 0 512 512" style="enable-background:new 0 0 512 512;" xml:space="preserve">
<g>
	<g>
		<path d="M341.333,277.333v-78.875c0-27.656-13.729-53.323-36.75-68.667c-17.063-11.375-27.25-30.406-27.25-50.917V64
			C283.229,64,288,59.229,288,53.333V10.667C288,4.771,283.229,0,277.333,0h-128c-5.896,0-10.667,4.771-10.667,10.667v42.667
			c0,5.896,4.771,10.667,10.667,10.667v14.875c0,20.51-10.188,39.542-27.25,50.917c-23.021,15.344-36.75,41.01-36.75,68.667v270.875
			c0,23.531,19.146,42.667,42.687,42.667c0,0,209.542,0,213.313,0c53.438,0,85.333-28.552,85.333-76.385
			C426.667,365.76,373.75,277.333,341.333,277.333z M160,21.333h106.667v21.333H160V21.333z M133.917,147.542
			c23.021-15.344,36.75-41.01,36.75-68.667V64H256v14.875c0,27.656,13.729,53.323,36.75,68.667
			c17.063,11.375,27.25,30.406,27.25,50.917v4.089c-50.408-0.605-77.031-5.328-104.75-10.37
			c-26.999-4.913-55.147-9.919-105.967-10.688C113.243,167.794,121.723,155.672,133.917,147.542z M128,490.667
			c-11.771,0-21.333-9.573-21.333-21.333V202.786c50.408,0.605,77.031,5.328,104.75,10.37
			c27.454,4.995,56.111,10.086,108.583,10.719v63.337c-30.145,24.874-64,92.52-64,148.402c0,23.181,7.629,41.714,21.431,54.783
			L128,490.667z M353.035,490.081c2.038-10.516,6.951-17.165,12.84-25.018C374.375,453.729,384,440.885,384,416
			c0-5.896-4.771-10.667-10.667-10.667c-5.896,0-10.667,4.771-10.667,10.667c0,17.781-6.125,25.938-13.875,36.271
			c-7.077,9.436-14.596,20.358-17.029,37.967c-26.714-2.104-54.43-14.014-54.43-54.624c0-65.719,50.146-135.542,63.917-136.948
			c0.023,0.003,0.057,0.026,0.081,0.029c-0.008,20.75-6.585,30.624-14.206,42.055c-8.333,12.51-17.792,26.688-17.792,53.917
			c0,5.896,4.771,10.667,10.667,10.667s10.667-4.771,10.667-10.667c0-20.771,6.583-30.646,14.208-42.083
			c6.306-9.466,13.237-19.911,16.246-36.219c19.547,25.102,44.212,73.137,44.212,119.25
			C405.333,475.137,379.065,487.505,353.035,490.081z"/>
	</g>
</g>
<g>
</g>
<g>
</g>
<g>
</g>
<g>
</g>
<g>
</g>
<g>
</g>
<g>
</g>
<g>
</g>
<g>
</g>
<g>
</g>
<g>
</g>
<g>
</g>
<g>
</g>
<g>
</g>
<g>
</g>
</svg>
