<svg height="512pt" viewBox="0 -56 512.001 512" width="512pt" xmlns="http://www.w3.org/2000/svg"><path d="m502 300h-30.414062c-1.550782-19.285156-7.539063-37.382812-17.28125-51.773438l-147.789063-218.316406c-12.792969-18.984375-31.164063-29.8867185-50.398437-29.910156-.023438 0-.042969 0-.0625 0-19.171876 0-37.496094 10.824219-50.277344 29.699219l-9.035156 13.347656c-3.09375 4.570313-1.898438 10.789063 2.675781 13.886719s10.789062 1.898437 13.886719-2.675782l9.035156-13.34375c9.128906-13.488281 21.105468-20.914062 33.714844-20.914062h.039062c12.667969.015625 24.683594 7.503906 33.847656 21.105469l147.804688 218.332031c7.5625 11.171875 12.324218 25.308594 13.777344 40.558594h-391.027344c1.636718-16.980469 7.386718-32.710938 16.355468-44.207032.136719-.179687.269532-.359374.394532-.546874l91.210937-134.738282c3.097657-4.574218 1.898438-10.789062-2.675781-13.886718-4.574219-3.097657-10.789062-1.898438-13.886719 2.675781l-91.027343 134.46875c-11.667969 15.082031-18.777344 34.761719-20.46875 56.238281h-30.398438c-5.523438 0-10 4.476562-10 10 0 24.441406 17.628906 44.84375 40.839844 49.160156 4.316406 23.207032 24.71875 40.839844 49.160156 40.839844h332.003906c24.4375 0 44.84375-17.632812 49.15625-40.84375 23.210938-4.3125 40.839844-24.714844 40.839844-49.160156 0-5.519532-4.476562-9.996094-10-9.996094zm-40 40h-40c-5.523438 0-10 4.476562-10 10s4.476562 10 10 10h28.28125c-4.128906 11.636719-15.242188 20-28.28125 20h-332c-13.035156 0-24.152344-8.363281-28.277344-20h280.277344c5.523438 0 10-4.476562 10-10s-4.476562-10-10-10h-292c-13.039062 0-24.160156-8.359375-28.285156-20h468.570312c-4.125 11.640625-15.246094 20-28.285156 20zm0 0"/><path d="m163 242.042969c-5.519531 0-10 4.476562-10 9.996093v.007813c0 5.523437 4.480469 9.996094 10 9.996094 5.523438 0 10-4.480469 10-10.003907 0-5.519531-4.476562-9.996093-10-9.996093zm0 0"/><path d="m238 148.042969c0-5.523438-4.476562-10-10-10-5.519531 0-10 4.476562-10 10v.003906c0 5.523437 4.480469 9.996094 10 9.996094 5.523438 0 10-4.480469 10-10zm0 0"/><path d="m267 215.042969c0-5.523438-4.476562-10-10-10s-10 4.476562-10 10v.003906c0 5.523437 4.476562 9.996094 10 9.996094s10-4.480469 10-10zm0 0"/><path d="m368 250.039062c0-5.519531-4.476562-9.996093-10-9.996093s-10 4.476562-10 9.996093v.011719c0 5.519531 4.476562 9.996094 10 9.996094s10-4.484375 10-10.007813zm0 0"/><path d="m382.003906 340h-.007812c-5.523438 0-9.996094 4.476562-9.996094 10s4.480469 10 10.003906 10c5.523438 0 10-4.476562 10-10s-4.476562-10-10-10zm0 0"/><path d="m176.597656 89.777344c1.800782 1.347656 3.902344 2 5.992188 2 3.039062 0 6.042968-1.382813 8.007812-4l.003906-.007813c3.3125-4.417969 2.417969-10.679687-2-13.996093-4.417968-3.3125-10.691406-2.414063-14.003906 2.003906-3.3125 4.417968-2.417968 10.6875 2 14zm0 0"/></svg>