<svg height="512" viewBox="0 0 60 60" width="512" xmlns="http://www.w3.org/2000/svg"><g id="Page-1" fill="none" fill-rule="evenodd"><g id="006---Butter" fill="rgb(0,0,0)" fill-rule="nonzero"><path id="Shape" d="m59 48h-3v-19c0-1.6568542-1.3431458-3-3-3h-10.651l-17.275-13.439h-.006l-3.576-2.785-12.019-9.348c-.41874662-.32576526-.94977089-.47180299-1.47621022-.40597463s-1.00515277.33812826-1.33078978.75697463l-1.228 1.578c-.65175028.83724528-.94415708 1.89913265-.81287722 2.95199716.13127987 1.05286451.67548947 2.01043562 1.51287722 2.66200284l9.651 7.506c.3493322.2735794.7802899.4221612 1.224.422.0842585.0001505.1684371-.0051942.252-.016.5266428-.0638519 1.0057072-.3361621 1.33-.756l2.006 1.56-.611.787c-.496472.6303395-.7171775 1.4345442-.612 2.23.097044.7845205.5066556 1.4966533 1.136 1.975l5.553 4.321h-19.067c-1.65685425 0-3 1.3431458-3 3v19h-3c-.55228475 0-1 .4477153-1 1v2c.00541052 1.3608637.92616009 2.5476168 2.243 2.891l1.357 4.058c.40786258 1.2231399 1.55165191 2.0488744 2.841 2.051h47.118c1.2893481-.0021256 2.4331374-.8278601 2.841-2.051l1.353-4.058c1.318427-.3418558 2.2411122-1.5289866 2.247-2.891v-2c0-.5522847-.4477153-1-1-1zm-41.98-34.1-9.652-7.508c-.41869387-.32578361-.69079868-.80456916-.75643861-1.33100142s.08056347-1.05737594.40643861-1.47599858l1.226-1.578 11.231 8.734zm4.034-1.929 2 1.557-1.229 1.579-2-1.557zm.681 8.126c-.2063621-.1565133-.3405585-.3899141-.372-.647-.0346069-.2661095.0400736-.534887.207-.745l3.066-3.949 17.364 13.503-.608.787c-1.6956429 2.1779726-4.8336774 2.5737486-7.017.885l-1.375-1.07v-.861c0-1.1045695-.8954305-2-2-2h-1.676zm-15.735 8.903c0-.5522847.44771525-1 1-1h24v7c0 .5522847.4477153 1 1 1s1-.4477153 1-1v-3.6l.146.114c3.0566006 2.3659805 7.451487 1.8117551 9.825-1.239l.6-.781c.3288249-.4149074.4766178-.944799.41-1.47v-.02h9.019c.5522847 0 1 .4477153 1 1v18.996h-48zm48.508 28.316c-.1360719.4085428-.5183926.6841037-.949.684h-47.118c-.43060741.0001037-.81292807-.2754572-.949-.684l-1.104-3.316h51.224zm3.492-6.316c0 .5522847-.4477153 1-1 1h-54c-.55228475 0-1-.4477153-1-1v-1h56z"/><path id="Shape" d="m11 30h-2c-.55228475 0-1 .4477153-1 1s.44771525 1 1 1h2c.5522847 0 1-.4477153 1-1s-.4477153-1-1-1z"/><path id="Shape" d="m27 30h-12c-.5522847 0-1 .4477153-1 1s.4477153 1 1 1h12c.5522847 0 1-.4477153 1-1s-.4477153-1-1-1z"/></g></g></svg>