<svg id="Capa_1" enable-background="new 0 0 512 512" height="512" viewBox="0 0 512 512" width="512" xmlns="http://www.w3.org/2000/svg"><g><path d="m399.12 144.555-26.813-78.651v-50.904c0-8.284-6.716-15-15-15h-202.614c-8.284 0-15 6.716-15 15v50.903l-26.813 78.652c-.531 1.559-.802 3.194-.802 4.84v347.605c0 8.284 6.716 15 15 15h257.846c8.284 0 15-6.716 15-15v-347.604c-.001-1.647-.273-3.282-.804-4.841zm-233.693-61.165h181.146l17.388 51.006h-215.923zm4.266-53.39h172.615v23.39h-172.615zm-27.616 194.396h227.846v197.604h-227.846zm227.846 257.604h-227.846v-30h227.846zm-227.846-287.604v-30h227.846v30z"/><path d="m305.696 290.204c-1.126-11.967-6.845-22.78-16.102-30.444-9.258-7.667-20.944-11.272-32.916-10.144-11.968 1.126-22.781 6.845-30.445 16.103-12.979 15.675-20.128 36.085-20.129 57.472-.001 21.386 7.145 41.798 20.122 57.478 8.579 10.365 21.22 16.309 34.684 16.309 10.439 0 20.623-3.67 28.676-10.334 18.897-15.641 21.73-43.601 6.504-62.706-.072-.431-.072-1.047-.001-1.479 7.3-9.15 10.707-20.57 9.607-32.255zm-33.246 52.21c5.273 6.372 4.38 15.846-1.991 21.119-3.441 2.848-7.092 3.446-9.548 3.446-4.495 0-8.713-1.982-11.573-5.437-17.502-21.148-17.501-55.55.004-76.69 2.554-3.086 6.158-4.992 10.147-5.367.479-.045.956-.067 1.432-.067 3.48 0 6.824 1.2 9.54 3.449 3.086 2.555 4.992 6.159 5.367 10.147.376 3.989-.825 7.885-3.382 10.973-8.62 10.412-8.618 28.011.004 38.427z"/></g></svg>