<svg height="512" viewBox="0 0 61 60" width="512" xmlns="http://www.w3.org/2000/svg"><g id="004---Coconut-Milk"><path id="Shape" d="m3 60h30c.9655721-.0044649 1.8699725-.4734133 2.43-1.26 7.4394022 2.9431119 15.9285298.6227622 20.8365582-5.6952968 4.9080284-6.3180591 5.0569029-15.1173287.3654125-21.5978017-4.6914905-6.480473-13.0972661-9.086667-20.6319707-6.3969015 0-5.94 0-4.93 0-5.2s.44 1.33-4-13v-1.85c0-2.76142375-2.2385763-5-5-5h-18c-2.76142375 0-5 2.23857625-5 5v1.85l-4 12.86v37.29c0 1.6568542 1.34314575 3 3 3zm2.74-52h24.52l3.39 11h-31.3zm19.68 27h-18.42c-.55228475 0-1 .4477153-1 1s.44771525 1 1 1h17.72c-.2870964.9805911-.4878616 1.9844173-.6 3h-2.12c-.5522847 0-1 .4477153-1 1s.4477153 1 1 1h2c.0028565 2.0454566.3580502 4.0751347 1.05 6h-23.05v-18h26.62c-1.3370766 1.4772846-2.4185625 3.1671064-3.2 5zm-22.42 23c-.55228475 0-1-.4477153-1-1v-7h23.9c1.6561543 3.3394393 4.3082154 6.0823484 7.59 7.85-.39.23 1.63.15-30.49.15zm55-16c0 8.836556-7.163444 16-16 16s-16-7.163444-16-16 7.163444-16 16-16 16 7.163444 16 16zm-27.29-14h-28.71v-7h32v4.9c-1.1708902.5762888-2.2742941 1.2805892-3.29 2.1zm-24.71-23c0-1.65685425 1.34314575-3 3-3h18c1.6568542 0 3 1.34314575 3 3v1h-24z"/><path id="Shape" d="m18 17c2.8 0 5-1.54 5-3.5s-2.2-3.5-5-3.5-5 1.54-5 3.5 2.2 3.5 5 3.5zm0-5c1.72 0 3 .79 3 1.5s-1.28 1.5-3 1.5-3-.79-3-1.5 1.28-1.5 3-1.5z"/><path id="Shape" d="m7 42h11c.5522847 0 1-.4477153 1-1s-.4477153-1-1-1h-11c-.55228475 0-1 .4477153-1 1s.44771525 1 1 1z"/><path id="Shape" d="m49.78 45.54c3.75-3.76-7.54-15.08-11.32-11.32s7.54 15.08 11.32 11.32zm-9.9-9.9c.144161-.1141572.3269897-.1679303.51-.15 1 0 3 .86 5.15 3 2.63 2.64 3.32 5.16 2.82 5.66s-3-.2-5.65-2.83-3.33-5.19-2.83-5.68z"/><path id="Shape" d="m33.51 49.07 1.42 1.42c2.0630484 2.0640171 4.8617239 3.2236512 7.78 3.2236512s5.7169516-1.1596341 7.78-3.2236512l2.12-2.13c1.57-1.57 2.1-4 1.49-6.7-1.92-8.6-13.38-15.35-18.46-10.27l-2.13 2.12c-2.0640171 2.0630484-3.2236512 4.8617239-3.2236512 7.78s1.1596341 5.7169516 3.2236512 7.78zm8.39-17.22c4.9705439 1.3950857 8.8549143 5.2794561 10.25 10.25 1 4.27-1.58 6.75-5.81 5.8-4.9672882-1.3910009-8.8489991-5.2727118-10.24-10.24-.96-4.33 1.62-6.74 5.8-5.81zm-8 4.31c.16 6.54 7.32 13.78 14 13.93-3.5725192 2.4982268-8.4218543 2.0769118-11.51-1l-1.41-1.41c-3.1077034-3.0691913-3.5630922-7.9266716-1.08-11.52z"/></g></svg>