<svg xmlns="http://www.w3.org/2000/svg" enable-background="new 0 0 435.871 435.871" viewBox="0 0 435.871 435.871"><path d="M324.97,196.422c-1.193-24.459-11.123-47.423-28.267-65.126c-14.922-15.41-23.752-35.25-25.302-56.447h12.473v-12.48
		V40.937V22.521C283.874,10.103,273.771,0,261.354,0h-87.989c-12.418,0-22.521,10.103-22.521,22.521v18.416v21.432v12.48h13.626
		c-1.55,21.198-10.38,41.037-25.302,56.447c-17.144,17.704-27.074,40.668-28.267,65.127h-0.123v5v179.735v18.482
		c0,19.978,16.253,36.231,36.23,36.231h141.854c19.978,0,36.23-16.253,36.23-36.231v-18.482V201.422v-5H324.97z M143.853,381.158
		h148.166v18.482c0,1.741-1.416,3.157-3.156,3.157H147.009c-1.74,0-3.156-1.416-3.156-3.157V381.158z M120.778,371.158V206.422
		h194.314v164.735H120.778z M144.057,196.422c1.171-15.775,7.839-30.665,19.109-42.366c10.974-11.394,19.521-24.483,25.441-38.95
		l58.53-0.063c6.078,14.275,15.293,28.357,25.615,39.064c11.317,11.736,17.982,26.616,19.084,42.315H144.057z M160.844,22.521
		c0-6.904,5.616-12.521,12.521-12.521h87.989c6.904,0,12.521,5.617,12.521,12.521v18.416h-113.03V22.521z M160.844,62.368V50.937
		h113.03v11.432v2.48h-113.03V62.368z M146.352,138.252c16.74-17.287,26.598-39.591,28.164-63.403h86.841
		c1.566,23.812,11.423,46.116,28.164,63.404c15.327,15.827,24.242,36.324,25.426,58.17h-13.084
		c-1.112-18.299-8.782-35.642-21.909-49.256c-10.209-10.589-19.25-24.787-24.805-38.952l-1.247-3.179l-72.161,0.079l-1.219,3.232
		c-5.458,14.476-13.72,27.521-24.558,38.774c-13.076,13.578-20.745,30.928-21.93,49.303h-13.108
		C122.11,174.576,131.025,154.079,146.352,138.252z M315.093,399.64c0,14.464-11.767,26.231-26.23,26.231H147.009
		c-14.464,0-26.23-11.767-26.23-26.231v-18.482h13.074v18.482c0,7.255,5.902,13.157,13.156,13.157h141.854
		c7.254,0,13.156-5.902,13.156-13.157v-18.482h13.074V399.64z"/><path d="M251.338,244l1.097-5.621c0.292-1.497,1.28-2.756,2.578-3.286c1.283-0.522,2.638-0.401,3.814,0.344l2.358,1.495
		c3.48,2.204,7.605,2.919,11.629,2.02c4.019-0.902,7.446-3.315,9.649-6.794l5.306-8.375l-15.386-9.746
		c-8.243-5.223-18.515-6.036-27.477-2.175c-8.962,3.86-15.429,11.882-17.298,21.46L225.525,244h-17.138l-2.084-10.68
		c-1.869-9.578-8.336-17.6-17.298-21.459c-8.96-3.859-19.233-3.047-27.478,2.175l-15.384,9.746l5.304,8.375
		c4.551,7.183,14.096,9.324,21.279,4.774l2.358-1.494c1.174-0.744,2.528-0.867,3.813-0.344c1.298,0.529,2.286,1.789,2.579,3.286
		l1.097,5.621h-10.887h-41.505l7.24,12.516c7.179,12.407,20.098,20.451,34.265,21.541v40.448l25.253,48.624h41.04l25.253-48.624
		V278.12c14.537-0.796,27.874-8.92,35.213-21.604l7.24-12.516h-42.453H251.338z M237.424,235.237
		c1.236-6.334,5.513-11.639,11.438-14.191c5.925-2.552,12.718-2.017,18.17,1.438l6.938,4.394c-0.775,1.185-1.96,2.005-3.345,2.316
		c-1.417,0.316-2.865,0.064-4.088-0.709l-2.358-1.495c-3.928-2.486-8.643-2.909-12.943-1.155c-4.451,1.815-7.672,5.79-8.615,10.63
		L241.149,244h-5.436L237.424,235.237z M191.293,236.463c-0.945-4.842-4.168-8.816-8.62-10.63c-4.294-1.75-9.012-1.331-12.938,1.157
		l-2.358,1.494c-2.497,1.584-5.816,0.861-7.434-1.605l6.938-4.395c5.451-3.454,12.245-3.991,18.171-1.438
		c5.926,2.552,10.202,7.857,11.438,14.19l1.71,8.764h-5.435L191.293,236.463z M253.234,254v14.184v1.927l-0.42,0.315
		c-13.573,10.209-21.905,26.171-22.637,43.076h-25.21c-0.781-16.841-9.105-32.73-22.632-42.905l-0.647-0.487v-1.926V254H253.234z
		 M205.045,323.502h25.061v4.185l-12.629,6.166l-12.432-6.148V323.502z M147.674,254h24.015v14.004
		C162.063,267.04,153.252,261.918,147.674,254z M231.907,357.129h-28.892l-21.327-41.065v-32.723
		c8.452,8.696,13.356,20.493,13.356,32.754v15.049v2.771l22.402,11.081l22.658-11.062v-2.789v-15.221
		c0-12.152,4.815-23.85,13.129-32.523v32.663L231.907,357.129z M288.196,254c-5.761,8.177-14.968,13.379-24.962,14.092V254H288.196z
		"/></svg>