<svg height="512" viewBox="0 0 44 60" width="512" xmlns="http://www.w3.org/2000/svg"><g id="Page-1" fill="none" fill-rule="evenodd"><g id="020---Overnight-Oats" fill="rgb(0,0,0)" fill-rule="nonzero"><path id="Shape" d="m7 12c-3.86416566.0044086-6.99559136 3.1358343-7 7v34c.00440864 3.8641657 3.13583434 6.9955914 7 7h30c3.8641657-.0044086 6.9955914-3.1358343 7-7v-34c-.0044086-3.8641657-3.1358343-6.9955914-7-7h-1v-2c1.1045695 0 2-.8954305 2-2v-5c0-1.65685425-1.3431458-3-3-3h-26c-1.65685425 0-3 1.34314575-3 3v5c0 1.1045695.8954305 2 2 2v2zm30 46h-30c-2.76005315-.0033061-4.99669388-2.2399468-5-5v-21c-.07641309-1.1379037.47572687-2.2264521 1.439-2.837.93636628-.5793113 2.09242142-.6788048 3.114-.268.46621169.230732 1.03145794.0655062 1.3-.38.1-.172 2.587-4.175 7.7-1.62.2712795.1355107.5893946.1406046.8648738.0138492s.4785605-.3716659.5521262-.6658492c.009-.033.859-3.243 5.03-3.243 4.119 0 5 3.117 5.03 3.243.0736133.2932452.2759476.5374418.5504007.6642768.2744532.126835.5915556.1226895.8625993-.0112768.138-.068 3.409-1.63 5.85.811.2567162.2563473.6321349.3535505.981.254.031-.009 3.109-.836 5.078.408.9255518.6265314 1.5283476 1.6287525 1.648 2.74v21.891c-.0033061 2.7600532-2.2399468 4.9966939-5 5zm5-39v8.143c-.1823693-.1678947-.376168-.3229337-.58-.464-2.156-1.362-4.946-1.01-6.13-.773-1.879213-1.5413283-4.4255414-1.9926195-6.72-1.191-1.2817605-2.4100762-3.8440763-3.8589351-6.57-3.715-2.7059071-.1416637-5.2523011 1.2846282-6.545 3.666-3.0865649-1.3713767-6.70950892-.4956985-8.829 2.134-1.44455803-.3529532-2.97025608-.1142704-4.238.663-.137.085-.262.181-.388.276v-8.739c.00330612-2.7600532 2.23994685-4.9966939 5-5h30c2.7600532.0033061 4.9966939 2.2399468 5 5zm-7-11h-27v-2h28v2zm-26-6h26c.5522847 0 1 .44771525 1 1v1h-28v-1c0-.55228475.44771525-1 1-1zm1 8h24v2h-24z"/><path id="Shape" d="m11 39c-.545859.0005356-.9891562.4411543-.993.987-.0039872.5486975.4324571.9993785.981 1.013.2741498-.0291128.5468874.0663894.7429897.2601664.1961024.193777.294851.465356.2690103.7398336 0 .5522847.4477153 1 1 1s1-.4477153 1-1c.0234737-.8026156-.2850527-1.5793921-.8528303-2.1471697s-1.3445541-.876304-2.1471697-.8528303z"/><path id="Shape" d="m35 36c-.0261168-.2741851.0722548-.5456088.267977-.7393932.1957223-.1937844.4681113-.2894505.742023-.2606068.5522847-.0027614.9977614-.4527153.995-1.005s-.4527153-.9977614-1.005-.995c-.8026156-.0234737-1.5793921.2850527-2.1471697.8528303s-.876304 1.3445541-.8528303 2.1471697c0 .5522847.4477153 1 1 1s1-.4477153 1-1z"/><path id="Shape" d="m8 49c-.54585895.0005356-.98915618.4411543-.993.987-.00398717.5486975.43245713.9993785.981 1.013.27414981-.0291128.54688736.0663894.74298971.2601664.19610236.193777.29485098.465356.26901029.7398336 0 .5522847.44771525 1 1 1 .5522847 0 1-.4477153 1-1 .0234737-.8026156-.2850527-1.5793921-.8528303-2.1471697s-1.34455412-.876304-2.1471697-.8528303z"/><path id="Shape" d="m18 31c-.082 0-2 .034-2 3 0 .5522847.4477153 1 1 1s1-.4477153 1-1c-.0341065-.350252.0310436-.7030327.188-1.018.5060908-.097342.8553187-.5633659.8066526-1.0764302-.048666-.5130643-.4792856-.9051168-.9946526-.9055698z"/><path id="Shape" d="m24 41c-.545859.0005356-.9891562.4411543-.993.987-.0039872.5486975.4324571.9993785.981 1.013.2741498-.0291128.5468874.0663894.7429897.2601664.1961024.193777.294851.465356.2690103.7398336 0 .5522847.4477153 1 1 1s1-.4477153 1-1c.0234737-.8026156-.2850527-1.5793921-.8528303-2.1471697s-1.3445541-.876304-2.1471697-.8528303z"/><path id="Shape" d="m24 51c-.5522847 0-1 .4477153-1 1s.4477153 1 1 1c.2741851-.0261168.5456088.0722548.7393932.267977.1937844.1957223.2894505.4681113.2606068.742023.0027614.5522847.4527153.9977614 1.005.995s.9977614-.4527153.995-1.005c.0234737-.8026156-.2850527-1.5793921-.8528303-2.1471697s-1.3445541-.876304-2.1471697-.8528303z"/><path id="Shape" d="m37 47c-.8026156-.0234737-1.5793921.2850527-2.1471697.8528303s-.876304 1.3445541-.8528303 2.1471697c.0005356.545859.4411543.9891562.987.993h.013c.5436474-.0030748.9864984-.4375116 1-.981-.029492-.2742386.0658859-.5472041.2597533-.7433979s.4656758-.2948208.7402467-.2686021c.5522847 0 1-.4477153 1-1s-.4477153-1-1-1z"/><path id="Shape" d="m7 16h-1c-.55228475 0-1 .4477153-1 1s.44771525 1 1 1h1c.55228475 0 1-.4477153 1-1s-.44771525-1-1-1z"/><path id="Shape" d="m18 16h-7c-.5522847 0-1 .4477153-1 1s.4477153 1 1 1h7c.5522847 0 1-.4477153 1-1s-.4477153-1-1-1z"/></g></g></svg>