<svg id="Capa_1" enable-background="new 0 0 512.009 512.009" height="512" viewBox="0 0 512.009 512.009" width="512" xmlns="http://www.w3.org/2000/svg"><g><path d="m504.399 397.617c-.677-.844-12.887-15.839-32.643-26.069 21.85-31.222 24.185-67.979 24.285-69.765l.944-16.763-16.763.943c-1.617.091-31.899 2.014-60.785 18.59-3.384-37.354-21.18-63.665-29.438-74.052v-78.496c-12.702 0-384.737 0-390 0v56.6c0 30.762 11.387 60.231 32.063 82.978 18.223 20.048 42.305 33.425 68.641 38.328 1.791 5.514 3.794 10.976 6.031 16.375 19.632 47.397 49.319 72.455 52.051 75.719h90c8.745 8.22 28.229 24.063 52.627 28.697-1.948 9.5-2.415 15.919-2.443 16.334l-1.177 17.028 17.039-1.021c1.144-.069 21.816-1.441 45.168-11.1v40.062h30v-40.062c23.352 9.659 44.025 11.031 45.168 11.1l17.037 1.021-1.175-17.027c-.029-.416-.495-6.84-2.444-16.347 32.511-6.271 54.673-32.905 55.72-34.183l7.703-9.408zm-474.399-189.013v-26.6h60v80.147c0 11.717.934 23.315 2.76 34.749-36.925-12.687-62.76-47.558-62.76-88.296zm90 53.548v-80.147h240v48.495c-8.258 10.387-26.054 36.698-29.438 74.052-28.887-16.577-59.167-18.499-60.785-18.59l-16.763-.943.944 16.763c.1 1.784 2.43 38.442 24.192 69.634-13.272 6.61-23.61 15.232-29.339 20.589h-77.463c-33.161-35.315-51.348-81.185-51.348-129.853zm313.359 159.648c-2.992-.43-1.169-.155-25.634-2.713 6.62 20.199 7.944 23.304 9.817 30.505-10.106-2.641-22.69-7.198-34.074-14.983l-8.467-5.79-8.467 5.79c-11.384 7.785-23.971 12.342-34.073 14.983 1.901-7.304 3.27-10.528 9.817-30.505-24.637 2.576-22.646 2.284-25.633 2.713-12.014 1.718-28.213-6.411-39.172-14.764 7.406-5.61 17.818-11.909 29.359-14.128l28.576-5.494c-32.327-30.8-21.987-20.775-24.046-22.837-13.627-13.627-20.565-31.713-24.051-45.262 13.555 3.487 31.638 10.424 45.264 24.05 3.168 3.173-11.406-11.808 30.886 32.257-2.492-38.052-3.461-44.592-3.461-58.618 0-23.793 7.968-42.942 15.054-55.267 7.058 12.24 14.946 31.285 14.946 55.267 0 14.017-.971 20.593-3.459 58.618 42.122-43.888 27.831-29.202 30.886-32.257 13.628-13.627 31.713-20.565 45.263-24.051-3.487 13.556-10.425 31.639-24.053 45.266-2.069 2.069 8.294-7.977-24.044 22.834l28.576 5.494c11.478 2.207 21.291 8.519 28.05 14.051-10.467 8.569-26.019 16.536-37.86 14.841z"/><path d="m155 54.004c-3.507 2.63-21 16.654-21 34.5s17.493 31.87 21 34.5l12 9 18-24-12-9c-3.526-2.645-8.313-7.991-8.965-10.5.613-2.339 4.95-7.434 8.965-10.5 3.507-2.63 21-16.654 21-34.5s-17.493-31.87-21-34.5l-12-9-18 24 12 9c3.526 2.645 8.313 7.991 8.965 10.5-.612 2.339-4.95 7.434-8.965 10.5z"/><path d="m230 54.004c-3.507 2.63-21 16.654-21 34.5s17.493 31.87 21 34.5l12 9 18-24-12-9c-3.526-2.645-8.313-7.991-8.965-10.5.613-2.339 4.95-7.434 8.965-10.5 3.507-2.63 21-16.654 21-34.5s-17.493-31.87-21-34.5l-12-9-18 24 12 9c3.526 2.645 8.313 7.991 8.965 10.5-.612 2.339-4.95 7.434-8.965 10.5z"/><path d="m305 54.004c-3.507 2.63-21 16.654-21 34.5s17.493 31.87 21 34.5l12 9 18-24-12-9c-3.526-2.645-8.313-7.991-8.965-10.5.613-2.339 4.95-7.434 8.965-10.5 3.507-2.63 21-16.654 21-34.5s-17.493-31.87-21-34.5l-12-9-18 24 12 9c3.526 2.645 8.313 7.991 8.965 10.5-.612 2.339-4.95 7.434-8.965 10.5z"/></g></svg>