<?xml version="1.0" encoding="iso-8859-1"?>
<!-- Generator: Adobe Illustrator 19.0.0, SVG Export Plug-In . SVG Version: 6.00 Build 0)  -->
<svg version="1.1" id="Capa_1" xmlns="http://www.w3.org/2000/svg" xmlns:xlink="http://www.w3.org/1999/xlink" x="0px" y="0px"
	 viewBox="0 0 490.355 490.355" style="enable-background:new 0 0 490.355 490.355;" xml:space="preserve">
<g id="XMLID_461_">
	<path id="XMLID_462_" d="M319.355,74.178c-12.113,0-24.135,1.303-35.863,3.824c0.68-19.688-1.591-43.979-13.052-63.829l-7.5-12.99
		L135.949,74.502l7.5,12.99c11.482,19.888,31.427,34.014,48.853,43.272c-17.713,19.697-30.73,43.329-37.79,68.845L78.2,212.986
		c-11.555-9.297-36.499-26.453-63.2-26.453H0v118h15c26.702,0,51.646-17.156,63.2-26.452l76.522,13.413
		c7.105,25.228,20.043,48.596,37.578,68.097c-17.426,9.259-37.369,23.385-48.852,43.272l-7.5,12.99l126.991,73.319l7.5-12.99
		c11.461-19.85,13.732-44.14,13.051-63.829c11.73,2.522,23.753,3.824,35.864,3.824c94.29,0,171-76.71,171-171
		S413.646,74.178,319.355,74.178z M420,260.178h39.557c-0.912,8.585-2.601,16.941-4.99,25H420V260.178z M420,230.178v-25h34.567
		c2.388,8.059,4.078,16.415,4.99,25H420z M441.72,175.178H420v-28.643C428.393,155.096,435.71,164.714,441.72,175.178z
		 M250.179,43.191c4.259,15.405,3.762,32.722,2.602,44.505c-13.053,5.512-25.433,12.643-36.802,21.274
		c-10.808-4.894-26.056-13.123-37.269-24.515L250.179,43.191z M30,219.395c10.974,3.839,21.642,10.83,28.849,16.534v19.209
		c-7.206,5.704-17.875,12.695-28.849,16.533V219.395z M250.179,447.164l-71.469-41.263c11.214-11.395,26.463-19.624,37.27-24.518
		c11.367,8.63,23.746,15.763,36.8,21.274C253.94,414.442,254.437,431.759,250.179,447.164z M181.572,275.222l-2.138-9.854
		L88.849,249.49v-7.913l90.479-15.86l2.101-9.916c13.7-64.679,71.708-111.623,137.928-111.623c25.725,0,49.86,6.93,70.645,19.013
		v243.974c-20.785,12.083-44.919,19.013-70.645,19.013C253.467,386.178,195.521,339.514,181.572,275.222z M420,343.82v-28.643h21.72
		C435.71,325.641,428.393,335.259,420,343.82z"/>
	<rect id="XMLID_474_" x="304.355" y="175.178" width="30" height="30"/>
	<rect id="XMLID_475_" x="304.355" y="285.178" width="30" height="30"/>
	<rect id="XMLID_476_" x="244.355" y="230.178" width="30" height="30"/>
</g>
<g>
</g>
<g>
</g>
<g>
</g>
<g>
</g>
<g>
</g>
<g>
</g>
<g>
</g>
<g>
</g>
<g>
</g>
<g>
</g>
<g>
</g>
<g>
</g>
<g>
</g>
<g>
</g>
<g>
</g>
</svg>
