<svg id="Capa_1" enable-background="new 0 0 512 512" height="512" viewBox="0 0 512 512" width="512" xmlns="http://www.w3.org/2000/svg"><g><path d="m448.192 228.593h-230.272v-94.635h149.266c4.11 0 7.442-3.332 7.442-7.442s-3.332-7.442-7.442-7.442h-149.266v-24.808h240.2c6.839 0 12.404 5.564 12.404 12.404-.712 7.557-4.846 11.692-12.404 12.404h-58.495c-4.11 0-7.442 3.332-7.442 7.442s3.332 7.442 7.442 7.442h58.495c16.627-1.562 25.723-10.658 27.288-27.288 0-15.047-12.241-27.288-27.288-27.288h-240.2v-12.402c0-4.465-1.085-8.679-2.994-12.404h243.189c15.047 0 27.288-12.241 27.288-27.288s-12.241-27.288-27.288-27.288h-404.23c-15.047 0-27.288 12.242-27.288 27.288s12.241 27.288 27.288 27.288h33.065c-1.909 3.724-2.994 7.938-2.994 12.402v12.404h-30.076c-16.628 1.564-25.724 10.66-27.288 27.288 0 15.047 12.241 27.288 27.288 27.288h30.076v26.296c0 4.11 3.332 7.442 7.442 7.442s7.442-3.332 7.442-7.442v-93.276c0-6.83 5.549-12.386 12.375-12.402h.059c3.299.008 6.401 1.296 8.739 3.634 2.344 2.345 3.635 5.459 3.635 8.768v161.615h-24.807v-35.901c0-4.11-3.332-7.442-7.442-7.442s-7.442 3.332-7.442 7.442v35.901h-20.149c-20.518 0-37.211 16.693-37.211 37.211v54.496c0 72.22 53.466 136.559 124.677 149.542-11.687 17.905 1.669 42.158 22.862 42.158h163.728c21.193 0 34.549-24.253 22.863-42.158 71.143-12.97 124.677-77.363 124.677-149.542v-54.496c-.001-20.519-16.693-37.211-37.212-37.211zm-364.235-109.52h-30.077c-6.839 0-12.404-5.564-12.404-12.404.712-7.557 4.847-11.691 12.404-12.404h30.076v24.808zm119.079 109.52h-24.807v-161.613c0-6.839 5.564-12.404 12.404-12.404s12.404 5.564 12.404 12.404v161.613zm-149.151-188.901c-6.839 0-12.404-5.564-12.404-12.404s5.564-12.404 12.404-12.404h404.231c6.839 0 12.404 5.565 12.404 12.404s-5.564 12.403-12.404 12.403h-404.231zm84.652 27.288c0-6.839 5.564-12.404 12.404-12.404s12.404 5.564 12.404 12.404v161.613h-24.807v-161.613zm199.327 430.136h-163.728c-16.033 0-16.034-24.807 0-24.807h163.728c16.034-.001 16.034 24.807 0 24.807zm132.655-176.816c0 19.08-3.922 37.26-10.994 53.783h-141.745c-4.11 0-7.442 3.332-7.442 7.442s3.332 7.442 7.442 7.442h134.269c-23.759 40.897-68.047 68.457-118.654 68.457h-154.79c-50.607 0-94.895-27.56-118.654-68.457h225.401c4.11 0 7.442-3.332 7.442-7.442s-3.332-7.442-7.442-7.442h-232.877c-7.072-16.523-10.994-34.703-10.994-53.783v-28.084h429.038zm0-42.968h-429.038v-11.528c0-12.311 10.015-22.327 22.327-22.327h384.385c12.311 0 22.327 10.015 22.327 22.327v11.528z"/></g></svg>