<?xml version="1.0"?>
<svg xmlns="http://www.w3.org/2000/svg" viewBox="0 0 512 512" width="512" height="512"><g id="Outline"><path d="M144.151,185.685a37.276,37.276,0,0,0,22.117,34.032,142.763,142.763,0,0,0,115.767,0,37.242,37.242,0,0,0-30.251-68.065,68.146,68.146,0,0,1-55.265,0,37.243,37.243,0,0,0-52.368,34.033Zm25.667-17.812a21.04,21.04,0,0,1,11.515-3.477,21.365,21.365,0,0,1,8.688,1.877,84.183,84.183,0,0,0,68.261,0,21.242,21.242,0,0,1,29.869,19.412A21.261,21.261,0,0,1,275.537,205.1a126.735,126.735,0,0,1-102.771,0,21.263,21.263,0,0,1-12.615-19.411A20.9,20.9,0,0,1,169.818,167.873ZM193.74,361.989a145.48,145.48,0,0,0-57.915-115.83l-6.079-4.559a8,8,0,0,0-9.6,0l-6.08,4.559a145.483,145.483,0,0,0-57.915,115.83,68.795,68.795,0,1,0,137.589,0Zm-37.117,42.236a52.8,52.8,0,0,1-84.472-42.236A129.4,129.4,0,0,1,123.666,258.96l1.28-.96,1.28.96A129.4,129.4,0,0,1,177.74,361.989,53.046,53.046,0,0,1,156.623,404.225ZM86.549,323.993h16v53.195h-16Zm30.4-38h16V399.985h-16Zm46.4,38v53.195h-16V323.993Zm54.979-194.266a34.209,34.209,0,0,0,34.17-34.17V61.909a8,8,0,0,0-1.6-4.8L228.46,27.2a8,8,0,0,0-6.4-3.2,37.952,37.952,0,0,0-37.91,37.909V95.557A34.209,34.209,0,0,0,218.322,129.727ZM200.151,61.909A21.945,21.945,0,0,1,218.3,40.322l18.19,24.254V95.557a18.171,18.171,0,0,1-36.341,0ZM477.62,289.319a8,8,0,0,0-6.787-6.788l-7.524-1.075a145.485,145.485,0,0,0-122.856,40.953,68.794,68.794,0,0,0,38.916,116.748,68.033,68.033,0,0,0,9.614.682,69.188,69.188,0,0,0,48.76-20.14A145.483,145.483,0,0,0,478.7,296.842ZM426.429,408.385a52.794,52.794,0,1,1-74.662-74.662,129.5,129.5,0,0,1,91.28-37.7,127.151,127.151,0,0,1,18,1.277l1.583.225.227,1.584A129.406,129.406,0,0,1,426.429,408.385Zm-63.915-42.421L351.2,354.649l37.615-37.614,11.313,11.315Zm74.662-54.3,11.314,11.315-80.6,80.6-11.313-11.314ZM431.8,360.022l11.313,11.315L405.5,408.952l-11.314-11.314ZM329.608,255.158l1.075,7.523a8,8,0,0,0,6.788,6.788l7.523,1.075a143.024,143.024,0,0,0,20.236,1.435,145.607,145.607,0,0,0,102.62-42.388,68.794,68.794,0,0,0-97.29-97.29A145.478,145.478,0,0,0,329.608,255.158Zm97.063-126.474a52.792,52.792,0,0,1,29.865,89.593A129.4,129.4,0,0,1,347.257,254.7l-1.583-.225-.227-1.584a129.4,129.4,0,0,1,36.427-109.28A53.021,53.021,0,0,1,426.671,128.684Zm19.119,57.352L457.1,197.351l-37.615,37.614L408.175,223.65Zm-74.664,54.3-11.313-11.315,80.6-80.6,11.313,11.314Zm5.374-48.361-11.313-11.315L402.8,143.048l11.314,11.314ZM55.955,208.231a37.242,37.242,0,0,0,58.926-20.694,68.141,68.141,0,0,1,33.744-43.766h0a37.243,37.243,0,0,0-35.434-65.517,142.758,142.758,0,0,0-70.685,91.683A37.277,37.277,0,0,0,55.955,208.231Zm2.1-34.514a126.735,126.735,0,0,1,62.75-81.39,21.26,21.26,0,0,1,23.075,1.862,21.242,21.242,0,0,1-2.865,35.507,84.17,84.17,0,0,0-41.679,54.061,21.244,21.244,0,0,1-33.61,11.8A21.266,21.266,0,0,1,58.053,173.717ZM311.2,418.457a37.116,37.116,0,0,0-35.419-2.805,68.142,68.142,0,0,1-55.265,0,37.242,37.242,0,1,0-30.251,68.065,142.763,142.763,0,0,0,115.767,0,37.243,37.243,0,0,0,5.168-65.26ZM299.537,469.1a126.735,126.735,0,0,1-102.771,0,21.263,21.263,0,0,1-12.615-19.411A21.344,21.344,0,0,1,205.333,428.4a21.365,21.365,0,0,1,8.688,1.877,84.183,84.183,0,0,0,68.261,0,21.242,21.242,0,0,1,29.869,19.412A21.261,21.261,0,0,1,299.537,469.1Zm-56.49-77.349a34.171,34.171,0,0,0,48.324-48.325L267.579,319.63a8,8,0,0,0-4.526-2.263l-37.01-5.287a8,8,0,0,0-6.788,2.263,37.908,37.908,0,0,0,0,53.612Zm-14.912-63.205,30.016,4.288,21.906,21.905a18.171,18.171,0,1,1-25.7,25.7l-23.793-23.791a21.923,21.923,0,0,1-2.433-28.1ZM288.151,88.959a23.93,23.93,0,0,0,16.971-7.018l16.971-16.97a24,24,0,0,0-33.941-33.942L271.181,48a23.989,23.989,0,0,0,16.97,40.959ZM282.5,59.314l16.971-16.971a8,8,0,0,1,11.313,11.313l-16.97,16.971A8,8,0,1,1,282.5,59.314ZM256.151,272a24.027,24.027,0,0,0-24-24h-24a24,24,0,0,0,0,48h24A24.027,24.027,0,0,0,256.151,272Zm-56,0a8.009,8.009,0,0,1,8-8h24a8,8,0,0,1,0,16h-24A8.009,8.009,0,0,1,200.151,272Zm120,24V272a24,24,0,0,0-48,0v24a24,24,0,0,0,48,0Zm-16,0a8,8,0,0,1-16,0V272a8,8,0,0,1,16,0Zm-232-32V240a24,24,0,1,0-48,0v24a24,24,0,0,0,48,0Zm-16,0a8,8,0,0,1-16,0V240a8,8,0,0,1,16,0ZM354.768,86.532l19.92,13.386a23.829,23.829,0,0,0,13.335,4.088,24.353,24.353,0,0,0,4.671-.456,24,24,0,0,0,8.765-43.473l-19.92-13.385a24,24,0,1,0-26.771,39.84Zm6.745-24.382a8.008,8.008,0,0,1,11.1-2.178l19.921,13.385a8,8,0,0,1-8.925,13.282l-19.92-13.386A8.011,8.011,0,0,1,361.513,62.15ZM295.181,112a24,24,0,0,0,33.941,33.941l16.971-16.97a24,24,0,0,0-33.941-33.942Zm33.941-8a8,8,0,0,1,5.657,13.656l-16.97,16.971A8,8,0,1,1,306.5,123.314l16.971-16.971A7.945,7.945,0,0,1,329.122,104Z"/></g></svg>
