<svg id="Capa_1" enable-background="new 0 0 512 512" height="512" viewBox="0 0 512 512" width="512" xmlns="http://www.w3.org/2000/svg"><g><path d="m332.268 249.09h-17.9l-79.83-61.34c-35.86-27.55-85.95-27.55-121.809 0l-79.829 61.34h-17.9c-8.28 0-15 6.72-15 15v17.34c0 66.94 38.81 124.989 95.119 152.819v37c0 22.47 18.28 40.75 40.75 40.75h75.54c22.47 0 40.75-18.28 40.75-40.75v-37c56.3-27.83 95.109-85.88 95.109-152.819v-17.34c0-8.28-6.71-15-15-15zm-201.259-37.55c25.1-19.28 60.16-19.28 85.26 0l48.87 37.55h-183.009zm91.15 259.709c0 5.93-4.82 10.75-10.75 10.75h-75.54c-5.93 0-10.75-4.82-10.75-10.75v-25.57c30.337 8.379 67.61 8.128 97.04 0zm-127.04-71.38c-39.02-24.877-65.119-67.803-65.119-120.779h287.269c-.001 118.846-129.513 179.884-222.15 120.779z"/><path d="m497.827 122.791c-38.625-7.463-70.889 3.388-81.126 40.257v-57.621c2.051 3.987 5.839 6.924 10.386 7.834 22.315 4.438 51.188 1.124 68.49-16.06 15.01-14.91 19.76-37.26 14.13-66.45-1.16-6.01-5.86-10.72-11.88-11.88-29.18-5.63-51.54-.88-66.44 14.13-7.637 7.686-12.136 16.942-14.686 26.137v-44.137c0-8.284-6.716-15-15-15s-15 6.716-15 15v44.123c-.001-.004-.002-.009-.004-.014-2.55-9.18-7.05-18.43-14.68-26.11-14.91-15.01-37.26-19.76-66.44-14.13-6.02 1.16-10.72 5.87-11.89 11.89-5.63 29.18-.87 51.53 14.14 66.44 17.451 17.332 46.625 20.408 68.49 16.06 4.54-.91 8.33-3.85 10.38-7.85.001-.002.002-.005.004-.008v57.641c-.001-.005-.002-.009-.004-.014-2.55-9.18-7.05-18.43-14.68-26.11-14.9-15.01-37.26-19.77-66.44-14.13-6.02 1.16-10.72 5.86-11.89 11.88-5.63 29.18-.87 51.54 14.14 66.44 14.7 14.61 35.12 17.73 49.91 17.73 9.59 0 16.82-1.31 18.58-1.67 4.54-.9 8.33-3.84 10.38-7.84.001-.003.002-.005.004-.008v46.679c0 8.284 6.716 15 15 15s15-6.716 15-15v-46.654c2.051 3.987 5.839 6.924 10.386 7.824 1.76.36 8.98 1.67 18.58 1.67 14.79 0 35.21-3.13 49.91-17.73 15.01-14.9 19.76-37.26 14.13-66.44-1.16-6.019-5.86-10.719-11.88-11.879zm-45.109-68.7c5.98-5.98 15.71-8.41 29.02-7.25 1.16 13.31-1.27 23.04-7.24 29.02-7.59 7.59-20.78 9.21-30.78 9.01-.21-10.02 1.42-23.2 9-30.78zm-93.03 30.77c-10.02.21-23.2-1.42-30.78-9-5.97-5.98-8.4-15.71-7.25-29.02 13.31-1.15 23.05 1.27 29.02 7.25 7.59 7.58 9.22 20.77 9.01 30.77zm0 103.919c-10.02.22-23.2-1.42-30.78-9-5.97-5.98-8.4-15.72-7.25-29.02 13.31-1.16 23.05 1.27 29.02 7.24 7.59 7.59 9.22 20.78 9.01 30.78zm114.81-9c-7.59 7.58-20.79 9.21-30.78 9-.2-9.91 1.41-23.13 8.95-30.72 5.97-6.02 15.73-8.46 29.07-7.3 1.16 13.301-1.271 23.04-7.24 29.02z"/></g></svg>