<svg id="Capa_1" enable-background="new 0 0 512 512" height="512" viewBox="0 0 512 512" width="512" xmlns="http://www.w3.org/2000/svg"><g><path d="m479.062 383.569c-8.428-2.584-16.447-5.059-24.138-7.474 41.736-53.215 57.076-118.343 57.076-164.612 0-52.028-18.003-98.213-49.394-126.712-37.119-33.702-80.764-48.785-126.21-43.623-34.26 3.892-61.544 18.161-80.433 31.666-22.009-15.733-49.26-28.133-80.353-31.666-45.443-5.177-89.088 9.907-126.216 43.622-31.391 28.5-49.394 74.685-49.394 126.713 0 46.269 15.34 111.397 57.075 164.612-7.69 2.415-15.708 4.89-24.136 7.474-11.524 3.531-20.983 11.341-26.634 21.989s-6.816 22.859-3.283 34.378c5.847 19.086 23.181 31.91 43.133 31.91 4.473 0 8.928-.67 13.237-1.992 28.978-8.884 55.748-17.092 81.136-26.729 33.255 15.991 71.351 25.084 113.289 27.029.728.038 1.455.055 2.183.055s1.455-.017 2.093-.05c41.97-1.947 80.031-11.02 113.261-26.976 24.985 9.419 51.676 17.604 81.253 26.672 4.311 1.322 8.766 1.993 13.239 1.993 19.952 0 37.286-12.824 43.132-31.906 3.534-11.524 2.369-23.734-3.282-34.383s-15.111-18.459-26.634-21.99zm-139.28-312.612c36.623-4.164 72.119 8.297 102.658 36.025 25.141 22.825 39.56 60.914 39.56 104.5 0 43.616-15.333 106.084-57.737 154.625-10.955-3.744-21.155-7.48-30.787-11.379 21.886-21.909 38.405-50.091 48.317-82.742 9.677-31.877 9.957-57.667 9.957-60.503 0-34.562-11.082-65.255-29.645-82.104-24.29-22.056-50.848-31.599-78.907-28.362-17.217 1.954-32.042 8.341-43.658 15.327-5.376-7.712-12.022-15.677-19.797-23.424 15.213-9.807 35.521-19.178 60.039-21.963zm-8.553 154.782c.419-31.704-7.233-60.738-17.138-83.112 10.553-6.472 21.79-10.588 32.516-11.805 19.108-2.201 37.729 4.784 55.332 20.768h.005l-.002.002c12.033 10.922 19.808 34.431 19.808 59.891 0 3.415-.694 81.188-57.825 129.749-18.284-9.498-34.846-20.62-51.386-35.036 12.038-24.95 18.319-51.958 18.69-80.457zm-301.229-14.256c0-43.587 14.419-81.676 39.56-104.5l-.002-.002h.003c30.546-27.739 66.043-40.197 102.658-36.024 47.432 5.388 84.214 35.917 102.821 62.695 13.001 18.701 26.709 52.608 26.192 91.69l.007.003h-.007c-.261 20.088-4.003 39.269-11.117 57.277-12.284-17.057-18.828-36.799-19.106-58.072h-.019c.338-34.024-12.89-62.278-20.789-73.636-14.153-20.364-43.963-45.65-81.369-49.895-28.081-3.245-54.637 6.299-78.936 28.359-18.563 16.85-29.645 47.543-29.645 82.104 0 2.835.279 28.625 9.957 60.503 9.912 32.651 26.43 60.833 48.317 82.741-9.632 3.9-19.831 7.637-30.786 11.38-42.405-48.54-57.739-111.007-57.739-154.623zm150.771 14.251c.373 28.685 6.698 55.791 18.607 80.528-16.513 14.383-33.049 25.488-51.303 34.971-57.131-48.562-57.825-126.335-57.825-129.75 0-25.459 7.775-48.968 19.808-59.891l-.001-.001h.002c17.61-15.988 36.226-22.978 55.36-20.767 11.591 1.315 22.757 5.824 32.536 11.835-8.302 18.626-17.653 47.614-17.184 83.075zm-130.174 215.438c-1.458.448-2.953.674-4.442.674-6.578 0-12.52-4.399-14.451-10.703-1.185-3.862-.794-7.954 1.1-11.523 1.894-3.568 5.063-6.186 8.926-7.369 79.273-24.301 125.869-39.868 173.07-79.67 5.681 8.135 12.052 15.932 19.096 23.357-54.602 45.766-109.394 62.577-183.299 85.234zm205.345-64.585c1.217 1.043 2.433 2.072 3.649 3.087-1.193.082-2.386.164-3.591.229-1.245-.067-2.478-.152-3.71-.237 1.218-1.013 2.435-2.039 3.652-3.079zm.67 63.608c-.408.021-.726.026-1.315-.004-27.395-1.271-52.824-5.851-75.986-13.645 12.927-6.261 25.583-13.247 38.093-21.279 12.252 2.415 24.944 3.978 37.829 4.638.255.013.511.02.767.02s.511-.006.767-.02c12.987-.665 25.344-2.178 37.581-4.588 12.497 8.063 25.128 15.046 38.085 21.31-23.102 7.744-48.465 12.299-75.821 13.568zm223.683-9.047c-1.93 6.299-7.872 10.698-14.45 10.698-1.489 0-2.983-.227-4.459-.679-80.374-24.64-138.444-42.443-197.958-98.144-33.862-31.703-52.071-72.397-52.66-117.683l-.004-.003h.004c-.274-20.715 3.703-42.487 11.14-62.096 1.335 1.612 2.561 3.218 3.659 4.798 4.412 6.344 15.784 28.865 15.424 56.516l.465.38-.446.006c.481 36.861 15.381 70.056 43.091 95.997 51.983 48.656 99.585 64.771 186.169 91.314 3.861 1.183 7.03 3.8 8.924 7.369 1.896 3.569 2.286 7.661 1.101 11.527z"/></g></svg>