<?xml version="1.0" encoding="iso-8859-1"?>
<!-- Generator: Adobe Illustrator 19.0.0, SVG Export Plug-In . SVG Version: 6.00 Build 0)  -->
<svg version="1.1" id="Capa_1" xmlns="http://www.w3.org/2000/svg" xmlns:xlink="http://www.w3.org/1999/xlink" x="0px" y="0px"
	 viewBox="0 0 512 512" style="enable-background:new 0 0 512 512;" xml:space="preserve">
<g>
	<g>
		<path d="M188.28,201.649C181.828,175.118,158.076,156,130,156s-51.828,19.118-58.28,45.649C27.287,227.681,0,283.298,0,349
			c0,43.614,12.259,83.977,34.518,113.652C58.387,494.475,92.297,512,130,512s71.613-17.525,95.482-49.348
			C247.741,432.977,260,392.614,260,349C260,283.298,232.713,227.681,188.28,201.649z M130,482c-57.944,0-100-55.935-100-133
			c0-57.552,23.73-105.142,61.931-124.199l7.388-3.687l0.838-8.214C101.722,197.564,114.552,186,130,186s28.278,11.564,29.843,26.9
			l0.838,8.214l7.388,3.687C206.27,243.858,230,291.448,230,349C230,426.065,187.944,482,130,482z"/>
	</g>
</g>
<g>
	<g>
		<path d="M130,246c-40.561,0-70,43.317-70,103s29.439,103,70,103c40.561,0,70-43.317,70-103S170.561,246,130,246z M130,422
			c-22.804,0-40-31.383-40-73s17.196-73,40-73s40,31.383,40,73S152.804,422,130,422z"/>
	</g>
</g>
<g>
	<g>
		<path d="M477.482,49.348C453.613,17.525,419.703,0,382,0s-71.613,17.525-95.482,49.348C264.259,79.023,252,119.386,252,163
			c0,65.702,27.287,121.318,71.72,147.351C330.172,336.882,353.924,356,382,356s51.828-19.118,58.28-45.649
			C484.713,284.319,512,228.702,512,163C512,119.386,499.741,79.023,477.482,49.348z M420.069,287.199l-7.388,3.687l-0.838,8.214
			C410.278,314.436,397.448,326,382,326s-28.278-11.564-29.843-26.9l-0.838-8.214l-7.388-3.687C305.73,268.142,282,220.552,282,163
			c0-77.065,42.056-133,100-133c57.944,0,100,55.935,100,133C482,220.552,458.27,268.142,420.069,287.199z"/>
	</g>
</g>
<g>
	<g>
		<path d="M382,60c-40.561,0-70,43.317-70,103s29.439,103,70,103c40.561,0,70-43.317,70-103S422.561,60,382,60z M382,236
			c-22.804,0-40-31.383-40-73s17.196-73,40-73s40,31.383,40,73S404.804,236,382,236z"/>
	</g>
</g>
<g>
</g>
<g>
</g>
<g>
</g>
<g>
</g>
<g>
</g>
<g>
</g>
<g>
</g>
<g>
</g>
<g>
</g>
<g>
</g>
<g>
</g>
<g>
</g>
<g>
</g>
<g>
</g>
<g>
</g>
</svg>
