<svg id="Capa_1" enable-background="new 0 0 512 512" height="512" viewBox="0 0 512 512" width="512" xmlns="http://www.w3.org/2000/svg"><g><path d="m392.094 136.457-39.167-63.121v-40.375c0-18.174-14.786-32.961-32.961-32.961h-127.932c-18.175 0-32.961 14.787-32.961 32.961v40.375l-39.166 63.121c-1.474 2.375-2.254 5.114-2.254 7.909v323.815c0 24.162 19.657 43.819 43.819 43.819h189.058c24.162 0 43.819-19.657 43.819-43.819v-323.815c-.001-2.795-.781-5.534-2.255-7.909zm-209.676-43.845h147.164l22.806 36.754h-192.776zm9.616-62.612h127.933c1.633 0 2.961 1.329 2.961 2.961v29.65h-133.856v-29.65c0-1.632 1.329-2.961 2.962-2.961zm158.495 452h-189.058c-7.62 0-13.819-6.199-13.819-13.819v-308.815h216.696v308.815c0 7.62-6.199 13.819-13.819 13.819z"/><path d="m256 268.81c-32.143 0-58.293 26.15-58.293 58.293v16.287c0 29.804 17.802 56.408 45.352 67.778 4.173 1.722 8.557 2.583 12.941 2.583 4.385 0 8.77-.861 12.941-2.583 27.551-11.37 45.353-37.974 45.353-67.778v-16.287c-.001-32.143-26.151-58.293-58.294-58.293zm28.293 74.58c0 17.609-10.519 33.329-26.796 40.046-.967.397-2.03.398-2.995 0-16.278-6.718-26.796-22.437-26.796-40.046v-16.287c0-15.601 12.692-28.293 28.293-28.293s28.293 12.692 28.293 28.293v16.287z"/><path d="m301.185 213.949h-90.37c-8.284 0-15 6.716-15 15s6.716 15 15 15h90.37c8.284 0 15-6.716 15-15s-6.716-15-15-15z"/></g></svg>