<?xml version="1.0" standalone="no"?><!DOCTYPE svg PUBLIC "-//W3C//DTD SVG 1.1//EN" "http://www.w3.org/Graphics/SVG/1.1/DTD/svg11.dtd"><svg t="1601368794146" class="icon" viewBox="0 0 1024 1024" version="1.1" xmlns="http://www.w3.org/2000/svg" p-id="626" xmlns:xlink="http://www.w3.org/1999/xlink" width="200" height="200"><defs><style type="text/css"></style></defs><path d="M639.6 929.6h-0.2c-7.7-0.1-13.9-6.5-13.8-14.2 0-3.4 4.7-337.4 9.4-423.1 2.5-46.8-1.9-83-6.1-118-3.4-28-6.6-54.4-5.5-82.5 2-50.6-9.6-151.3-13-179.4-85.9-40.5-194.6-8.8-224 1.1-2.1 17.1-5.8 57.2 0.8 81.8 5.6 20.9 2.3 70.8-1.2 123.7-2.7 41-5.5 83.5-2.7 99.3 6.5 37.2 18.5 230.3 13.7 288.4-3.4 40.5 6 129.1 11 176.7 2.1 19.8 3 28.6 3 32.2 0 7.7-6.3 14-14 14s-14-6.3-14-14c0-2.5-1.4-15.5-2.9-29.3-5.1-48.5-14.7-138.9-11.1-182 4.7-55.9-7.4-247-13.3-281.2-3.3-19.1-0.7-59.3 2.4-105.9 2.9-43.8 6.4-98.2 2.1-114.7-10-37.4-0.7-98.9-0.3-101.5 0.8-4.9 4.1-9.1 8.7-10.9 6.1-2.4 149.6-57.7 261.4 0.6 4.1 2.1 6.8 6.1 7.4 10.7 0.7 5.3 16.5 130.2 14.1 191.4-1 25.9 2.1 51.2 5.4 78 4.2 34.6 9 73.7 6.3 122.9-4.6 85.1-9.3 418.6-9.3 422-0.4 7.7-6.6 13.9-14.3 13.9z" p-id="627"></path><path d="M497.1 959.8c-57.5 0-94.9-8.1-111.5-32.5-1.6-2.3-2.4-5.1-2.4-7.9 0-2.3 0.6-8.3 6.6-13.9 11.8-11.2 39.5-15.6 84.4-13.3 38.7 2 51.8-3.3 62.3-7.5s20.4-8.2 42.5-3.9c39.7 7.8 62.3 24.6 66 27.5 5.8 4.3 10.5 12.3 8 21.2-3.6 13.2-18.9 22.9-81.6 27.2-27.7 2-52.5 3.1-74.3 3.1zM422 921.7c28.4 12.9 89.2 11.1 147.5 7.1 23.6-1.6 37.8-3.9 46.4-5.9-9.2-4.9-23.3-10.9-42.2-14.7-13.9-2.7-18.1-1-26.6 2.4-12.4 5-29.3 11.8-74.1 9.5-26-1.2-41.7 0-51 1.6z m206 8.9l0.2 0.2-0.2-0.2zM333 192.7l13.3-19.5 74.7 37.4-18.7 31.9zM592.9 192.7l18.7 29.6 56.8-42.8-10.9-22.6zM512.8 311.7l11.7-7.7 50.5 36.5-24.9 21.8zM333 470.5l21 37.3 74-63-14-23.3zM493.3 661.9l19.5 23.3-49 49.1-15.6-10.1zM609.3 523.4l10.1-7.8 71.6 43.6-21.8 31.1zM408.5 798.9l14.8 21.7-55.3 49.8-24.9-35.8z" p-id="628"></path></svg>