<svg id="Capa_1" enable-background="new 0 0 512 512" height="512" viewBox="0 0 512 512" width="512" xmlns="http://www.w3.org/2000/svg"><g><path d="m83.01 298.885c-5.523 0-10 4.478-10 10s4.478 10 10 10h.028c5.523 0 9.985-4.478 9.985-10 .001-5.523-4.49-10-10.013-10z"/><path d="m502.36 155.635c-1.142-3.689-4.306-6.392-8.129-6.941-3.818-.55-7.62 1.151-9.756 4.368-8.704 13.115-14.454 21.779-18.245 24.555-2.135 1.563-4.603 1.634-14.235 1.256l-2.198-.085c-55.375-2.025-91.869 12.167-111.529 43.419-9.313 14.808-14.996 30.083-16.659 44.636-14.65 4.346-28.618 12.717-40.621 24.286v-87.268c0-20.088-11.716-30.325-22.053-39.359-12.411-10.845-24.133-21.088-24.133-50.5v-25.351c11.159-.973 19.944-10.358 19.944-21.76v-45.042c-.002-12.048-9.808-21.849-21.86-21.849h-44.937c-5.523 0-10 4.478-10 10s4.478 10 10 10h44.937c1.008 0 1.858.847 1.858 1.849v45.042c0 1.002-.851 1.849-1.858 1.849h-179.778c-1.008 0-1.858-.847-1.858-1.849v-45.042c0-.984.868-1.849 1.858-1.849h44.937c5.523 0 10-4.478 10-10s-4.478-10-10-10h-44.937c-12.052 0-21.858 9.801-21.858 21.849v45.042c0 11.402 8.785 20.787 19.944 21.76v25.352c0 29.418-11.726 39.667-24.14 50.518-10.333 9.032-22.045 19.269-22.045 39.34v252.907c0 20.128 16.385 36.504 36.526 36.504h110.209c20.556 10.25 42.813 16.562 64.538 18.262 3.978.312 7.922.466 11.824.466 19.202 0 37.341-3.747 53.021-11.016 28.454-13.19 48.108-37.16 57.128-69.551 18.798-5.262 36.571-17.16 50.601-33.998 13.696-16.438 22.109-35.533 24.141-54.512 18.309-5.441 35.579-17.175 49.279-33.617 21.579-25.901 22.791-48.343 23.765-66.377.137-2.531.268-4.96.446-7.336 18.695-26.657 26.133-46.812 15.873-79.958zm-287.59 216.27h-189.761v-126.012h235.978v70.776c-7.171 12.458-11.599 25.787-12.905 39.042-12.647 4.698-23.645 10.074-33.312 16.194zm-174.554-192.325c13.073-11.427 30.978-27.076 30.978-65.577v-25.263h143.606v25.263c0 38.494 17.902 54.138 30.972 65.56 9.997 8.735 15.214 13.783 15.214 24.298v22.031h-235.977v-22.031c0-10.5 5.214-15.547 15.207-24.281zm-15.207 277.188v-64.863h165.089c-19.992 20.709-32.367 47.386-43.325 81.367h-105.239c-9.112 0-16.525-7.403-16.525-16.504zm443.605-230.545c-1.027 1.437-1.655 3.12-1.82 4.879-.339 3.607-.535 7.237-.725 10.748-.939 17.407-1.828 33.85-19.159 54.652-12.474 14.972-29.017 25.426-45.389 28.682-4.628.92-7.983 4.95-8.049 9.668-.232 16.675-7.516 34.819-19.982 49.78-12.474 14.971-29.018 25.425-45.39 28.682-3.858.768-6.909 3.727-7.793 7.561-6.741 29.231-23.197 50.658-47.591 61.964-29.659 13.746-69.8 11.803-106.468-4.797 17.84-54.846 38.725-86.69 94.644-105.658 4.01-1.359 6.728-5.097 6.787-9.33.233-16.674 7.517-34.819 19.987-49.786 12.446-14.962 28.99-25.414 45.386-28.676 4.627-.92 7.982-4.949 8.048-9.667.186-13.152 5.06-27.699 14.096-42.069 15.745-25.024 45.555-35.847 93.858-34.081l2.155.083c10.948.43 18.857.741 26.837-5.105 3.027-2.217 5.813-5.133 8.974-9.199-.411 13.548-6.552 25.083-18.406 41.669z"/><path d="m445.474 230.131c-11.357-15.075-37.131-14.199-58.669 1.984-9.611 7.207-16.959 16.469-20.692 26.08-4.299 11.07-3.399 21.9 2.469 29.71 5.239 6.974 13.895 10.815 24.114 10.815 1.225 0 2.473-.055 3.738-.167 10.275-.904 21.225-5.38 30.833-12.601 21.555-16.199 29.556-40.715 18.214-55.812-.003-.002-.005-.006-.007-.009zm-30.222 39.833c-6.565 4.935-14.065 8.093-20.572 8.666-4.796.426-8.482-.574-10.107-2.738-1.624-2.161-1.557-5.973.185-10.457 2.362-6.084 7.483-12.396 14.055-17.324 8.317-6.251 16.605-8.745 22.585-8.745 3.871 0 6.775 1.045 8.098 2.793 3.342 4.463-.542 17.508-14.244 27.805z"/><path d="m350.478 311.405c-12.331-1.761-27.213 2.855-39.825 12.332-21.425 16.103-29.378 40.491-18.099 55.532 5.395 7.174 14.06 10.726 23.978 10.726 10.855 0 23.208-4.255 34.412-12.675 12.602-9.449 21.171-22.444 22.923-34.762 1.122-7.886-.541-15.056-4.808-20.737-4.266-5.69-10.692-9.292-18.581-10.416zm3.588 28.337c-.788 5.541-5.174 14.119-15.129 21.583-13.594 10.216-27.082 10.334-30.39 5.935-3.309-4.412.547-17.332 14.121-27.533 8.57-6.44 16.782-8.69 22.442-8.69.92 0 1.771.06 2.547.17 1.758.25 4.121.906 5.4 2.613l.009.012c1.28 1.701 1.25 4.153 1 5.91z"/><path d="m230.996 407.837c-10.905 4.865-20.074 12.224-25.818 20.722-6.622 9.797-8.144 20.511-4.172 29.405 4.907 10.958 16.971 16.896 31.438 16.896 8.168 0 17.104-1.894 25.946-5.845 10.901-4.879 20.066-12.243 25.807-20.738 6.624-9.801 8.145-20.51 4.172-29.383-7.677-17.146-32.878-22.001-57.373-11.057zm36.63 29.239c-3.628 5.368-9.972 10.355-17.402 13.68-15.531 6.941-28.712 4.062-30.96-.958-1.088-2.436-.183-6.095 2.484-10.04 3.626-5.364 9.966-10.342 17.402-13.658 6.577-2.939 12.733-4.117 17.816-4.117 6.919 0 11.851 2.184 13.149 5.083 1.067 2.384.137 6.127-2.489 10.01z"/><path d="m143.012 20h.028c5.523 0 9.986-4.478 9.986-10s-4.492-10-10.015-10-10 4.478-10 10 4.478 10 10.001 10z"/><path d="m204.687 298.885h-74.329c-5.523 0-10 4.478-10 10s4.478 10 10 10h74.329c5.523 0 10-4.478 10-10 0-5.523-4.477-10-10-10z"/></g></svg>