<?xml version="1.0" standalone="no"?><!DOCTYPE svg PUBLIC "-//W3C//DTD SVG 1.1//EN" "http://www.w3.org/Graphics/SVG/1.1/DTD/svg11.dtd"><svg t="1601363737034" class="icon" viewBox="0 0 1024 1024" version="1.1" xmlns="http://www.w3.org/2000/svg" p-id="602" xmlns:xlink="http://www.w3.org/1999/xlink" width="200" height="200"><defs><style type="text/css"></style></defs><path d="M511.3 94.1c230.9 0 418.1 187.2 418.1 418.1S742.3 930.4 511.3 930.4 93.2 743.2 93.2 512.2 280.4 94.1 511.3 94.1m0-29.9c-247 0-448 201-448 448s201 448 448 448 448-201 448-448-200.9-448-448-448z" fill="" p-id="603"></path><path d="M959.3 512.2c0-11.6-0.6-23.1-1.5-34.5L663.7 730.3c-6-33.7-24-67.7-52.1-98.7L938 375.8C908.6 284 850.2 205 773.7 149.5l85.9 104.4-121.5 98.6c-9.6 7.8-11.1 21.9-3.3 31.5 4.4 5.5 10.9 8.3 17.4 8.3 5 0 9.9-1.6 14.1-5L888 288.5l25.3 30.7-357.6 280.3c0.2-4.1 0.4-8.3 0.4-12.5 0-49.8-14.6-101-40-147.2l226.3-177.5c9.7-7.6 11.4-21.7 3.8-31.5-7.6-9.7-21.7-11.4-31.5-3.8L491.8 401.8c-10.7-14.5-22.5-28.2-35.3-40.9l154.4-118.4c9.8-7.5 11.7-21.6 4.1-31.4-7.6-9.8-21.6-11.7-31.4-4.1L421.8 331.1c-24.5-18.1-49.7-31.2-74.7-39L641.7 83.6c-25.8-7.9-52.6-13.4-80.1-16.5l-321 227.2c-11.9 8.5-16 24.3-9.6 37.5s21.4 19.7 35.4 15.5c35.1-10.5 78.9 1.2 120.3 32 65.6 48.8 109.6 132.3 109.6 207.7 0 48.7-22.9 87.7-58.2 99.3-37.9 12.5-81.3-8.3-116.2-55.5-44.4-60-48.6-110.4-38.9-135.4 5.2-13.3 14.6-21 28.6-23.6 28.1-5.4 53.3 22 65.2 49.5 10.3 23.7 13.2 55.2-4.6 68.2-13.3 9.7-16.3 28.4-6.6 41.7 9.7 13.3 28.4 16.3 41.7 6.6 38.6-28.1 48.4-84.4 24.3-140.1-21.7-50.3-70.8-95.9-131-84.6-34.4 6.5-60.4 28-73.1 60.5-20.9 53.2-3.5 125.2 46.4 192.7 40 54.1 90.8 83.4 141.4 83.4 5.2 0 10.5-0.4 15.7-1 19.8 53.1 52.6 91.6 92.7 107.5 13 5.1 26.3 7.7 39.4 7.7 18.4 0 36.5-5.2 53.1-15.2 0.5-0.3 1-0.5 1.5-0.8 0.1-0.1 0.3-0.1 0.4-0.2 7.8-4.9 14.6-10.7 20.6-17.2l318.4-273.4c1.5-14.8 2.2-29.7 2.2-44.9zM596.5 788.1l-11.3 9.7c-12.4 7.4-25.7 8.5-39.6 3-23.8-9.4-44.8-35.8-58.5-72.3 4.1-2.7 8.1-5.5 11.9-8.6l65.5-51.3c28.5 30.2 44 63.6 41.9 92.3-0.7 8.1-3.1 18.5-9.9 27.2z" fill="" p-id="604"></path></svg>