<svg height="512" viewBox="0 0 128 128" width="512" xmlns="http://www.w3.org/2000/svg"><path d="m102.5 100.75h-15.321a6.4 6.4 0 0 0 .649-2.288l4.1-44.843a7.583 7.583 0 0 0 -5.058-7.747 4.032 4.032 0 0 1 -2.58-3.71 4.684 4.684 0 0 0 -4.646-4.762.168.168 0 0 1 -.168-.168v-1.765h1.311a1.751 1.751 0 0 0 1.75-1.75v-8.217a1.751 1.751 0 0 0 -1.75-1.75h-33.574a1.751 1.751 0 0 0 -1.75 1.75v8.217a1.751 1.751 0 0 0 1.75 1.75h1.311v1.763a.168.168 0 0 1 -.168.168 4.684 4.684 0 0 0 -4.649 4.764 4.032 4.032 0 0 1 -2.58 3.71 7.583 7.583 0 0 0 -5.058 7.747l4.1 44.842a6.4 6.4 0 0 0 .649 2.289h-15.318a1.75 1.75 0 0 0 0 3.5h77a1.75 1.75 0 0 0 0-3.5zm-61.807-35h46.614l-1.388 15.167h-43.838zm8.27-38.5h30.074v4.717h-30.074zm9.937 13.275a4.581 4.581 0 0 0 -3.268-1.342h-.02a3.523 3.523 0 0 1 -3.532-3.716h15.776a2.552 2.552 0 0 1 -.547 1.464 2.6 2.6 0 0 1 -2.054.986 3.843 3.843 0 0 0 -2.655 1.069 3.48 3.48 0 0 0 -1.031 2.484v14.941a.651.651 0 0 1 -.218.489.638.638 0 0 1 -.514.165.767.767 0 0 1 -.584-.791v-12.491a4.571 4.571 0 0 0 -1.353-3.258zm-16.53 8.619a7.457 7.457 0 0 0 4.836-6.954 1.213 1.213 0 0 1 1.15-1.29 3.645 3.645 0 0 0 1.989-.594 7.04 7.04 0 0 0 5.307 2.379 1.1 1.1 0 0 1 1.1 1.1v12.489a4.27 4.27 0 0 0 3.735 4.274 4.159 4.159 0 0 0 4.581-4.137v-14.94c.008-.011.061-.054.2-.054a6.091 6.091 0 0 0 6.1-5.95h4.612v1.763a3.672 3.672 0 0 0 3.664 3.67 1.213 1.213 0 0 1 1.149 1.292 7.457 7.457 0 0 0 4.836 6.954 4.121 4.121 0 0 1 2.817 4.154l-.819 8.951h-47.254l-.819-8.951a4.121 4.121 0 0 1 2.817-4.156zm1.286 49-1.256-13.727h43.2l-1.257 13.726a2.86 2.86 0 0 1 -2.865 2.607h-34.956a2.86 2.86 0 0 1 -2.865-2.607z"/></svg>